<svg width="68" height="21" viewBox="0 0 68 21" fill="none" xmlns="http://www.w3.org/2000/svg">
<rect x="0.647461" y="0.229004" width="67.3158" height="20.1947" rx="3.36579" fill="#F3DF4F"/>
<path d="M24.166 14.5948H21.4913C21.1922 12.2096 20.8144 10.1388 20.3581 8.38254C20.5805 7.93004 20.7703 7.51589 20.9276 7.14009C20.9544 7.08257 21.0234 7.00587 21.1346 6.91001C21.2497 6.81414 21.3475 6.7662 21.428 6.7662H23.2572C23.4144 7.92429 23.6253 9.21467 23.8899 10.6374C24.1583 12.0562 24.4191 13.2488 24.6722 14.2152C24.6722 14.265 24.6108 14.3417 24.4881 14.4452C24.3654 14.5449 24.258 14.5948 24.166 14.5948ZM19.5701 13.5767L19.5873 14.2152C19.5873 14.265 19.5241 14.3417 19.3975 14.4452C19.2748 14.5449 19.1693 14.5948 19.0811 14.5948H17.2462C17.8521 13.5671 18.7916 11.6842 20.0648 8.94624C20.0993 9.04595 20.1165 9.18591 20.1165 9.36615C20.1165 9.54254 20.0897 9.79947 20.036 10.1369C19.9861 10.4744 19.921 10.8732 19.8404 11.3334C19.7599 11.7897 19.7005 12.1597 19.6621 12.4435C20.2143 12.5279 20.615 12.6218 20.8643 12.7254C20.8643 12.9554 20.8259 13.1261 20.7493 13.2373C20.3504 13.2718 19.9574 13.3236 19.5701 13.3926V13.5767ZM28.0947 14.7098C28.1867 14.0388 28.2423 13.2661 28.2615 12.3917C28.2806 11.5136 28.3056 10.622 28.3362 9.71702C28.3708 8.80819 28.4513 7.95113 28.5778 7.14584C28.5778 7.09216 28.6392 7.01546 28.7619 6.91576C28.8884 6.81606 28.9939 6.7662 29.0783 6.7662H31.7587C31.4826 7.93579 31.3082 8.87722 31.2353 9.59048C31.1624 10.3037 31.1049 10.8674 31.0627 11.2816C31.0206 11.6957 30.9803 12.0409 30.9419 12.317C30.9036 12.5931 30.8442 12.8634 30.7636 13.128C30.6831 13.3888 30.5815 13.6016 30.4588 13.7665C30.3361 13.9275 30.1692 14.0771 29.9583 14.2152C29.5902 14.4606 28.969 14.6255 28.0947 14.7098ZM25.7593 12.5758C25.7708 12.5183 25.836 12.4416 25.9549 12.3457C26.0776 12.246 26.1792 12.1962 26.2597 12.1962C26.4246 12.6525 26.6164 13.0398 26.835 13.3581C27.0574 13.6764 27.3411 13.9506 27.6863 14.1806C27.6748 14.3839 27.6402 14.5603 27.5827 14.7098C26.8963 14.7098 26.2099 14.5641 25.5235 14.2727C25.535 13.7742 25.6136 13.2085 25.7593 12.5758ZM38.9028 14.5948H36.2281C35.929 12.2096 35.5513 10.1388 35.0949 8.38254C35.3174 7.93004 35.5072 7.51589 35.6644 7.14009C35.6912 7.08257 35.7603 7.00587 35.8715 6.91001C35.9865 6.81414 36.0843 6.7662 36.1648 6.7662H37.994C38.1512 7.92429 38.3621 9.21467 38.6267 10.6374C38.8952 12.0562 39.1559 13.2488 39.409 14.2152C39.409 14.265 39.3477 14.3417 39.2249 14.4452C39.1022 14.5449 38.9949 14.5948 38.9028 14.5948ZM34.3069 13.5767L34.3242 14.2152C34.3242 14.265 34.2609 14.3417 34.1343 14.4452C34.0116 14.5449 33.9062 14.5948 33.818 14.5948H31.9831C32.589 13.5671 33.5285 11.6842 34.8016 8.94624C34.8361 9.04595 34.8534 9.18591 34.8534 9.36615C34.8534 9.54254 34.8265 9.79947 34.7728 10.1369C34.723 10.4744 34.6578 10.8732 34.5773 11.3334C34.4967 11.7897 34.4373 12.1597 34.3989 12.4435C34.9511 12.5279 35.3519 12.6218 35.6011 12.7254C35.6011 12.9554 35.5628 13.1261 35.4861 13.2373C35.0873 13.2718 34.6942 13.3236 34.3069 13.3926V13.5767ZM43.8381 14.5948C43.0673 11.9488 42.1393 9.46393 41.0541 7.14009C41.0541 7.09024 41.1155 7.01546 41.2382 6.91576C41.3647 6.81606 41.4721 6.7662 41.5603 6.7662H44.5054C44.9425 8.26175 45.3624 9.55405 45.7651 10.6431C46.1677 11.7283 46.6739 12.919 47.2836 14.2152C47.2836 14.265 47.2223 14.3417 47.0995 14.4452C46.9768 14.5449 46.8714 14.5948 46.7832 14.5948H43.8381ZM46.0757 10.4475C46.2942 9.72277 46.4035 9.09388 46.4035 8.56085C46.4035 8.30776 46.3805 8.08535 46.3345 7.89361C46.2885 7.69804 46.208 7.44687 46.0929 7.14009C46.0929 7.09024 46.1543 7.01546 46.277 6.91576C46.4035 6.81606 46.5109 6.7662 46.5991 6.7662H48.434C47.9777 7.46412 47.6038 8.06234 47.3124 8.56085C47.0209 9.05937 46.7755 9.55788 46.5761 10.0564C46.5531 10.1178 46.486 10.1983 46.3748 10.298C46.2636 10.3977 46.1639 10.4475 46.0757 10.4475ZM42.2793 10.8904C42.0607 11.5922 41.9514 12.1847 41.9514 12.6678C41.9514 13.151 42.055 13.6668 42.262 14.2152C42.262 14.265 42.1988 14.3417 42.0722 14.4452C41.9495 14.5449 41.8441 14.5948 41.7559 14.5948H39.9152C40.8163 13.2105 41.4357 12.1022 41.7731 11.2701C41.7961 11.2087 41.8632 11.1301 41.9744 11.0342C42.0895 10.9384 42.1911 10.8904 42.2793 10.8904Z" fill="black"/>
</svg>
