<svg width="38" height="38" viewBox="0 0 38 38" fill="none" xmlns="http://www.w3.org/2000/svg">
<path d="M26.6373 16.8581C24.2489 16.8581 23.9183 19.2382 23.9183 19.2382H28.9926C28.9926 19.2382 29.0256 16.8581 26.6373 16.8581V16.8581Z" fill="#40C463"/>
<path d="M15.1253 19.2382H10.6295V23.3703H14.9021C15.5467 23.3538 16.7533 23.172 16.7533 21.3621C16.7533 19.2134 15.1253 19.2382 15.1253 19.2382V19.2382Z" fill="#40C463"/>
<path d="M19.3566 0.197449C9.13373 0.197449 0.844727 8.48646 0.844727 18.7093C0.844727 28.9321 9.13373 37.2211 19.3566 37.2211C29.5794 37.2211 37.8684 28.9321 37.8684 18.7093C37.8684 8.48646 29.5794 0.197449 19.3566 0.197449ZM23.2573 11.569H29.629V13.4698H23.2573V11.569ZM20.0342 21.5522C20.0342 26.2628 15.1253 26.114 15.1253 26.114H7.09247V10.6599H15.1253C17.5715 10.6599 19.4971 12.007 19.4971 14.7755C19.4971 17.544 17.1418 17.7176 17.1418 17.7176C20.2491 17.7176 20.0342 21.5522 20.0342 21.5522ZM31.9512 21.296H23.9432C23.9432 24.1637 26.6621 23.9819 26.6621 23.9819C29.2323 23.9819 29.1414 22.3208 29.1414 22.3208H31.8603C31.8603 26.7338 26.5712 26.4281 26.5712 26.4281C20.2326 26.4281 20.6375 20.5192 20.6375 20.5192C20.6375 20.5192 20.6293 14.5854 26.5712 14.5854C32.8272 14.5937 31.9512 21.296 31.9512 21.296Z" fill="#40C463"/>
<path d="M16.2161 15.0152C16.2161 13.4119 15.1253 13.4119 15.1253 13.4119H10.6295V16.8581H14.8443C15.5715 16.8581 16.2161 16.6184 16.2161 15.0152Z" fill="#40C463"/>
</svg>
