<svg width="92" height="21" viewBox="0 0 92 21" fill="none" xmlns="http://www.w3.org/2000/svg">
<rect x="0.307861" y="0.229004" width="90.8763" height="20.1947" rx="3.36579" fill="#F3DF4F"/>
<path d="M10.9976 14.5718C11.5038 12.5355 11.8777 10.0794 12.1193 7.20336C12.1193 7.15735 12.1806 7.0864 12.3033 6.99054C12.426 6.89083 12.5315 6.83906 12.6197 6.83523C13.7701 6.73936 14.6464 6.69143 15.2484 6.69143C14.7 9.05362 14.3223 11.5749 14.1152 14.2554C14.1152 14.3091 14.0539 14.3877 13.9312 14.4913C13.8085 14.591 13.7011 14.6408 13.6091 14.6408C12.9418 14.6408 12.0713 14.6178 10.9976 14.5718ZM14.4374 14.6063C14.8592 14.4567 15.2292 14.1423 15.5475 13.663C15.8658 13.1798 16.0249 12.6947 16.0249 12.2077C16.0249 11.5481 15.722 11.0937 15.1161 10.8444C15.0548 10.8061 15.0241 10.7428 15.0241 10.6546C15.0241 10.4475 15.0854 10.3267 15.2081 10.2922C15.4804 10.2194 15.7124 9.97778 15.9041 9.56747C16.0959 9.15332 16.1917 8.69507 16.1917 8.19272C16.1917 7.68654 16.0307 7.31457 15.7086 7.07682C15.7086 7.0193 15.7738 6.93877 15.9041 6.83523C16.0345 6.73169 16.1457 6.67992 16.2378 6.67992C17.4572 6.76045 18.2433 7.14392 18.5961 7.83034C18.7035 8.03741 18.7572 8.27325 18.7572 8.53785C18.7572 8.80244 18.6901 9.04786 18.5559 9.27411C18.4255 9.50036 18.2567 9.69018 18.0497 9.84357C17.8464 9.99312 17.6068 10.1254 17.3307 10.2405C16.8321 10.4475 16.303 10.5798 15.7431 10.6374C15.9732 10.622 16.1611 10.6143 16.3068 10.6143C17.0354 10.6143 17.6068 10.7677 18.0209 11.0745C18.4351 11.3775 18.6421 11.8108 18.6421 12.3745C18.6421 12.7004 18.5712 12.9976 18.4293 13.2661C18.2913 13.5345 18.1091 13.7569 17.8829 13.9333C17.6604 14.1059 17.3997 14.2535 17.1006 14.3762C16.5522 14.5986 15.9444 14.7098 15.2772 14.7098C14.9857 14.7098 14.7058 14.6753 14.4374 14.6063ZM24.0433 8.6874C23.123 9.56939 22.6628 10.7601 22.6628 12.2594C22.6628 12.896 22.7472 13.5364 22.9159 14.1806C22.9121 14.2382 22.8488 14.3168 22.7261 14.4165C22.6072 14.5162 22.5056 14.566 22.4213 14.566C21.777 14.4778 21.2191 14.2113 20.7474 13.7665C20.2527 13.2987 20.0054 12.7158 20.0054 12.0179C20.0054 11.3161 20.1799 10.7179 20.5288 10.2232C20.8816 9.72469 21.3629 9.34505 21.9726 9.08429C22.5823 8.8197 23.2726 8.6874 24.0433 8.6874ZM23.2668 14.6466C24.1871 13.7646 24.6473 12.5739 24.6473 11.0745C24.6473 10.4379 24.5629 9.79755 24.3942 9.15332C24.398 9.0958 24.4594 9.01719 24.5783 8.91748C24.701 8.81778 24.8045 8.76793 24.8889 8.76793C25.5331 8.85613 26.0892 9.12264 26.557 9.56747C27.0555 10.0353 27.3048 10.6201 27.3048 11.3219C27.3048 12.0198 27.1284 12.618 26.7756 13.1165C26.4266 13.6112 25.9473 13.9908 25.3376 14.2554C24.7278 14.5162 24.0376 14.6466 23.2668 14.6466ZM32.8785 8.6874C31.9582 9.56939 31.498 10.7601 31.498 12.2594C31.498 12.896 31.5824 13.5364 31.7511 14.1806C31.7473 14.2382 31.684 14.3168 31.5613 14.4165C31.4424 14.5162 31.3408 14.566 31.2564 14.566C30.6122 14.4778 30.0543 14.2113 29.5826 13.7665C29.0879 13.2987 28.8406 12.7158 28.8406 12.0179C28.8406 11.3161 29.0151 10.7179 29.364 10.2232C29.7168 9.72469 30.1981 9.34505 30.8078 9.08429C31.4175 8.8197 32.1078 8.6874 32.8785 8.6874ZM32.102 14.6466C33.0223 13.7646 33.4825 12.5739 33.4825 11.0745C33.4825 10.4379 33.3981 9.79755 33.2294 9.15332C33.2332 9.0958 33.2946 9.01719 33.4135 8.91748C33.5362 8.81778 33.6397 8.76793 33.7241 8.76793C34.3683 8.85613 34.9244 9.12264 35.3922 9.56747C35.8907 10.0353 36.14 10.6201 36.14 11.3219C36.14 12.0198 35.9636 12.618 35.6108 13.1165C35.2618 13.6112 34.7825 13.9908 34.1728 14.2554C33.563 14.5162 32.8728 14.6466 32.102 14.6466ZM42.1106 14.2439C41.3245 14.497 40.5403 14.6235 39.758 14.6235C38.251 14.6235 37.4975 14.0234 37.4975 12.8231C37.4975 12.5624 37.5531 12.0428 37.6643 11.2643C37.7755 10.482 37.8311 9.94327 37.8311 9.648C37.8311 9.34889 37.8177 9.12072 37.7908 8.9635C38.3162 8.72958 38.7783 8.46499 39.1771 8.16971C39.5759 7.87444 39.9632 7.51206 40.339 7.08257C40.5307 7.02505 40.78 6.99629 41.0868 6.99629C40.8298 7.90128 40.6247 8.8312 40.4713 9.78605C40.3217 10.7409 40.247 11.4465 40.247 11.9028C40.247 12.3553 40.2795 12.6832 40.3447 12.8864C40.4099 13.0858 40.5154 13.2411 40.6611 13.3523C40.918 13.5479 41.3245 13.6457 41.8805 13.6457C42.0148 13.6457 42.1566 13.6399 42.3062 13.6284C42.2717 13.8815 42.2065 14.0867 42.1106 14.2439ZM41.104 10.2462C41.1385 9.71319 41.2248 9.21851 41.3629 8.76218C41.7387 8.9194 42.1586 9.03061 42.6226 9.0958C42.6532 9.15332 42.682 9.24919 42.7088 9.3834C42.7357 9.51378 42.7491 9.61732 42.7491 9.69401C42.2161 9.83973 41.6677 10.0238 41.104 10.2462ZM46.6203 8.68165C46.4017 8.88872 46.2924 9.1073 46.2924 9.33738C46.2924 9.87425 46.7008 10.4303 47.5176 11.0055C47.8857 11.2662 48.1733 11.4887 48.3804 11.6727C48.8444 12.0869 49.0764 12.5375 49.0764 13.0245C49.0764 13.5076 48.8329 13.8988 48.3459 14.1979C47.8627 14.4932 47.184 14.6408 46.3096 14.6408C46.4093 14.4184 46.4592 14.2171 46.4592 14.0368C46.4592 13.8566 46.4074 13.6821 46.3039 13.5134C46.2042 13.3408 46.0738 13.1836 45.9128 13.0417C45.7517 12.8998 45.5734 12.758 45.3778 12.6161C45.1822 12.4704 44.9867 12.3227 44.7911 12.1732C44.5955 12.0236 44.4172 11.8702 44.2562 11.713C43.8919 11.3564 43.7097 10.971 43.7097 10.5568C43.7097 10.1005 43.8784 9.72853 44.2159 9.44092C44.7949 8.95391 45.5964 8.70082 46.6203 8.68165ZM47.5118 8.6989C48.0525 8.6989 48.5165 8.80628 48.9038 9.02102C49.2911 9.23193 49.4848 9.49077 49.4848 9.79755C49.4848 10.2731 49.04 10.5645 48.1503 10.6719C48.158 10.645 48.1618 10.6028 48.1618 10.5453C48.1618 10.2539 48.0698 9.98545 47.8857 9.74003C47.7016 9.49077 47.4447 9.29137 47.1149 9.14181C47.1149 9.08046 47.1571 8.99609 47.2415 8.88872C47.3258 8.78135 47.416 8.71808 47.5118 8.6989ZM45.303 14.6178C45.1113 14.6331 44.9694 14.6408 44.8774 14.6408C44.3213 14.6408 43.8593 14.5507 43.4911 14.3705C43.123 14.1864 42.9389 13.9486 42.9389 13.6572C42.9389 13.0705 43.3818 12.7004 44.2677 12.547C44.237 12.7119 44.2236 12.8577 44.2274 12.9842C44.2351 13.1069 44.2772 13.2296 44.3539 13.3523C44.4345 13.4712 44.5457 13.5786 44.6876 13.6745C44.9406 13.8432 45.2551 13.9985 45.6309 14.1404C45.6309 14.1979 45.5945 14.2842 45.5216 14.3992C45.4526 14.5104 45.3797 14.5833 45.303 14.6178ZM54.8918 14.2439C54.1056 14.497 53.3214 14.6235 52.5392 14.6235C51.0321 14.6235 50.2786 14.0234 50.2786 12.8231C50.2786 12.5624 50.3342 12.0428 50.4454 11.2643C50.5566 10.482 50.6122 9.94327 50.6122 9.648C50.6122 9.34889 50.5988 9.12072 50.5719 8.9635C51.0973 8.72958 51.5594 8.46499 51.9582 8.16971C52.357 7.87444 52.7443 7.51206 53.1201 7.08257C53.3118 7.02505 53.5611 6.99629 53.8679 6.99629C53.611 7.90128 53.4058 8.8312 53.2524 9.78605C53.1029 10.7409 53.0281 11.4465 53.0281 11.9028C53.0281 12.3553 53.0607 12.6832 53.1259 12.8864C53.1911 13.0858 53.2965 13.2411 53.4422 13.3523C53.6992 13.5479 54.1056 13.6457 54.6617 13.6457C54.7959 13.6457 54.9378 13.6399 55.0873 13.6284C55.0528 13.8815 54.9876 14.0867 54.8918 14.2439ZM53.8851 10.2462C53.9197 9.71319 54.0059 9.21851 54.144 8.76218C54.5198 8.9194 54.9397 9.03061 55.4037 9.0958C55.4344 9.15332 55.4631 9.24919 55.49 9.3834C55.5168 9.51378 55.5302 9.61732 55.5302 9.69401C54.9972 9.83973 54.4488 10.0238 53.8851 10.2462ZM61.846 8.73342C62.2832 8.73342 62.5018 9.0076 62.5018 9.55596C62.5018 9.89725 62.4423 10.2385 62.3234 10.5798C62.2046 10.9173 62.055 11.1761 61.8748 11.3564C61.6217 11.18 61.3092 11.0342 60.9372 10.9192C60.5691 10.8003 60.2163 10.7351 59.8788 10.7236C59.9095 10.5127 59.9708 10.2884 60.0629 10.0506C60.6803 9.17249 61.2746 8.73342 61.846 8.73342ZM58.4005 14.5948H55.9904C56.3815 12.9228 56.6576 11.1493 56.8187 9.27411C56.8187 9.23193 56.8801 9.1629 57.0028 9.06704C57.1293 8.97117 57.2578 8.91173 57.3882 8.88872C57.5224 8.86571 57.8656 8.83504 58.4178 8.79669C58.9738 8.75451 59.3995 8.73342 59.6947 8.73342C59.3151 10.6316 59.0505 12.4588 58.901 14.2152C58.901 14.265 58.8396 14.3417 58.7169 14.4452C58.5942 14.5449 58.4887 14.5948 58.4005 14.5948ZM69.9565 14.3647C69.2087 14.5258 68.4053 14.6063 67.5463 14.6063C67.3508 14.3417 67.253 14.0637 67.253 13.7722C67.253 13.4808 67.3393 12.7426 67.5118 11.5577C67.6844 10.3689 67.7726 9.57897 67.7764 9.18783C67.7764 9.13798 67.8397 9.0632 67.9662 8.9635C68.0928 8.8638 68.1982 8.81395 68.2826 8.81395C69.1032 8.81395 69.8759 8.92323 70.6007 9.14181C70.5853 9.26452 70.4837 9.75345 70.2958 10.6086C70.1079 11.4599 70.014 12.1444 70.014 12.6621C70.014 13.1759 70.152 13.5709 70.4281 13.847C70.4281 13.9007 70.3744 13.9908 70.2671 14.1174C70.1597 14.2401 70.0562 14.3225 69.9565 14.3647ZM67.2932 8.73342C66.8369 9.07087 66.4899 9.52912 66.2521 10.1082C66.0182 10.6872 65.9012 11.2567 65.9012 11.8165C65.9012 12.3726 65.9626 12.873 66.0853 13.3178C66.2118 13.7588 66.3806 14.0541 66.5915 14.2036C66.5915 14.2612 66.5301 14.3417 66.4074 14.4452C66.2847 14.5449 66.1793 14.5948 66.0911 14.5948C65.2129 14.5948 64.5073 14.3743 63.9743 13.9333C63.4451 13.4923 63.1805 12.8903 63.1805 12.1271C63.1805 11.18 63.539 10.3843 64.2561 9.74003C64.6013 9.42942 65.0346 9.184 65.5561 9.00376C66.0815 8.82353 66.6605 8.73342 67.2932 8.73342ZM71.6188 17.0049C72.2094 14.2439 72.5986 11.6631 72.7865 9.26261C72.7865 9.21659 72.8478 9.14565 72.9705 9.04978C73.0933 8.95008 73.2332 8.89256 73.3904 8.87722C73.5477 8.86188 73.9024 8.83887 74.4546 8.80819C75.0106 8.77368 75.4094 8.75642 75.651 8.75642C75.233 10.5664 74.863 13.1913 74.5409 16.631C74.5409 16.6809 74.4776 16.7557 74.351 16.8554C74.2283 16.9551 74.1248 17.0049 74.0404 17.0049H71.6188ZM75.4554 14.5948C75.7469 14.4107 75.9981 14.127 76.209 13.7435C76.6001 13.0264 76.7957 12.2288 76.7957 11.3506C76.7957 10.4725 76.5886 9.72853 76.1745 9.11881C76.1745 9.06128 76.2339 8.98267 76.3528 8.88297C76.4716 8.78327 76.5752 8.73342 76.6634 8.73342C77.1734 8.73342 77.6374 8.83695 78.0554 9.04403C78.4734 9.2511 78.8089 9.55596 79.062 9.95861C79.3151 10.3574 79.4416 10.8195 79.4416 11.3449C79.4416 12.3074 79.0831 13.0897 78.366 13.6917C77.6527 14.2938 76.6826 14.5948 75.4554 14.5948Z" fill="black"/>
</svg>
