<svg width="34" height="35" viewBox="0 0 34 35" fill="none" xmlns="http://www.w3.org/2000/svg">
<path d="M16.0942 13.5239V9.34301L9.06214 14.0236L12.2025 16.1197L16.0942 13.5239ZM25.6394 18.6966V15.6989L23.393 17.1978L25.6394 18.6966ZM16.992 0.350037C7.69855 0.350037 0.163086 7.8855 0.163086 17.179C0.163086 26.4725 7.69855 34.0079 16.992 34.0079C26.2855 34.0079 33.821 26.4725 33.821 17.179C33.821 7.8855 26.2855 0.350037 16.992 0.350037ZM27.435 20.372C27.435 20.4133 27.4312 20.4509 27.4275 20.4884C27.4275 20.5035 27.4237 20.5147 27.42 20.526C27.4147 20.5671 27.4046 20.6074 27.3899 20.6462C27.3824 20.6687 27.3749 20.6913 27.3674 20.7101C27.3599 20.7251 27.3524 20.7401 27.3486 20.7551C27.3373 20.7739 27.3298 20.7965 27.3185 20.8152C27.311 20.8303 27.3035 20.8415 27.2923 20.8566C27.281 20.8753 27.266 20.8941 27.2547 20.9129C27.2434 20.9279 27.2359 20.9392 27.2246 20.9505C27.2096 20.9655 27.1946 20.9843 27.1796 20.9993C27.1683 21.0106 27.157 21.0218 27.142 21.0331C27.127 21.0481 27.1082 21.0632 27.0894 21.0744C27.0744 21.0857 27.0631 21.097 27.0481 21.1045C27.0443 21.1082 27.0368 21.112 27.0331 21.1158L17.4879 27.4717C17.3376 27.5731 17.1648 27.6219 16.992 27.6219C16.8155 27.6219 16.6427 27.5694 16.4924 27.4717L6.94726 21.1195C6.9435 21.1158 6.93599 21.112 6.93223 21.1082L6.89091 21.0782C6.87213 21.0632 6.8571 21.0519 6.84207 21.0369C6.83081 21.0256 6.81954 21.0143 6.80451 21.0031C6.78948 20.988 6.77446 20.973 6.75943 20.9542C6.74829 20.9427 6.73823 20.9301 6.72938 20.9167C6.71436 20.8979 6.70309 20.8791 6.69182 20.8603C6.6843 20.8453 6.67303 20.834 6.66552 20.819C6.65425 20.8002 6.64298 20.7777 6.63547 20.7589C6.62796 20.7439 6.62044 20.7288 6.61669 20.7138C6.60917 20.6913 6.60166 20.6687 6.59415 20.65C6.59039 20.6349 6.58288 20.6199 6.57912 20.6049C6.57161 20.5786 6.56785 20.556 6.5641 20.5297C6.56034 20.5185 6.56034 20.5035 6.55658 20.4922C6.55283 20.4546 6.54907 20.4133 6.54907 20.3757V14.0198C6.54907 13.9822 6.55283 13.9409 6.55658 13.9033C6.56034 13.8921 6.56034 13.8771 6.5641 13.8658C6.5694 13.8247 6.57948 13.7843 6.59415 13.7456C6.60166 13.723 6.60917 13.7005 6.61669 13.6817C6.6242 13.6667 6.63171 13.6517 6.63547 13.6366C6.64298 13.6179 6.65425 13.5953 6.66552 13.5765C6.67303 13.5615 6.68055 13.5502 6.69182 13.5352C6.71436 13.5014 6.73689 13.4714 6.75943 13.4413C6.77446 13.4263 6.78948 13.4075 6.80451 13.3925C6.81578 13.3812 6.82705 13.3699 6.84207 13.3587C6.8571 13.3436 6.87588 13.3286 6.89091 13.3173C6.90593 13.3061 6.9172 13.2948 6.93223 13.2873C6.93599 13.2835 6.9435 13.2798 6.94726 13.276L16.4924 6.92384C16.7929 6.72475 17.1874 6.72475 17.4879 6.92384L27.0331 13.276C27.0368 13.2798 27.0443 13.2835 27.0481 13.2873L27.0894 13.3173L27.142 13.3587C27.1533 13.3699 27.1645 13.3812 27.1796 13.3925C27.1946 13.4075 27.2096 13.4225 27.2246 13.4413C27.2509 13.4714 27.2735 13.5014 27.2923 13.5352C27.2998 13.5502 27.311 13.5615 27.3185 13.5765C27.3298 13.5953 27.3411 13.6141 27.3486 13.6366C27.3561 13.6517 27.3636 13.6667 27.3674 13.6817C27.3749 13.7043 27.3824 13.7268 27.3899 13.7456C27.3937 13.7606 27.4012 13.7756 27.4049 13.7907C27.4125 13.817 27.4162 13.8395 27.42 13.8658C27.4237 13.8771 27.4237 13.8921 27.4275 13.9033C27.4312 13.9409 27.435 13.9822 27.435 14.0198V20.372V20.372ZM17.8898 20.8716V25.0525L24.9219 20.372L21.7815 18.2759L17.8898 20.8716ZM8.34466 15.6989V18.6966L10.591 17.1978L8.34466 15.6989ZM16.992 15.0791L13.8178 17.1978L16.992 19.3164L20.1662 17.1978L16.992 15.0791ZM24.9219 14.0236L17.8898 9.34301V13.5239L21.7815 16.1197L24.9219 14.0236ZM12.2025 18.2759L9.06214 20.372L16.0942 25.0525V20.8716L12.2025 18.2759V18.2759Z" fill="#7E7A05"/>
</svg>
