<svg width="68" height="21" viewBox="0 0 68 21" fill="none" xmlns="http://www.w3.org/2000/svg">
<rect x="0.528809" y="0.229004" width="67.3158" height="20.1947" rx="3.36579" fill="#F3DF4F"/>
<path d="M27.9885 10.252C27.8428 9.53871 27.6741 8.94624 27.4823 8.47457C27.2906 7.99907 27.0145 7.55616 26.654 7.14584C26.6617 7.07682 26.7269 6.99629 26.8496 6.90425C26.9723 6.81222 27.0758 6.7662 27.1602 6.7662C27.8275 6.83906 28.4487 6.97711 29.0239 7.18035C29.0162 7.40277 28.9683 7.81692 28.8801 8.4228C28.7919 9.02869 28.7056 9.50995 28.6212 9.86658C28.6059 9.92793 28.5196 10.0085 28.3624 10.1082C28.2052 10.204 28.0805 10.252 27.9885 10.252ZM28.5235 11.69C28.4506 12.4838 28.3298 13.2776 28.1611 14.0713C27.9463 14.2631 27.5935 14.4184 27.1027 14.5373C26.6118 14.6523 26.0501 14.7098 25.4173 14.7098C25.9734 14.311 26.4182 13.9122 26.7518 13.5134C27.0893 13.1108 27.4306 12.6122 27.7757 12.0179C27.86 11.9335 27.9808 11.8587 28.1381 11.7935C28.2991 11.7245 28.4276 11.69 28.5235 11.69ZM25.0607 14.3187C25.0607 14.3762 24.9993 14.4567 24.8766 14.5603C24.7539 14.66 24.6466 14.7098 24.5545 14.7098C23.7301 14.5603 23.0302 14.1845 22.455 13.5824C22.1751 13.2871 21.9527 12.9344 21.7878 12.524C21.6267 12.1099 21.5462 11.6708 21.5462 11.2068C21.5462 10.739 21.6037 10.2884 21.7187 9.85507C21.8338 9.41791 22.014 9.00376 22.2594 8.61262C22.5087 8.21765 22.8097 7.87252 23.1625 7.57725C23.9218 6.93685 24.8977 6.61665 26.0903 6.61665C26.1824 6.61665 26.2552 6.61857 26.3089 6.6224C25.749 7.10558 25.31 7.8035 24.9917 8.71616C24.6772 9.62499 24.52 10.6086 24.52 11.667C24.52 12.7215 24.7002 13.6054 25.0607 14.3187ZM33.3667 8.68165C33.1481 8.88872 33.0388 9.1073 33.0388 9.33738C33.0388 9.87425 33.4472 10.4303 34.264 11.0055C34.6322 11.2662 34.9198 11.4887 35.1268 11.6727C35.5908 12.0869 35.8228 12.5375 35.8228 13.0245C35.8228 13.5076 35.5793 13.8988 35.0923 14.1979C34.6092 14.4932 33.9304 14.6408 33.0561 14.6408C33.1558 14.4184 33.2057 14.2171 33.2057 14.0368C33.2057 13.8566 33.1539 13.6821 33.0503 13.5134C32.9506 13.3408 32.8203 13.1836 32.6592 13.0417C32.4981 12.8998 32.3198 12.758 32.1243 12.6161C31.9287 12.4704 31.7331 12.3227 31.5375 12.1732C31.342 12.0236 31.1637 11.8702 31.0026 11.713C30.6383 11.3564 30.4562 10.971 30.4562 10.5568C30.4562 10.1005 30.6249 9.72853 30.9623 9.44092C31.5414 8.95391 32.3428 8.70082 33.3667 8.68165ZM34.2583 8.6989C34.799 8.6989 35.263 8.80628 35.6503 9.02102C36.0376 9.23193 36.2312 9.49077 36.2312 9.79755C36.2312 10.2731 35.7864 10.5645 34.8968 10.6719C34.9044 10.645 34.9083 10.6028 34.9083 10.5453C34.9083 10.2539 34.8162 9.98545 34.6322 9.74003C34.4481 9.49077 34.1912 9.29137 33.8614 9.14181C33.8614 9.08046 33.9036 8.99609 33.9879 8.88872C34.0723 8.78135 34.1624 8.71808 34.2583 8.6989ZM32.0495 14.6178C31.8577 14.6331 31.7159 14.6408 31.6238 14.6408C31.0678 14.6408 30.6057 14.5507 30.2376 14.3705C29.8694 14.1864 29.6854 13.9486 29.6854 13.6572C29.6854 13.0705 30.1283 12.7004 31.0141 12.547C30.9834 12.7119 30.97 12.8577 30.9738 12.9842C30.9815 13.1069 31.0237 13.2296 31.1004 13.3523C31.1809 13.4712 31.2921 13.5786 31.434 13.6745C31.6871 13.8432 32.0015 13.9985 32.3774 14.1404C32.3774 14.1979 32.3409 14.2842 32.2681 14.3992C32.199 14.5104 32.1262 14.5833 32.0495 14.6178ZM40.2462 8.68165C40.0276 8.88872 39.9183 9.1073 39.9183 9.33738C39.9183 9.87425 40.3267 10.4303 41.1435 11.0055C41.5117 11.2662 41.7993 11.4887 42.0063 11.6727C42.4703 12.0869 42.7023 12.5375 42.7023 13.0245C42.7023 13.5076 42.4588 13.8988 41.9718 14.1979C41.4886 14.4932 40.8099 14.6408 39.9356 14.6408C40.0353 14.4184 40.0851 14.2171 40.0851 14.0368C40.0851 13.8566 40.0334 13.6821 39.9298 13.5134C39.8301 13.3408 39.6998 13.1836 39.5387 13.0417C39.3776 12.8998 39.1993 12.758 39.0037 12.6161C38.8082 12.4704 38.6126 12.3227 38.417 12.1732C38.2215 12.0236 38.0432 11.8702 37.8821 11.713C37.5178 11.3564 37.3356 10.971 37.3356 10.5568C37.3356 10.1005 37.5044 9.72853 37.8418 9.44092C38.4209 8.95391 39.2223 8.70082 40.2462 8.68165ZM41.1378 8.6989C41.6785 8.6989 42.1425 8.80628 42.5298 9.02102C42.9171 9.23193 43.1107 9.49077 43.1107 9.79755C43.1107 10.2731 42.6659 10.5645 41.7763 10.6719C41.7839 10.645 41.7878 10.6028 41.7878 10.5453C41.7878 10.2539 41.6957 9.98545 41.5117 9.74003C41.3276 9.49077 41.0707 9.29137 40.7409 9.14181C40.7409 9.08046 40.7831 8.99609 40.8674 8.88872C40.9518 8.78135 41.0419 8.71808 41.1378 8.6989ZM38.929 14.6178C38.7372 14.6331 38.5954 14.6408 38.5033 14.6408C37.9473 14.6408 37.4852 14.5507 37.1171 14.3705C36.7489 14.1864 36.5649 13.9486 36.5649 13.6572C36.5649 13.0705 37.0078 12.7004 37.8936 12.547C37.8629 12.7119 37.8495 12.8577 37.8533 12.9842C37.861 13.1069 37.9032 13.2296 37.9799 13.3523C38.0604 13.4712 38.1716 13.5786 38.3135 13.6745C38.5666 13.8432 38.881 13.9985 39.2568 14.1404C39.2568 14.1979 39.2204 14.2842 39.1476 14.3992C39.0785 14.5104 39.0057 14.5833 38.929 14.6178Z" fill="black"/>
</svg>
