<svg width="38" height="38" viewBox="0 0 38 38" fill="none" xmlns="http://www.w3.org/2000/svg">
<circle cx="18.6724" cy="18.7093" r="18.5118" fill="#40C463"/>
<path d="M14.7099 7.5434H18.3724V14.8759H14.7099C9.8799 14.6869 9.83112 7.7419 14.7099 7.5434ZM14.7099 22.5221H18.3724V15.1896H14.7099C9.83117 15.3881 9.87995 22.3331 14.7099 22.5221H14.7099ZM22.3483 7.5434H18.6857V14.8759H22.3483C27.2433 14.6137 27.1823 7.69307 22.3483 7.5434ZM18.3724 26.502V22.8357H14.7099C11.7211 22.8357 9.83117 26.3434 11.9098 28.8628C13.8916 31.36 18.3725 30.115 18.3725 26.502H18.3724ZM26.0184 18.8558C26.0184 16.0382 22.9503 14.2677 20.5092 15.6765C18.068 17.0853 18.068 20.6264 20.5092 22.0352C22.9504 23.444 26.0184 21.6734 26.0184 18.8558Z" fill="white"/>
</svg>
