<svg width="68" height="21" viewBox="0 0 68 21" fill="none" xmlns="http://www.w3.org/2000/svg">
<rect x="0.473633" y="0.076416" width="67.3158" height="20.1947" rx="3.36579" fill="#89EE78"/>
<path d="M17.1523 14.4422H14.4718C14.9857 12.5824 15.3653 10.0975 15.6107 6.9875C15.6107 6.93765 15.674 6.86287 15.8006 6.76317C15.9271 6.66347 16.0345 6.61362 16.1227 6.61362H18.7916C18.4964 7.8599 18.249 9.18863 18.0496 10.5998C18.3487 10.6267 18.7265 10.6765 19.1828 10.7494C19.643 10.8222 19.9574 10.8855 20.1261 10.9392C20.1261 11.1578 20.0859 11.315 20.0053 11.4109C19.2691 11.4569 18.5635 11.5642 17.8886 11.733C17.808 12.3887 17.7294 13.1652 17.6527 14.0626C17.6527 14.1124 17.5914 14.1891 17.4687 14.2926C17.346 14.3923 17.2405 14.4422 17.1523 14.4422ZM20.5403 10.0994C20.4482 9.52033 20.2738 8.94321 20.0168 8.368C19.7599 7.79279 19.5011 7.36139 19.2403 7.07378C19.2595 6.88972 19.3151 6.73633 19.4071 6.61362H21.4951C21.4683 6.98558 21.4108 7.48602 21.3226 8.11491C21.2344 8.73997 21.1404 9.273 21.0407 9.71399C21.0254 9.77918 20.9602 9.85971 20.8451 9.95558C20.7301 10.0514 20.6285 10.0994 20.5403 10.0994ZM22.3522 14.4422C22.6858 13.031 22.9408 11.2517 23.1172 9.10427C23.1172 9.05442 23.1805 8.97964 23.307 8.87994C23.4336 8.78023 23.539 8.73038 23.6234 8.73038H26.0335C25.6999 10.1646 25.4449 11.942 25.2685 14.0626C25.2685 14.1124 25.2071 14.1891 25.0844 14.2926C24.9617 14.3923 24.8563 14.4422 24.7681 14.4422H22.3522ZM25.7114 7.95385H23.307C23.3799 7.65858 23.4278 7.36906 23.4508 7.08529C23.4508 7.0316 23.5122 6.95491 23.6349 6.8552C23.7576 6.75167 23.8631 6.6999 23.9513 6.6999H26.3671C26.3173 6.88013 26.2655 7.17157 26.2118 7.57421C26.2118 7.6279 26.1505 7.70459 26.0278 7.8043C25.9089 7.904 25.8034 7.95385 25.7114 7.95385ZM31.6878 8.58083C31.2813 8.8761 30.9285 9.30943 30.6294 9.8808C30.3303 10.4483 30.1808 11.0101 30.1808 11.5662C30.1808 12.2833 30.4224 12.8374 30.9055 13.2285C30.9055 13.286 30.8442 13.3666 30.7215 13.4701C30.5988 13.5698 30.4933 13.6197 30.4051 13.6197C28.9901 13.6197 28.0966 13.1422 27.7246 12.1874C27.6211 11.9228 27.5693 11.6256 27.5693 11.2958C27.5693 10.9622 27.6422 10.6343 27.7879 10.3122C27.9336 9.99009 28.1464 9.69865 28.4264 9.43789C28.7063 9.17329 29.0745 8.96238 29.5308 8.80516C29.9871 8.64794 30.5029 8.56932 31.0781 8.56932C31.2085 8.56932 31.4117 8.57316 31.6878 8.58083ZM32.0444 9.02374C32.0444 8.97389 32.1058 8.89528 32.2285 8.7879C32.3512 8.68053 32.4586 8.62684 32.5506 8.62684C32.7769 8.62684 33.1086 8.65752 33.5457 8.71888C33.9829 8.7764 34.4047 8.86651 34.8112 8.98923C34.5773 10.1243 34.3108 11.8883 34.0117 14.2811C33.7739 16.1793 32.7251 17.1284 30.8653 17.1284C30.5815 17.1284 30.3227 17.1131 30.0887 17.0824C30.4224 16.7718 30.6831 16.3941 30.871 15.9492C31.0858 15.4354 31.2315 15.0021 31.3082 14.6493C31.5651 13.4758 31.7511 12.3638 31.8661 11.3131C31.985 10.2585 32.0444 9.49541 32.0444 9.02374ZM29.0879 16.9444C28.6239 16.8983 28.227 16.7545 27.8972 16.5129C27.5674 16.2714 27.4025 16.0068 27.4025 15.7192C27.4025 15.4316 27.5156 15.1881 27.7419 14.9886C28.1637 14.6128 28.7562 14.4249 29.5193 14.4249C29.7685 14.4249 30.0025 14.4499 30.221 14.4997C30.0178 14.703 29.8548 14.9522 29.7321 15.2475C29.6094 15.5428 29.548 15.8054 29.548 16.0355C29.548 16.2656 29.5634 16.4401 29.5941 16.559C29.5941 16.6165 29.5308 16.6951 29.4042 16.7948C29.2815 16.8945 29.1761 16.9444 29.0879 16.9444ZM38.6076 14.4422H36.1917C36.6058 12.6897 36.8877 10.9162 37.0373 9.12152C37.0373 9.07551 37.0986 9.00648 37.2213 8.91445C37.344 8.81858 37.4725 8.75914 37.6067 8.73613C37.7448 8.71313 38.0784 8.68245 38.6076 8.6441C39.1406 8.60192 39.5547 8.58083 39.85 8.58083C39.5164 10.2796 39.2691 12.1069 39.108 14.0626C39.108 14.1124 39.0466 14.1891 38.9239 14.2926C38.8012 14.3923 38.6958 14.4422 38.6076 14.4422ZM40.1549 14.4422C40.5537 12.1375 40.7531 10.7187 40.7531 10.1857C40.7531 9.6488 40.6285 9.38037 40.3792 9.38037C40.4329 9.17329 40.5173 8.99881 40.6323 8.85693C41.0234 8.67286 41.4664 8.58083 41.961 8.58083C42.4595 8.58083 42.8258 8.70162 43.0597 8.94321C43.2974 9.1848 43.4163 9.55101 43.4163 10.0419C43.4163 10.2988 43.3454 10.9066 43.2035 11.8653C43.0616 12.8201 42.9734 13.5525 42.9389 14.0626C42.9389 14.1124 42.8775 14.1891 42.7548 14.2926C42.6321 14.3923 42.5247 14.4422 42.4327 14.4422H40.1549ZM44.4747 14.4537C44.2484 14.2275 44.1353 13.9782 44.1353 13.7059C44.1353 13.4337 44.2082 12.8105 44.3539 11.8365C44.4996 10.8587 44.5725 10.2547 44.5725 10.0246C44.5725 9.79452 44.5054 9.62962 44.3712 9.52992C44.2369 9.43022 44.0816 9.38037 43.9052 9.38037C43.9397 9.15795 44.003 8.98347 44.0951 8.85693C44.2369 8.7879 44.4689 8.72463 44.7911 8.66711C45.117 8.60959 45.4104 8.58083 45.6711 8.58083C46.185 8.58083 46.5685 8.69779 46.8215 8.93171C47.0785 9.16562 47.2069 9.53567 47.2069 10.0419C47.2069 10.3295 47.1379 10.8184 46.9999 11.5086C46.8656 12.1989 46.7985 12.6245 46.7985 12.7856C46.7985 12.9467 46.8043 13.0675 46.8158 13.148C46.8311 13.2285 46.8426 13.2918 46.8503 13.3378C46.8618 13.38 46.8886 13.4318 46.9308 13.4931C46.9768 13.5545 47.0037 13.5928 47.0114 13.6081C47.0229 13.6197 47.0631 13.658 47.1322 13.7232C47.2012 13.7884 47.2395 13.8248 47.2472 13.8325C47.2472 13.8823 47.1897 13.9705 47.0746 14.0971C46.9634 14.2198 46.8618 14.3022 46.7698 14.3444C46.2751 14.4173 45.5101 14.4537 44.4747 14.4537ZM55.7603 14.2121C55.0125 14.3732 54.2091 14.4537 53.3502 14.4537C53.1546 14.1891 53.0568 13.9111 53.0568 13.6197C53.0568 13.3282 53.1431 12.59 53.3156 11.4051C53.4882 10.2163 53.5764 9.42638 53.5802 9.03524C53.5802 8.98539 53.6435 8.91061 53.7701 8.81091C53.8966 8.71121 54.0021 8.66136 54.0864 8.66136C54.9071 8.66136 55.6797 8.77065 56.4045 8.98923C56.3892 9.11194 56.2876 9.60086 56.0996 10.456C55.9117 11.3073 55.8178 11.9918 55.8178 12.5095C55.8178 13.0234 55.9558 13.4183 56.2319 13.6944C56.2319 13.7481 56.1783 13.8382 56.0709 13.9648C55.9635 14.0875 55.86 14.1699 55.7603 14.2121ZM53.0971 8.58083C52.6407 8.91828 52.2937 9.37653 52.0559 9.95558C51.822 10.5346 51.7051 11.1041 51.7051 11.6639C51.7051 12.22 51.7664 12.7204 51.8891 13.1652C52.0157 13.6062 52.1844 13.9015 52.3953 14.0511C52.3953 14.1086 52.334 14.1891 52.2112 14.2926C52.0885 14.3923 51.9831 14.4422 51.8949 14.4422C51.0167 14.4422 50.3111 14.2217 49.7781 13.7807C49.2489 13.3397 48.9843 12.7377 48.9843 11.9746C48.9843 11.0274 49.3429 10.2317 50.06 9.58744C50.4051 9.27683 50.8384 9.03141 51.3599 8.85118C51.8853 8.67094 52.4643 8.58083 53.0971 8.58083Z" fill="black"/>
</svg>
