<svg width="445" height="48" viewBox="0 0 445 48" fill="none" xmlns="http://www.w3.org/2000/svg">
<rect x="0.699951" y="0.72113" width="434.187" height="47.1211" fill="#F3DF4F"/>
<path d="M23.3501 35.0869H15.6916C17.1598 29.7731 18.2444 22.6733 18.9457 13.7877C18.9457 13.6453 19.1264 13.4317 19.488 13.1468C19.8496 12.8619 20.1563 12.7195 20.4083 12.7195H28.0339C27.1903 16.2803 26.4836 20.0767 25.9139 24.1086C26.7685 24.1853 27.8477 24.3278 29.1515 24.5359C30.4663 24.7441 31.3647 24.9249 31.8468 25.0783C31.8468 25.7028 31.7317 26.152 31.5016 26.4259C29.398 26.5574 27.382 26.8641 25.4537 27.3462C25.2236 29.2198 24.999 31.4384 24.7799 34.0022C24.7799 34.1446 24.6046 34.3638 24.254 34.6596C23.9034 34.9445 23.6021 35.0869 23.3501 35.0869ZM33.03 22.6788C32.7671 21.0244 32.2686 19.3755 31.5345 17.732C30.8004 16.0886 30.0609 14.856 29.3158 14.0343C29.3706 13.5084 29.5295 13.0701 29.7924 12.7195H35.7582C35.6815 13.7823 35.5171 15.2121 35.2651 17.0089C35.0131 18.7948 34.7447 20.3177 34.4598 21.5777C34.416 21.764 34.2298 21.9941 33.9011 22.268C33.5724 22.5419 33.282 22.6788 33.03 22.6788ZM54.4771 18.3401C55.7261 18.3401 56.3506 19.1235 56.3506 20.6902C56.3506 21.6654 56.1808 22.6405 55.8411 23.6156C55.5015 24.5797 55.0742 25.3193 54.5593 25.8342C53.8361 25.3303 52.9432 24.9139 51.8804 24.5852C50.8286 24.2456 49.8206 24.0593 48.8565 24.0265C48.9441 23.4239 49.1194 22.7829 49.3824 22.1036C51.1464 19.5946 52.8446 18.3401 54.4771 18.3401ZM44.6328 35.0869H37.7467C38.8643 30.3099 39.6531 25.2426 40.1133 19.885C40.1133 19.7644 40.2886 19.5672 40.6392 19.2933C41.0008 19.0194 41.3678 18.8496 41.7403 18.7838C42.1238 18.7181 43.1044 18.6305 44.6821 18.5209C46.2708 18.4004 47.4869 18.3401 48.3306 18.3401C47.2459 23.7635 46.4899 28.9842 46.0626 34.0022C46.0626 34.1446 45.8873 34.3638 45.5367 34.6596C45.1861 34.9445 44.8848 35.0869 44.6328 35.0869ZM69.9913 18.2086C67.3617 20.7286 66.047 24.1305 66.047 28.4145C66.047 30.2332 66.288 32.0629 66.7701 33.9036C66.7591 34.0679 66.5784 34.2925 66.2278 34.5774C65.8881 34.8623 65.5978 35.0047 65.3567 35.0047C63.5161 34.7527 61.9219 33.9912 60.5743 32.7203C59.1609 31.3836 58.4542 29.7183 58.4542 27.7242C58.4542 25.7192 58.9527 24.01 59.9498 22.5966C60.9578 21.1723 62.3328 20.0876 64.0748 19.3426C65.8169 18.5866 67.789 18.2086 69.9913 18.2086ZM67.7726 35.2348C70.4021 32.7148 71.7169 29.3129 71.7169 25.029C71.7169 23.2102 71.4759 21.3805 70.9938 19.5398C71.0047 19.3755 71.18 19.1509 71.5197 18.866C71.8703 18.5811 72.1661 18.4387 72.4071 18.4387C74.2478 18.6907 75.8365 19.4522 77.1732 20.7231C78.5975 22.0598 79.3096 23.7306 79.3096 25.7356C79.3096 27.7297 78.8056 29.4389 77.7977 30.8632C76.8006 32.2766 75.4311 33.3613 73.689 34.1172C71.947 34.8623 69.9748 35.2348 67.7726 35.2348ZM89.9756 35.0869H83.0731C84.2126 30.288 85.0015 25.2207 85.4397 19.885C85.4397 19.7535 85.615 19.5563 85.9656 19.2933C86.3162 19.0194 86.6833 18.8496 87.0667 18.7838C87.4612 18.7181 88.4144 18.6305 89.9263 18.5209C91.4493 18.4004 92.6271 18.3401 93.4598 18.3401C92.5723 22.9308 91.8875 28.1515 91.4054 34.0022C91.4054 34.1446 91.2301 34.3638 90.8795 34.6596C90.5289 34.9445 90.2276 35.0869 89.9756 35.0869ZM95.9085 35.2512C95.273 34.6377 94.9553 33.8488 94.9553 32.8847C94.9553 31.9205 95.1963 30.0798 95.6784 27.3627C96.1715 24.6455 96.418 22.9746 96.418 22.3501C96.418 21.7147 96.2646 21.26 95.9578 20.9861C95.662 20.7012 95.273 20.5588 94.791 20.5588C94.8896 19.9014 95.0758 19.4084 95.3497 19.0797C95.7551 18.8824 96.3906 18.7017 97.2561 18.5373C98.1326 18.373 98.9434 18.2908 99.6884 18.2908C101.146 18.2908 102.236 18.625 102.959 19.2933C103.693 19.9616 104.06 21.0189 104.06 22.4652C104.06 23.2759 103.885 24.7003 103.534 26.7381C103.184 28.776 103.008 30.0251 103.008 30.4852C103.008 30.9454 103.025 31.2905 103.058 31.5206C103.101 31.7507 103.134 31.9315 103.156 32.0629C103.189 32.1944 103.266 32.3478 103.386 32.5231C103.507 32.6874 103.583 32.7915 103.616 32.8354C103.649 32.8682 103.759 32.9778 103.945 33.164C104.131 33.3393 104.241 33.4434 104.274 33.4763C104.274 33.6297 104.115 33.8872 103.797 34.2487C103.479 34.5993 103.189 34.8294 102.926 34.939C101.524 35.1471 99.1844 35.2512 95.9085 35.2512ZM121.612 34.0844C119.366 34.8075 117.125 35.1691 114.89 35.1691C110.585 35.1691 108.432 33.4544 108.432 30.0251C108.432 29.28 108.59 27.7954 108.908 25.5713C109.226 23.3362 109.385 21.7968 109.385 20.9532C109.385 20.0986 109.346 19.4467 109.27 18.9975C110.771 18.3292 112.091 17.5732 113.23 16.7295C114.37 15.8859 115.477 14.8505 116.55 13.6234C117.098 13.4591 117.81 13.3769 118.687 13.3769C117.953 15.9626 117.367 18.6195 116.928 21.3476C116.501 24.0758 116.287 26.0917 116.287 27.3955C116.287 28.6884 116.38 29.6251 116.567 30.2058C116.753 30.7756 117.054 31.2193 117.471 31.537C118.205 32.0958 119.366 32.3752 120.955 32.3752C121.338 32.3752 121.744 32.3588 122.171 32.3259C122.072 33.049 121.886 33.6352 121.612 34.0844ZM118.736 22.6624C118.835 21.1395 119.081 19.7261 119.476 18.4223C120.549 18.8715 121.749 19.1892 123.075 19.3755C123.162 19.5398 123.245 19.8137 123.321 20.1972C123.398 20.5697 123.436 20.8655 123.436 21.0847C121.913 21.501 120.347 22.0269 118.736 22.6624ZM141.679 27.7407C137.022 27.7407 132.136 27.8228 127.019 27.9872V26.9354C127.019 26.6615 127.14 26.3547 127.381 26.015C127.633 25.6754 127.83 25.5001 127.972 25.4891C133.166 25.4891 138.052 25.407 142.632 25.2426V26.2944C142.632 26.5683 142.506 26.8806 142.254 27.2312C142.013 27.5708 141.821 27.7407 141.679 27.7407ZM162.715 18.751C164.205 19.2659 165.333 19.989 166.1 20.9203C166.878 21.8407 167.267 22.8267 167.267 23.8785C167.267 25.3138 166.648 26.53 165.41 27.527C164.172 28.524 162.485 29.0225 160.348 29.0225C159.68 29.0225 158.946 28.913 158.146 28.6939C159.307 27.9707 160.091 27.0285 160.496 25.8671C160.847 24.8591 161.022 23.6758 161.022 22.3173C161.022 22.0543 160.995 21.249 160.94 19.9014C160.929 19.759 161.148 19.5344 161.597 19.2276C162.057 18.9208 162.43 18.7619 162.715 18.751ZM160.052 18.488C158.694 19.4084 157.615 20.619 156.815 22.12C156.026 23.6211 155.632 25.2262 155.632 26.9354C155.632 28.6446 156.289 30.036 157.604 31.1097C158.918 32.1835 160.836 32.7203 163.356 32.7203C164.046 32.7203 164.786 32.6601 165.574 32.5395C165.059 33.3503 164.068 34.0296 162.6 34.5774C161.132 35.1143 159.592 35.3827 157.982 35.3827C156.371 35.3827 154.996 35.2238 153.857 34.9061C152.717 34.5774 151.698 34.0953 150.8 33.4599C149.912 32.8244 149.211 31.9972 148.696 30.9783C148.181 29.9484 147.924 28.8199 147.924 27.5927C147.924 26.3547 148.115 25.2371 148.499 24.2401C148.882 23.2431 149.408 22.3885 150.077 21.6763C150.745 20.9642 151.523 20.3506 152.41 19.8357C154.174 18.8386 156.207 18.3401 158.508 18.3401C159.077 18.3401 159.592 18.3894 160.052 18.488ZM176.98 35.0869H170.077C171.217 30.288 172.006 25.2207 172.444 19.885C172.444 19.7535 172.619 19.5563 172.97 19.2933C173.321 19.0194 173.688 18.8496 174.071 18.7838C174.466 18.7181 175.419 18.6305 176.931 18.5209C178.454 18.4004 179.631 18.3401 180.464 18.3401C179.577 22.9308 178.892 28.1515 178.41 34.0022C178.41 34.1446 178.234 34.3638 177.884 34.6596C177.533 34.9445 177.232 35.0869 176.98 35.0869ZM182.913 35.2512C182.277 34.6377 181.96 33.8488 181.96 32.8847C181.96 31.9205 182.201 30.0798 182.683 27.3627C183.176 24.6455 183.422 22.9746 183.422 22.3501C183.422 21.7147 183.269 21.26 182.962 20.9861C182.666 20.7012 182.277 20.5588 181.795 20.5588C181.894 19.9014 182.08 19.4084 182.354 19.0797C182.759 18.8824 183.395 18.7017 184.26 18.5373C185.137 18.373 185.948 18.2908 186.693 18.2908C188.15 18.2908 189.24 18.625 189.963 19.2933C190.697 19.9616 191.064 21.0189 191.064 22.4652C191.064 23.2759 190.889 24.7003 190.538 26.7381C190.188 28.776 190.013 30.0251 190.013 30.4852C190.013 30.9454 190.029 31.2905 190.062 31.5206C190.106 31.7507 190.139 31.9315 190.16 32.0629C190.193 32.1944 190.27 32.3478 190.391 32.5231C190.511 32.6874 190.588 32.7915 190.621 32.8354C190.654 32.8682 190.763 32.9778 190.949 33.164C191.136 33.3393 191.245 33.4434 191.278 33.4763C191.278 33.6297 191.119 33.8872 190.801 34.2487C190.484 34.5993 190.193 34.8294 189.93 34.939C188.528 35.1471 186.189 35.2512 182.913 35.2512ZM207.466 18.3401C206.162 19.3043 205.182 20.6136 204.524 22.268C203.878 23.9114 203.555 25.533 203.555 27.1326C203.555 28.7322 203.73 30.1675 204.081 31.4384C204.442 32.6984 204.924 33.542 205.527 33.9693C205.527 34.1337 205.351 34.3638 205.001 34.6596C204.65 34.9445 204.349 35.0869 204.097 35.0869C201.61 35.0869 199.599 34.435 198.065 33.1312C196.543 31.8274 195.781 30.0689 195.781 27.8557C195.781 25.2043 196.805 22.9692 198.854 21.1504C199.829 20.2849 201.057 19.6001 202.536 19.0961C204.026 18.5921 205.669 18.3401 207.466 18.3401ZM215.009 33.9693C215.009 34.1227 214.834 34.3473 214.484 34.6432C214.133 34.939 213.826 35.0869 213.563 35.0869H206.957C207.439 33.06 207.959 29.7238 208.518 25.0783C209.077 20.4328 209.493 16.5487 209.767 13.4262C209.767 13.2838 209.942 13.0701 210.293 12.7852C210.643 12.4894 210.945 12.3415 211.197 12.3415H218.116C217.535 14.7519 216.932 18.2305 216.308 22.7774C215.683 27.3134 215.251 31.044 215.009 33.9693ZM242.537 35.4156C243.501 34.7253 244.394 33.5968 245.216 32.0301C246.038 30.4633 246.684 28.6829 247.155 26.6888C247.637 24.6948 247.878 22.7391 247.878 20.8217C247.878 17.7868 247.287 15.3819 246.104 13.607C246.104 13.4426 246.279 13.2125 246.629 12.9167C246.98 12.6209 247.281 12.473 247.533 12.473C248.717 12.473 249.84 12.7195 250.902 13.2125C251.976 13.6946 252.907 14.3684 253.696 15.234C254.485 16.0995 255.11 17.1733 255.57 18.4552C256.041 19.7261 256.277 21.0628 256.277 22.4652C256.277 23.8676 256.101 25.1823 255.751 26.4095C255.411 27.6366 254.869 28.7979 254.124 29.8936C253.39 30.9892 252.491 31.9479 251.428 32.7696C250.377 33.5804 249.084 34.2268 247.55 34.7089C246.027 35.18 244.356 35.4156 242.537 35.4156ZM240.089 35.2184C238.204 35.2184 235.717 35.1526 232.627 35.0211C234.106 29.0718 235.175 22.0543 235.832 13.9685C235.832 13.8371 236.007 13.6344 236.358 13.3604C236.719 13.0865 237.026 12.9386 237.278 12.9167C240.543 12.6428 243.041 12.5059 244.772 12.5059C243.228 19.1673 242.148 26.3711 241.535 34.1172C241.535 34.2706 241.359 34.4952 241.009 34.7911C240.658 35.0759 240.351 35.2184 240.089 35.2184ZM274.963 18.751C276.453 19.2659 277.581 19.989 278.348 20.9203C279.126 21.8407 279.515 22.8267 279.515 23.8785C279.515 25.3138 278.896 26.53 277.658 27.527C276.42 28.524 274.732 29.0225 272.596 29.0225C271.928 29.0225 271.194 28.913 270.394 28.6939C271.555 27.9707 272.339 27.0285 272.744 25.8671C273.095 24.8591 273.27 23.6758 273.27 22.3173C273.27 22.0543 273.242 21.249 273.188 19.9014C273.177 19.759 273.396 19.5344 273.845 19.2276C274.305 18.9208 274.678 18.7619 274.963 18.751ZM272.3 18.488C270.942 19.4084 269.862 20.619 269.063 22.12C268.274 23.6211 267.879 25.2262 267.879 26.9354C267.879 28.6446 268.537 30.036 269.851 31.1097C271.166 32.1835 273.084 32.7203 275.604 32.7203C276.294 32.7203 277.033 32.6601 277.822 32.5395C277.307 33.3503 276.316 34.0296 274.848 34.5774C273.379 35.1143 271.84 35.3827 270.229 35.3827C268.619 35.3827 267.244 35.2238 266.104 34.9061C264.965 34.5774 263.946 34.0953 263.048 33.4599C262.16 32.8244 261.459 31.9972 260.944 30.9783C260.429 29.9484 260.172 28.8199 260.172 27.5927C260.172 26.3547 260.363 25.2371 260.747 24.2401C261.13 23.2431 261.656 22.3885 262.324 21.6763C262.993 20.9642 263.771 20.3506 264.658 19.8357C266.422 18.8386 268.455 18.3401 270.755 18.3401C271.325 18.3401 271.84 18.3894 272.3 18.488ZM295.341 19.737C295.341 19.5946 295.528 19.381 295.9 19.0961C296.284 18.8003 296.607 18.6524 296.87 18.6524H301.176C300.036 20.3396 298.639 22.5419 296.985 25.259C296.897 25.3905 296.634 25.5384 296.196 25.7028C295.769 25.8671 295.418 25.9493 295.144 25.9493C295.484 24.7441 295.654 23.5827 295.654 22.4652C295.654 21.3476 295.55 20.4382 295.341 19.737ZM286.45 35.0869C285.749 31.3727 284.319 26.2451 282.161 19.7042C282.161 19.5508 282.342 19.3317 282.703 19.0468C283.076 18.7619 283.399 18.6195 283.673 18.6195H290.723C290.931 20.4273 291.255 22.12 291.693 23.6978C292.504 26.6779 293.353 28.168 294.24 28.168C294.635 28.168 294.947 28.1241 295.177 28.0365C295.418 27.9379 295.561 27.8831 295.604 27.8721C295.265 28.5076 294.728 29.6854 293.994 31.4056C293.271 33.1257 292.887 34.0351 292.843 34.1337C292.8 34.2213 292.619 34.4021 292.301 34.676C291.983 34.9499 291.698 35.0869 291.446 35.0869H286.45ZM317.068 18.751C318.558 19.2659 319.686 19.989 320.453 20.9203C321.231 21.8407 321.62 22.8267 321.62 23.8785C321.62 25.3138 321.001 26.53 319.763 27.527C318.525 28.524 316.838 29.0225 314.701 29.0225C314.033 29.0225 313.299 28.913 312.499 28.6939C313.66 27.9707 314.444 27.0285 314.849 25.8671C315.2 24.8591 315.375 23.6758 315.375 22.3173C315.375 22.0543 315.348 21.249 315.293 19.9014C315.282 19.759 315.501 19.5344 315.95 19.2276C316.41 18.9208 316.783 18.7619 317.068 18.751ZM314.405 18.488C313.047 19.4084 311.968 20.619 311.168 22.12C310.379 23.6211 309.985 25.2262 309.985 26.9354C309.985 28.6446 310.642 30.036 311.957 31.1097C313.271 32.1835 315.189 32.7203 317.709 32.7203C318.399 32.7203 319.139 32.6601 319.927 32.5395C319.412 33.3503 318.421 34.0296 316.953 34.5774C315.485 35.1143 313.945 35.3827 312.335 35.3827C310.724 35.3827 309.349 35.2238 308.21 34.9061C307.07 34.5774 306.051 34.0953 305.153 33.4599C304.265 32.8244 303.564 31.9972 303.049 30.9783C302.534 29.9484 302.277 28.8199 302.277 27.5927C302.277 26.3547 302.468 25.2371 302.852 24.2401C303.235 23.2431 303.761 22.3885 304.43 21.6763C305.098 20.9642 305.876 20.3506 306.763 19.8357C308.527 18.8386 310.56 18.3401 312.861 18.3401C313.43 18.3401 313.945 18.3894 314.405 18.488ZM332.763 33.9693C332.763 34.1227 332.587 34.3473 332.237 34.6432C331.886 34.939 331.579 35.0869 331.317 35.0869H324.546C325.028 33.0271 325.581 29.5868 326.205 24.766C326.841 19.9452 327.279 16.1653 327.52 13.4262C327.52 13.2838 327.695 13.0701 328.046 12.7852C328.397 12.4894 328.698 12.3415 328.95 12.3415H335.869C335.288 14.7519 334.686 18.2305 334.061 22.7774C333.437 27.3134 333.004 31.044 332.763 33.9693ZM350.594 18.2086C347.965 20.7286 346.65 24.1305 346.65 28.4145C346.65 30.2332 346.891 32.0629 347.373 33.9036C347.362 34.0679 347.181 34.2925 346.831 34.5774C346.491 34.8623 346.201 35.0047 345.96 35.0047C344.119 34.7527 342.525 33.9912 341.177 32.7203C339.764 31.3836 339.057 29.7183 339.057 27.7242C339.057 25.7192 339.556 24.01 340.553 22.5966C341.561 21.1723 342.936 20.0876 344.678 19.3426C346.42 18.5866 348.392 18.2086 350.594 18.2086ZM348.376 35.2348C351.005 32.7148 352.32 29.3129 352.32 25.029C352.32 23.2102 352.079 21.3805 351.597 19.5398C351.608 19.3755 351.783 19.1509 352.123 18.866C352.473 18.5811 352.769 18.4387 353.01 18.4387C354.851 18.6907 356.439 19.4522 357.776 20.7231C359.2 22.0598 359.913 23.7306 359.913 25.7356C359.913 27.7297 359.409 29.4389 358.401 30.8632C357.404 32.2766 356.034 33.3613 354.292 34.1172C352.55 34.8623 350.578 35.2348 348.376 35.2348ZM362.969 41.9729C364.657 34.0844 365.769 26.7108 366.306 19.8521C366.306 19.7206 366.481 19.5179 366.832 19.244C367.182 18.9591 367.582 18.7948 368.031 18.751C368.48 18.7071 369.494 18.6414 371.072 18.5538C372.66 18.4552 373.8 18.4058 374.49 18.4058C373.296 23.5772 372.239 31.0769 371.318 40.9047C371.318 41.0471 371.137 41.2608 370.776 41.5456C370.425 41.8305 370.129 41.9729 369.888 41.9729H362.969ZM373.931 35.0869C374.764 34.561 375.482 33.7502 376.084 32.6546C377.202 30.6057 377.76 28.3268 377.76 25.8178C377.76 23.3088 377.169 21.1833 375.986 19.4412C375.986 19.2769 376.155 19.0523 376.495 18.7674C376.835 18.4825 377.131 18.3401 377.383 18.3401C378.84 18.3401 380.165 18.6359 381.36 19.2276C382.554 19.8192 383.513 20.6902 384.236 21.8407C384.959 22.9801 385.32 24.3004 385.32 25.8014C385.32 28.5514 384.296 30.7865 382.247 32.5067C380.209 34.2268 377.437 35.0869 373.931 35.0869ZM404.006 18.751C405.496 19.2659 406.625 19.989 407.392 20.9203C408.17 21.8407 408.559 22.8267 408.559 23.8785C408.559 25.3138 407.94 26.53 406.702 27.527C405.464 28.524 403.776 29.0225 401.64 29.0225C400.972 29.0225 400.237 28.913 399.438 28.6939C400.599 27.9707 401.382 27.0285 401.788 25.8671C402.138 24.8591 402.314 23.6758 402.314 22.3173C402.314 22.0543 402.286 21.249 402.231 19.9014C402.221 19.759 402.44 19.5344 402.889 19.2276C403.349 18.9208 403.722 18.7619 404.006 18.751ZM401.344 18.488C399.985 19.4084 398.906 20.619 398.106 22.12C397.318 23.6211 396.923 25.2262 396.923 26.9354C396.923 28.6446 397.581 30.036 398.895 31.1097C400.21 32.1835 402.127 32.7203 404.647 32.7203C405.338 32.7203 406.077 32.6601 406.866 32.5395C406.351 33.3503 405.36 34.0296 403.891 34.5774C402.423 35.1143 400.884 35.3827 399.273 35.3827C397.663 35.3827 396.288 35.2238 395.148 34.9061C394.009 34.5774 392.99 34.0953 392.091 33.4599C391.204 32.8244 390.503 31.9972 389.988 30.9783C389.473 29.9484 389.215 28.8199 389.215 27.5927C389.215 26.3547 389.407 25.2371 389.791 24.2401C390.174 23.2431 390.7 22.3885 391.368 21.6763C392.037 20.9642 392.815 20.3506 393.702 19.8357C395.466 18.8386 397.498 18.3401 399.799 18.3401C400.369 18.3401 400.884 18.3894 401.344 18.488ZM427.672 18.3401C428.921 18.3401 429.546 19.1235 429.546 20.6902C429.546 21.6654 429.376 22.6405 429.036 23.6156C428.697 24.5797 428.269 25.3193 427.754 25.8342C427.031 25.3303 426.138 24.9139 425.075 24.5852C424.024 24.2456 423.016 24.0593 422.052 24.0265C422.139 23.4239 422.314 22.7829 422.577 22.1036C424.341 19.5946 426.04 18.3401 427.672 18.3401ZM417.828 35.0869H410.942C412.059 30.3099 412.848 25.2426 413.308 19.885C413.308 19.7644 413.484 19.5672 413.834 19.2933C414.196 19.0194 414.563 18.8496 414.935 18.7838C415.319 18.7181 416.299 18.6305 417.877 18.5209C419.466 18.4004 420.682 18.3401 421.526 18.3401C420.441 23.7635 419.685 28.9842 419.258 34.0022C419.258 34.1446 419.082 34.3638 418.732 34.6596C418.381 34.9445 418.08 35.0869 417.828 35.0869Z" fill="black"/>
</svg>
