<svg width="824" height="386" viewBox="0 0 824 386" fill="none" xmlns="http://www.w3.org/2000/svg">
<rect x="0.773804" y="0.874985" width="823.186" height="384.38" fill="white"/>
<path d="M0.773804 85.9149H822.259" stroke="#D8DEE4" stroke-width="1.7008"/>
<path d="M0.773804 317.223H822.259" stroke="#D8DEE4" stroke-width="1.7008"/>
<path d="M69.3432 238.136L182.759 41.6941L296.175 238.136H69.3432Z" fill="#F3DF4F" stroke="#D8DEE4" stroke-width="3.4016"/>
<rect x="403.863" y="162.451" width="200.694" height="200.694" fill="#40C463" stroke="#D8DEE4" stroke-width="3.4016"/>
<path d="M287.873 77.0158C288.421 77.0158 288.9 76.8497 289.31 76.5175C289.72 76.1853 289.947 75.7701 289.991 75.2718H291.444C291.417 75.7867 291.239 76.2767 290.913 76.7418C290.586 77.2068 290.149 77.5778 289.601 77.8546C289.058 78.1314 288.482 78.2698 287.873 78.2698C286.65 78.2698 285.675 77.8629 284.95 77.049C284.23 76.2296 283.87 75.1113 283.87 73.6939V73.4365C283.87 72.5617 284.031 71.7839 284.352 71.1029C284.673 70.4219 285.133 69.8932 285.731 69.5167C286.334 69.1402 287.046 68.952 287.865 68.952C288.873 68.952 289.709 69.2537 290.373 69.8572C291.043 70.4607 291.4 71.2441 291.444 72.2074H289.991C289.947 71.6261 289.725 71.1499 289.327 70.779C288.933 70.4025 288.446 70.2143 287.865 70.2143C287.084 70.2143 286.478 70.4966 286.046 71.0614C285.62 71.6205 285.407 72.4316 285.407 73.4946V73.7853C285.407 74.8206 285.62 75.6179 286.046 76.177C286.472 76.7362 287.081 77.0158 287.873 77.0158ZM298.404 75.7203C298.404 75.305 298.246 74.9839 297.93 74.7569C297.62 74.5244 297.075 74.3251 296.294 74.159C295.519 73.9929 294.902 73.7936 294.442 73.5611C293.988 73.3285 293.65 73.0517 293.429 72.7306C293.213 72.4095 293.105 72.0275 293.105 71.5846C293.105 70.8482 293.415 70.2254 294.035 69.716C294.661 69.2066 295.458 68.952 296.427 68.952C297.446 68.952 298.271 69.215 298.902 69.7409C299.539 70.2669 299.857 70.9396 299.857 71.759H298.312C298.312 71.3382 298.132 70.9755 297.772 70.671C297.418 70.3665 296.97 70.2143 296.427 70.2143C295.868 70.2143 295.43 70.3361 295.115 70.5797C294.799 70.8233 294.642 71.1416 294.642 71.5347C294.642 71.9057 294.788 72.1853 295.082 72.3735C295.375 72.5617 295.904 72.7417 296.668 72.9133C297.437 73.0849 298.06 73.2898 298.536 73.5278C299.013 73.7659 299.364 74.0538 299.591 74.3915C299.824 74.7237 299.94 75.1307 299.94 75.6123C299.94 76.4151 299.619 77.0601 298.977 77.5473C298.334 78.029 297.501 78.2698 296.477 78.2698C295.757 78.2698 295.12 78.1425 294.567 77.8878C294.013 77.6331 293.579 77.2788 293.263 76.8248C292.953 76.3653 292.798 75.8698 292.798 75.3383H294.334C294.362 75.8532 294.567 76.2629 294.949 76.5674C295.336 76.8663 295.846 77.0158 296.477 77.0158C297.058 77.0158 297.523 76.8995 297.872 76.667C298.226 76.4289 298.404 76.1134 298.404 75.7203ZM307.173 75.7203C307.173 75.305 307.015 74.9839 306.7 74.7569C306.39 74.5244 305.845 74.3251 305.064 74.159C304.289 73.9929 303.671 73.7936 303.212 73.5611C302.758 73.3285 302.42 73.0517 302.199 72.7306C301.983 72.4095 301.875 72.0275 301.875 71.5846C301.875 70.8482 302.185 70.2254 302.805 69.716C303.431 69.2066 304.228 68.952 305.197 68.952C306.215 68.952 307.04 69.215 307.672 69.7409C308.308 70.2669 308.627 70.9396 308.627 71.759H307.082C307.082 71.3382 306.902 70.9755 306.542 70.671C306.188 70.3665 305.739 70.2143 305.197 70.2143C304.638 70.2143 304.2 70.3361 303.885 70.5797C303.569 70.8233 303.411 71.1416 303.411 71.5347C303.411 71.9057 303.558 72.1853 303.851 72.3735C304.145 72.5617 304.674 72.7417 305.438 72.9133C306.207 73.0849 306.83 73.2898 307.306 73.5278C307.782 73.7659 308.134 74.0538 308.361 74.3915C308.593 74.7237 308.71 75.1307 308.71 75.6123C308.71 76.4151 308.389 77.0601 307.746 77.5473C307.104 78.029 306.271 78.2698 305.247 78.2698C304.527 78.2698 303.89 78.1425 303.337 77.8878C302.783 77.6331 302.348 77.2788 302.033 76.8248C301.723 76.3653 301.568 75.8698 301.568 75.3383H303.104C303.132 75.8532 303.337 76.2629 303.719 76.5674C304.106 76.8663 304.615 77.0158 305.247 77.0158C305.828 77.0158 306.293 76.8995 306.642 76.667C306.996 76.4289 307.173 76.1134 307.173 75.7203Z" fill="#6E7781"/>
<path d="M262.697 63.8004H276.303L275.066 78.3287L269.486 79.9706L263.936 78.3278L262.697 63.8004ZM273.77 66.7733L265.231 66.7715L265.368 68.5374L271.929 68.5393L271.764 70.3696H267.461L267.617 72.1029H271.623L271.386 74.4769L269.5 75.0188L267.586 74.4724L267.463 73.0507H265.773L265.961 75.6485L269.5 76.7947L272.982 75.7645L273.77 66.7733Z" fill="#6E7781"/>
<path d="M387.853 70.206C388.534 69.37 389.42 68.952 390.511 68.952C392.41 68.952 393.367 70.0233 393.384 72.1659V78.1037H391.848V72.1576C391.842 71.5098 391.693 71.0309 391.399 70.7209C391.111 70.4108 390.66 70.2558 390.046 70.2558C389.547 70.2558 389.11 70.3887 388.733 70.6544C388.357 70.9202 388.064 71.269 387.853 71.7008V78.1037H386.317V65.3477H387.853V70.206ZM397.769 66.9422V69.1181H399.447V70.3056H397.769V75.8781C397.769 76.2379 397.844 76.5092 397.993 76.6919C398.143 76.8691 398.397 76.9577 398.757 76.9577C398.934 76.9577 399.178 76.9245 399.488 76.858V78.1037C399.084 78.2145 398.691 78.2698 398.309 78.2698C397.622 78.2698 397.105 78.0622 396.756 77.647C396.407 77.2317 396.233 76.6421 396.233 75.8781V70.3056H394.597V69.1181H396.233V66.9422H397.769ZM402.694 69.1181L402.735 70.1146C403.394 69.3395 404.283 68.952 405.401 68.952C406.658 68.952 407.513 69.4336 407.967 70.397C408.266 69.9651 408.654 69.6163 409.13 69.3506C409.611 69.0848 410.179 68.952 410.832 68.952C412.803 68.952 413.805 69.9956 413.839 72.0828V78.1037H412.302V72.1742C412.302 71.532 412.155 71.0531 411.862 70.7375C411.569 70.4164 411.076 70.2558 410.384 70.2558C409.814 70.2558 409.34 70.4274 408.964 70.7707C408.587 71.1084 408.369 71.5652 408.308 72.141V78.1037H406.763V72.2157C406.763 70.9091 406.123 70.2558 404.845 70.2558C403.837 70.2558 403.148 70.6849 402.777 71.543V78.1037H401.24V69.1181H402.694ZM417.833 78.1037H416.297V65.3477H417.833V78.1037Z" fill="#6E7781"/>
<path d="M361.343 63.8004L362.579 78.0867L368.129 79.9706L373.713 78.0867L374.949 63.8004H361.343ZM372.263 68.417H365.75L365.895 70.2003H372.118L371.636 75.5567L368.167 76.5315V76.5425H368.127L364.63 75.5573L364.417 72.821H366.108L366.232 74.1961L368.127 74.7193L370.03 74.1961L370.243 71.9513H364.329L363.876 66.696H372.419L372.263 68.417Z" fill="#6E7781"/>
<path d="M480.399 63.8004L478.698 78.0105L473.596 79.9706L468.494 78.0105L466.793 63.8004H480.399Z" stroke="#6E7781" stroke-width="1.36064" stroke-linecap="round" stroke-linejoin="round"/>
<path d="M493.671 66.0121H495.274V74.5742C495.274 75.7314 494.925 76.6366 494.228 77.2899C493.536 77.9432 492.611 78.2698 491.454 78.2698C490.252 78.2698 489.317 77.9625 488.647 77.348C487.977 76.7335 487.642 75.8725 487.642 74.7652H489.237C489.237 75.4573 489.425 75.9971 489.801 76.3847C490.183 76.7722 490.734 76.966 491.454 76.966C492.113 76.966 492.644 76.7584 493.048 76.3431C493.458 75.9279 493.666 75.3466 493.671 74.5992V66.0121ZM503.296 78.1037C503.208 77.9266 503.136 77.611 503.08 77.157C502.366 77.8989 501.514 78.2698 500.523 78.2698C499.637 78.2698 498.909 78.0207 498.338 77.5224C497.774 77.0186 497.491 76.3819 497.491 75.6123C497.491 74.6767 497.846 73.9514 498.554 73.4365C499.269 72.9161 500.271 72.6559 501.561 72.6559H503.056V71.95C503.056 71.4129 502.895 70.9866 502.574 70.671C502.253 70.3499 501.779 70.1894 501.154 70.1894C500.606 70.1894 500.146 70.3278 499.775 70.6046C499.404 70.8814 499.219 71.2164 499.219 71.6095H497.674C497.674 71.161 497.832 70.7292 498.147 70.3139C498.469 69.8932 498.9 69.561 499.443 69.3174C499.991 69.0738 500.592 68.952 501.245 68.952C502.28 68.952 503.092 69.2122 503.678 69.7326C504.265 70.2475 504.57 70.9589 504.592 71.8669V76.0026C504.592 76.8276 504.697 77.4836 504.907 77.9709V78.1037H503.296ZM500.747 76.9328C501.229 76.9328 501.685 76.8082 502.117 76.5591C502.549 76.3099 502.862 75.986 503.056 75.5874V73.7438H501.851C499.969 73.7438 499.028 74.2946 499.028 75.3964C499.028 75.8781 499.188 76.2546 499.509 76.5258C499.831 76.7971 500.243 76.9328 500.747 76.9328ZM509.832 76.0193L512.058 69.1181H513.627L510.405 78.1037H509.234L505.979 69.1181H507.548L509.832 76.0193ZM520.52 78.1037C520.432 77.9266 520.36 77.611 520.304 77.157C519.59 77.8989 518.738 78.2698 517.747 78.2698C516.861 78.2698 516.133 78.0207 515.562 77.5224C514.998 77.0186 514.715 76.3819 514.715 75.6123C514.715 74.6767 515.07 73.9514 515.778 73.4365C516.492 72.9161 517.495 72.6559 518.785 72.6559H520.279V71.95C520.279 71.4129 520.119 70.9866 519.798 70.671C519.477 70.3499 519.003 70.1894 518.378 70.1894C517.83 70.1894 517.37 70.3278 516.999 70.6046C516.628 70.8814 516.443 71.2164 516.443 71.6095H514.898C514.898 71.161 515.056 70.7292 515.371 70.3139C515.692 69.8932 516.124 69.561 516.667 69.3174C517.215 69.0738 517.816 68.952 518.469 68.952C519.504 68.952 520.315 69.2122 520.902 69.7326C521.489 70.2475 521.794 70.9589 521.816 71.8669V76.0026C521.816 76.8276 521.921 77.4836 522.131 77.9709V78.1037H520.52ZM517.971 76.9328C518.452 76.9328 518.909 76.8082 519.341 76.5591C519.773 76.3099 520.086 75.986 520.279 75.5874V73.7438H519.075C517.193 73.7438 516.252 74.2946 516.252 75.3964C516.252 75.8781 516.412 76.2546 516.733 76.5258C517.054 76.7971 517.467 76.9328 517.971 76.9328ZM529.456 75.7203C529.456 75.305 529.298 74.9839 528.983 74.7569C528.673 74.5244 528.127 74.3251 527.347 74.159C526.572 73.9929 525.954 73.7936 525.495 73.5611C525.041 73.3285 524.703 73.0517 524.482 72.7306C524.266 72.4095 524.158 72.0275 524.158 71.5846C524.158 70.8482 524.468 70.2254 525.088 69.716C525.713 69.2066 526.511 68.952 527.48 68.952C528.498 68.952 529.323 69.215 529.954 69.7409C530.591 70.2669 530.909 70.9396 530.909 71.759H529.365C529.365 71.3382 529.185 70.9755 528.825 70.671C528.471 70.3665 528.022 70.2143 527.48 70.2143C526.92 70.2143 526.483 70.3361 526.167 70.5797C525.852 70.8233 525.694 71.1416 525.694 71.5347C525.694 71.9057 525.841 72.1853 526.134 72.3735C526.428 72.5617 526.956 72.7417 527.72 72.9133C528.49 73.0849 529.113 73.2898 529.589 73.5278C530.065 73.7659 530.417 74.0538 530.644 74.3915C530.876 74.7237 530.992 75.1307 530.992 75.6123C530.992 76.4151 530.671 77.0601 530.029 77.5473C529.387 78.029 528.554 78.2698 527.529 78.2698C526.81 78.2698 526.173 78.1425 525.619 77.8878C525.066 77.6331 524.631 77.2788 524.316 76.8248C524.005 76.3653 523.85 75.8698 523.85 75.3383H525.387C525.414 75.8532 525.619 76.2629 526.001 76.5674C526.389 76.8663 526.898 77.0158 527.529 77.0158C528.111 77.0158 528.576 76.8995 528.925 76.667C529.279 76.4289 529.456 76.1134 529.456 75.7203ZM536.598 77.0158C537.146 77.0158 537.625 76.8497 538.035 76.5175C538.445 76.1853 538.672 75.7701 538.716 75.2718H540.169C540.141 75.7867 539.964 76.2767 539.638 76.7418C539.311 77.2068 538.874 77.5778 538.325 77.8546C537.783 78.1314 537.207 78.2698 536.598 78.2698C535.375 78.2698 534.4 77.8629 533.675 77.049C532.955 76.2296 532.595 75.1113 532.595 73.6939V73.4365C532.595 72.5617 532.756 71.7839 533.077 71.1029C533.398 70.4219 533.858 69.8932 534.456 69.5167C535.059 69.1402 535.77 68.952 536.59 68.952C537.597 68.952 538.433 69.2537 539.098 69.8572C539.768 70.4607 540.125 71.2441 540.169 72.2074H538.716C538.672 71.6261 538.45 71.1499 538.051 70.779C537.658 70.4025 537.171 70.2143 536.59 70.2143C535.809 70.2143 535.203 70.4966 534.771 71.0614C534.345 71.6205 534.132 72.4316 534.132 73.4946V73.7853C534.132 74.8206 534.345 75.6179 534.771 76.177C535.197 76.7362 535.806 77.0158 536.598 77.0158ZM546.24 70.4966C546.007 70.4579 545.755 70.4385 545.484 70.4385C544.476 70.4385 543.793 70.8676 543.433 71.7257V78.1037H541.897V69.1181H543.391L543.416 70.1562C543.92 69.3534 544.634 68.952 545.559 68.952C545.858 68.952 546.085 68.9907 546.24 69.0682V70.4966ZM549.329 78.1037H547.793V69.1181H549.329V78.1037ZM547.668 66.7346C547.668 66.4855 547.743 66.2751 547.892 66.1035C548.047 65.9318 548.274 65.846 548.573 65.846C548.872 65.846 549.099 65.9318 549.254 66.1035C549.409 66.2751 549.487 66.4855 549.487 66.7346C549.487 66.9838 549.409 67.1914 549.254 67.3575C549.099 67.5236 548.872 67.6066 548.573 67.6066C548.274 67.6066 548.047 67.5236 547.892 67.3575C547.743 67.1914 547.668 66.9838 547.668 66.7346ZM559.386 73.7106C559.386 75.0781 559.073 76.1798 558.448 77.0158C557.822 77.8518 556.975 78.2698 555.906 78.2698C554.816 78.2698 553.958 77.9238 553.332 77.2317V81.5585H551.796V69.1181H553.199L553.274 70.1146C553.9 69.3395 554.769 68.952 555.882 68.952C556.961 68.952 557.814 69.3589 558.439 70.1728C559.071 70.9866 559.386 72.1188 559.386 73.5694V73.7106ZM557.85 73.5362C557.85 72.523 557.634 71.723 557.202 71.1361C556.77 70.5492 556.178 70.2558 555.425 70.2558C554.495 70.2558 553.797 70.6683 553.332 71.4932V75.7867C553.792 76.6061 554.495 77.0158 555.441 77.0158C556.178 77.0158 556.762 76.7251 557.194 76.1438C557.631 75.557 557.85 74.6877 557.85 73.5362ZM563.431 66.9422V69.1181H565.108V70.3056H563.431V75.8781C563.431 76.2379 563.505 76.5092 563.655 76.6919C563.804 76.8691 564.059 76.9577 564.419 76.9577C564.596 76.9577 564.84 76.9245 565.15 76.858V78.1037C564.745 78.2145 564.352 78.2698 563.97 78.2698C563.284 78.2698 562.766 78.0622 562.417 77.647C562.069 77.2317 561.894 76.6421 561.894 75.8781V70.3056H560.258V69.1181H561.894V66.9422H563.431Z" fill="#6E7781"/>
<path d="M469.769 67.7204H472.32V75.5605L470.619 74.5805" stroke="#6E7781" stroke-width="1.36064" stroke-linecap="round" stroke-linejoin="round"/>
<path d="M477.423 67.7204H475.297C475.184 67.7204 475.076 67.772 474.996 67.8639C474.916 67.9558 474.871 68.0804 474.871 68.2104V71.1504C474.871 71.2804 474.916 71.405 474.996 71.4969C475.076 71.5888 475.184 71.6404 475.297 71.6404H476.507C476.568 71.6404 476.628 71.6555 476.683 71.6846C476.738 71.7137 476.788 71.7562 476.828 71.8092C476.868 71.8621 476.897 71.9243 476.914 71.9916C476.932 72.0589 476.936 72.1296 476.928 72.199L476.572 75.0705L474.871 75.5605" stroke="#6E7781" stroke-width="1.36064" stroke-linecap="round" stroke-linejoin="round"/>
<path d="M649.514 73.2123H646.674V78.1037H645.071V66.0121H649.074C650.436 66.0121 651.482 66.3222 652.213 66.9422C652.949 67.5623 653.317 68.4648 653.317 69.6496C653.317 70.4025 653.112 71.0586 652.703 71.6178C652.299 72.177 651.734 72.595 651.009 72.8718L653.849 78.0041V78.1037H652.138L649.514 73.2123ZM646.674 71.9084H649.123C649.915 71.9084 650.544 71.7036 651.009 71.2939C651.479 70.8842 651.714 70.3361 651.714 69.6496C651.714 68.9021 651.49 68.3291 651.042 67.9305C650.599 67.5319 649.957 67.3298 649.115 67.3243H646.674V71.9084ZM659.047 78.2698C657.829 78.2698 656.838 77.8712 656.074 77.0739C655.31 76.2712 654.928 75.1999 654.928 73.86V73.5777C654.928 72.6863 655.097 71.8918 655.435 71.1942C655.778 70.4911 656.254 69.943 656.863 69.5499C657.478 69.1513 658.142 68.952 658.856 68.952C660.025 68.952 660.933 69.3368 661.58 70.1063C662.228 70.8759 662.552 71.9776 662.552 73.4116V74.051H656.465C656.487 74.9369 656.744 75.6538 657.237 76.202C657.735 76.7445 658.367 77.0158 659.131 77.0158C659.673 77.0158 660.133 76.9051 660.509 76.6836C660.886 76.4622 661.215 76.1687 661.497 75.8033L662.436 76.5341C661.683 77.6913 660.553 78.2698 659.047 78.2698ZM658.856 70.2143C658.236 70.2143 657.716 70.4413 657.295 70.8953C656.874 71.3437 656.614 71.9749 656.515 72.7887H661.016V72.6725C660.971 71.8918 660.761 71.2884 660.385 70.862C660.008 70.4302 659.499 70.2143 658.856 70.2143ZM669.885 78.1037C669.797 77.9266 669.725 77.611 669.669 77.157C668.955 77.8989 668.102 78.2698 667.111 78.2698C666.225 78.2698 665.497 78.0207 664.927 77.5224C664.362 77.0186 664.08 76.3819 664.08 75.6123C664.08 74.6767 664.434 73.9514 665.143 73.4365C665.857 72.9161 666.859 72.6559 668.149 72.6559H669.644V71.95C669.644 71.4129 669.484 70.9866 669.163 70.671C668.841 70.3499 668.368 70.1894 667.742 70.1894C667.194 70.1894 666.735 70.3278 666.364 70.6046C665.993 70.8814 665.807 71.2164 665.807 71.6095H664.263C664.263 71.161 664.421 70.7292 664.736 70.3139C665.057 69.8932 665.489 69.561 666.032 69.3174C666.58 69.0738 667.181 68.952 667.834 68.952C668.869 68.952 669.68 69.2122 670.267 69.7326C670.854 70.2475 671.158 70.9589 671.181 71.8669V76.0026C671.181 76.8276 671.286 77.4836 671.496 77.9709V78.1037H669.885ZM667.336 76.9328C667.817 76.9328 668.274 76.8082 668.706 76.5591C669.138 76.3099 669.45 75.986 669.644 75.5874V73.7438H668.44C666.558 73.7438 665.616 74.2946 665.616 75.3964C665.616 75.8781 665.777 76.2546 666.098 76.5258C666.419 76.7971 666.832 76.9328 667.336 76.9328ZM677.193 77.0158C677.741 77.0158 678.22 76.8497 678.63 76.5175C679.04 76.1853 679.267 75.7701 679.311 75.2718H680.764C680.737 75.7867 680.559 76.2767 680.233 76.7418C679.906 77.2068 679.469 77.5778 678.921 77.8546C678.378 78.1314 677.802 78.2698 677.193 78.2698C675.97 78.2698 674.995 77.8629 674.27 77.049C673.55 76.2296 673.19 75.1113 673.19 73.6939V73.4365C673.19 72.5617 673.351 71.7839 673.672 71.1029C673.993 70.4219 674.453 69.8932 675.051 69.5167C675.654 69.1402 676.366 68.952 677.185 68.952C678.193 68.952 679.029 69.2537 679.693 69.8572C680.363 70.4607 680.72 71.2441 680.764 72.2074H679.311C679.267 71.6261 679.045 71.1499 678.647 70.779C678.253 70.4025 677.766 70.2143 677.185 70.2143C676.404 70.2143 675.798 70.4966 675.366 71.0614C674.94 71.6205 674.727 72.4316 674.727 73.4946V73.7853C674.727 74.8206 674.94 75.6179 675.366 76.177C675.792 76.7362 676.401 77.0158 677.193 77.0158ZM684.576 66.9422V69.1181H686.254V70.3056H684.576V75.8781C684.576 76.2379 684.651 76.5092 684.8 76.6919C684.95 76.8691 685.204 76.9577 685.564 76.9577C685.741 76.9577 685.985 76.9245 686.295 76.858V78.1037C685.891 78.2145 685.498 78.2698 685.116 78.2698C684.429 78.2698 683.912 78.0622 683.563 77.647C683.214 77.2317 683.04 76.6421 683.04 75.8781V70.3056H681.404V69.1181H683.04V66.9422H684.576Z" fill="#6E7781"/>
<path d="M626.667 70.2649C625.664 70.2649 624.847 70.9925 624.847 71.8859C624.847 72.7792 625.664 73.5068 626.667 73.5068C627.671 73.5068 628.488 72.7792 628.488 71.8859C628.488 70.9925 627.671 70.2649 626.667 70.2649ZM621.571 75.1072L621.17 75.0186C618.18 74.3439 616.463 73.2024 616.463 71.883C616.463 70.5637 618.18 69.4221 621.17 68.7474L621.571 68.6588L621.684 69.0137C621.988 69.9435 622.375 70.8497 622.844 71.7234L622.93 71.883L622.844 72.0454C622.374 72.9188 621.987 73.8251 621.684 74.7551L621.571 75.1072ZM620.984 69.5754C618.712 70.1434 617.317 71.0158 617.317 71.883C617.317 72.7503 618.712 73.6192 620.984 74.1906C621.263 73.4026 621.599 72.6318 621.99 71.883C621.598 71.1344 621.262 70.3636 620.984 69.5754ZM631.763 75.1072L631.651 74.7523C631.348 73.8233 630.96 72.918 630.491 72.0454L630.405 71.883L630.491 71.7206C630.96 70.8472 631.348 69.9409 631.651 69.0109L631.763 68.6588L632.165 68.7474C635.155 69.4221 636.872 70.5637 636.872 71.883C636.872 73.2024 635.155 74.3439 632.165 75.0186L631.763 75.1072ZM631.344 71.883C631.738 72.6313 632.074 73.4022 632.351 74.1906C634.627 73.6198 636.018 72.7503 636.018 71.883C636.018 71.0158 634.623 70.1468 632.351 69.5754C632.072 70.3632 631.736 71.134 631.344 71.883ZM620.977 69.5726L620.864 69.2176C620.023 66.579 620.279 64.686 621.565 64.026C622.827 63.378 624.85 64.1442 626.973 66.0848L627.262 66.3484L626.973 66.6119C626.219 67.3103 625.53 68.0621 624.914 68.8598L624.797 69.0047L624.598 69.0194C623.513 69.0957 622.436 69.2501 621.379 69.4812L620.977 69.5726ZM622.591 64.5531C622.362 64.5531 622.159 64.5946 621.99 64.6832C621.146 65.1182 620.997 66.6267 621.578 68.6616C622.484 68.481 623.403 68.3535 624.329 68.28C624.861 67.6043 625.444 66.9609 626.072 66.3541C624.747 65.2034 623.491 64.5525 622.591 64.5525V64.5531ZM630.747 79.97C630.744 79.97 630.744 79.97 630.747 79.97C629.534 79.97 627.976 79.1595 626.362 77.6806L626.073 77.4171L626.362 77.1536C627.116 76.4552 627.804 75.7034 628.421 74.9056L628.534 74.7608L628.734 74.7432C629.821 74.6695 630.898 74.515 631.956 74.2815L632.358 74.1929L632.471 74.5478C633.311 77.1865 633.056 79.0766 631.77 79.736C631.459 79.8951 631.105 79.9758 630.747 79.9694V79.97ZM627.262 77.4114C628.587 78.5621 629.843 79.2129 630.743 79.2129H630.746C630.972 79.2129 631.175 79.1686 631.344 79.0829C632.188 78.6478 632.341 77.1394 631.756 75.1044C630.85 75.2852 629.931 75.4117 629.006 75.4832C628.473 76.1598 627.89 76.8041 627.262 77.412V77.4114ZM632.358 69.5726L631.956 69.4812C630.898 69.2509 629.82 69.0965 628.734 69.0194L628.534 69.0047L628.421 68.8598C627.804 68.0621 627.116 67.3103 626.362 66.6119L626.073 66.3484L626.362 66.0848C628.485 64.1442 630.508 63.378 631.77 64.026C633.056 64.6854 633.311 66.579 632.471 69.2176L632.358 69.5726ZM629.006 68.28C629.932 68.3533 630.851 68.4808 631.757 68.6616C632.342 66.6267 632.189 65.1176 631.345 64.6832C630.504 64.2515 628.923 64.9137 627.263 66.3546C627.889 66.9628 628.472 67.6061 629.006 68.2805V68.28ZM622.591 79.97C622.232 79.9757 621.877 79.8962 621.565 79.7366C620.279 79.0772 620.023 77.1865 620.864 74.5484L620.977 74.1934L621.379 74.282C622.362 74.5041 623.445 74.6574 624.598 74.7438L624.797 74.7614L624.91 74.9062C625.527 75.704 626.216 76.4558 626.97 77.1541L627.259 77.4177L626.97 77.6812C625.359 79.1601 623.801 79.9706 622.591 79.9706V79.97ZM621.578 75.1044C620.994 77.1394 621.147 78.6484 621.99 79.0829C622.831 79.5088 624.409 78.8523 626.073 77.4114C625.445 76.8035 624.862 76.1592 624.329 75.4827C623.404 75.4114 622.485 75.2848 621.578 75.1038V75.1044ZM626.667 75.5803C625.967 75.5803 625.249 75.5537 624.528 75.5003L624.329 75.4855L624.213 75.3378C623.805 74.817 623.423 74.2811 623.066 73.7317C622.709 73.1822 622.378 72.6197 622.073 72.0454L621.987 71.883L622.073 71.7206C622.683 70.5724 623.399 69.4712 624.213 68.4282L624.329 68.2805L624.528 68.2658C625.952 68.159 627.383 68.159 628.807 68.2658L629.006 68.2805L629.122 68.4282C629.937 69.4706 630.653 70.5719 631.262 71.7206L631.348 71.883L631.262 72.0454C630.654 73.1947 629.938 74.2961 629.122 75.3378L629.006 75.4855L628.807 75.5003C628.095 75.5533 627.381 75.58 626.667 75.5803ZM624.801 74.758C626.056 74.8437 627.278 74.8437 628.537 74.758C629.24 73.8424 629.864 72.8812 630.404 71.8824C629.866 70.8821 629.241 69.9206 628.534 69.0069C627.292 68.9212 626.043 68.9212 624.801 69.0069C624.094 69.9204 623.468 70.8818 622.931 71.8824C623.471 72.8817 624.097 73.8429 624.801 74.758Z" fill="#6E7781"/>
<path d="M765.48 69.1181V79.1418C765.48 80.8692 764.697 81.7329 763.13 81.7329C762.792 81.7329 762.479 81.683 762.191 81.5834V80.3543C762.369 80.3986 762.601 80.4207 762.889 80.4207C763.232 80.4207 763.492 80.3266 763.67 80.1384C763.852 79.9557 763.944 79.6346 763.944 79.175V69.1181H765.48ZM763.786 66.7346C763.786 66.491 763.861 66.2834 764.01 66.1118C764.165 65.9346 764.389 65.846 764.683 65.846C764.982 65.846 765.209 65.9318 765.364 66.1035C765.519 66.2751 765.596 66.4855 765.596 66.7346C765.596 66.9838 765.519 67.1914 765.364 67.3575C765.209 67.5236 764.982 67.6066 764.683 67.6066C764.384 67.6066 764.16 67.5236 764.01 67.3575C763.861 67.1914 763.786 66.9838 763.786 66.7346ZM777.439 72.4482C777.439 73.6164 777.253 74.6241 776.882 75.4711C776.511 76.3127 775.991 76.9715 775.321 77.4477L777.48 79.1418L776.392 80.1467L773.843 78.1203C773.444 78.22 773.023 78.2698 772.581 78.2698C771.628 78.2698 770.784 78.0373 770.048 77.5722C769.311 77.1016 768.738 76.4345 768.329 75.5708C767.924 74.7016 767.717 73.6967 767.706 72.5562V71.6842C767.706 70.5216 767.908 69.4945 768.312 68.6032C768.716 67.7118 769.286 67.0308 770.023 66.5602C770.765 66.0841 771.612 65.846 772.564 65.846C773.538 65.846 774.394 66.0813 775.13 66.5519C775.872 67.0225 776.442 67.7007 776.841 68.5866C777.239 69.4669 777.439 70.4966 777.439 71.6759V72.4482ZM775.844 71.6676C775.844 70.2447 775.559 69.1485 774.989 68.3789C774.424 67.6038 773.616 67.2163 772.564 67.2163C771.562 67.2163 770.77 67.6011 770.189 68.3706C769.613 69.1347 769.317 70.1977 769.3 71.5596V72.4482C769.3 73.8324 769.588 74.923 770.164 75.7203C770.745 76.5175 771.551 76.9162 772.581 76.9162C773.61 76.9162 774.408 76.5424 774.972 75.795C775.537 75.0421 775.828 73.9652 775.844 72.5645V71.6676ZM785.204 77.2151C784.606 77.9183 783.728 78.2698 782.571 78.2698C781.613 78.2698 780.882 77.993 780.379 77.4394C779.88 76.8802 779.628 76.0552 779.623 74.9646V69.1181H781.159V74.923C781.159 76.285 781.713 76.966 782.82 76.966C783.994 76.966 784.775 76.5286 785.162 75.6538V69.1181H786.698V78.1037H785.237L785.204 77.2151ZM792.769 78.2698C791.551 78.2698 790.56 77.8712 789.796 77.0739C789.032 76.2712 788.65 75.1999 788.65 73.86V73.5777C788.65 72.6863 788.819 71.8918 789.157 71.1942C789.5 70.4911 789.976 69.943 790.585 69.5499C791.2 69.1513 791.864 68.952 792.578 68.952C793.746 68.952 794.654 69.3368 795.302 70.1063C795.95 70.8759 796.274 71.9776 796.274 73.4116V74.051H790.186C790.209 74.9369 790.466 75.6538 790.959 76.202C791.457 76.7445 792.088 77.0158 792.852 77.0158C793.395 77.0158 793.854 76.9051 794.231 76.6836C794.607 76.4622 794.937 76.1687 795.219 75.8033L796.158 76.5341C795.405 77.6913 794.275 78.2698 792.769 78.2698ZM792.578 70.2143C791.958 70.2143 791.438 70.4413 791.017 70.8953C790.596 71.3437 790.336 71.9749 790.236 72.7887H794.737V72.6725C794.693 71.8918 794.483 71.2884 794.106 70.862C793.73 70.4302 793.22 70.2143 792.578 70.2143ZM802.403 70.4966C802.17 70.4579 801.918 70.4385 801.647 70.4385C800.639 70.4385 799.956 70.8676 799.596 71.7257V78.1037H798.059V69.1181H799.554L799.579 70.1562C800.083 69.3534 800.797 68.952 801.722 68.952C802.021 68.952 802.248 68.9907 802.403 69.0682V70.4966ZM806.912 75.8532L809.005 69.1181H810.649L807.037 79.4906C806.477 80.9854 805.589 81.7329 804.371 81.7329L804.08 81.708L803.507 81.6V80.3543L803.922 80.3875C804.443 80.3875 804.847 80.2823 805.135 80.0719C805.428 79.8615 805.669 79.4768 805.857 78.9176L806.198 78.0041L802.992 69.1181H804.67L806.912 75.8532Z" fill="#6E7781"/>
<path d="M740.001 67.5994C738.494 69.7351 738.682 72.5135 739.833 74.7832C739.86 74.8371 739.887 74.891 739.917 74.9449C739.935 74.9786 739.952 75.0136 739.971 75.0467C739.982 75.0669 739.994 75.0864 740.005 75.1053L740.065 75.2131L740.174 75.3983C740.195 75.432 740.215 75.4664 740.237 75.5001C740.278 75.5661 740.321 75.6317 740.364 75.6968C740.382 75.7251 740.4 75.7507 740.419 75.779C740.479 75.8672 740.54 75.9555 740.603 76.0417L740.609 76.0485C740.618 76.0626 740.63 76.0761 740.64 76.0902C740.695 76.1643 740.749 76.2385 740.808 76.3112L740.871 76.3907C740.922 76.454 740.974 76.5169 741.027 76.5794L741.087 76.6494C741.157 76.7316 741.229 76.8111 741.305 76.8933L741.309 76.8973L741.317 76.9061C741.39 76.9836 741.463 77.0597 741.536 77.1352L741.606 77.2052C741.687 77.286 741.77 77.365 741.855 77.4424C741.934 77.5165 742.015 77.5886 742.096 77.658C742.097 77.6593 742.098 77.6607 742.1 77.6613L742.142 77.6964C742.215 77.7579 742.288 77.8188 742.361 77.879L742.452 77.9504C742.512 77.998 742.572 78.0449 742.634 78.0912L742.732 78.1646C742.799 78.2138 742.867 78.2623 742.936 78.3088L743.012 78.3627L743.032 78.3775C743.098 78.422 743.164 78.4651 743.231 78.5075C743.259 78.5264 743.285 78.5459 743.317 78.5614C743.419 78.6248 743.523 78.6888 743.628 78.7494L743.714 78.7972C743.791 78.8417 743.868 78.8848 743.948 78.9266C743.99 78.9495 744.034 78.971 744.077 78.9926C744.131 79.0216 744.186 79.0505 744.244 79.0782L744.283 79.0964L744.351 79.1294C744.439 79.1707 744.527 79.2111 744.616 79.2506L744.671 79.2756C744.773 79.3196 744.876 79.362 744.98 79.4029L745.055 79.4319C745.152 79.4682 745.249 79.5046 745.347 79.5397L745.384 79.5518C745.493 79.5888 745.602 79.6232 745.712 79.6569L745.79 79.6798C745.877 79.7108 745.989 79.7431 746.105 79.7687L746.126 79.7728C753.41 81.0831 755.526 75.4543 755.526 75.4543C753.749 77.7381 750.595 78.3411 747.605 77.6701C747.492 77.6445 747.382 77.6101 747.271 77.5778L747.188 77.5529C747.079 77.5201 746.972 77.4857 746.867 77.4498L746.823 77.4343C746.728 77.4012 746.633 77.3666 746.54 77.3305L746.461 77.2996C746.358 77.2598 746.256 77.2174 746.155 77.1742L746.093 77.1473C746.007 77.1082 745.92 77.0698 745.835 77.0294L745.761 76.9937C745.694 76.9612 745.627 76.9277 745.561 76.8933C745.517 76.8704 745.472 76.8488 745.428 76.8246C745.348 76.7821 745.268 76.737 745.189 76.6919L745.109 76.6474C745.003 76.5868 744.9 76.5228 744.797 76.4594C744.768 76.4419 744.743 76.4231 744.713 76.4055C744.639 76.3584 744.564 76.3099 744.491 76.26C744.467 76.2445 744.443 76.2263 744.42 76.2102C744.349 76.1612 744.279 76.1113 744.21 76.0606L744.117 75.9912C744.054 75.9434 743.99 75.8955 743.928 75.845L743.844 75.7783C743.765 75.7136 743.686 75.6496 743.608 75.5829L743.582 75.5614C743.499 75.4886 743.418 75.4145 743.335 75.339L743.266 75.273C743.205 75.2164 743.146 75.1592 743.088 75.1012L743.018 75.0325C742.945 74.9575 742.873 74.8816 742.8 74.8048L742.789 74.7933C742.714 74.7117 742.64 74.6289 742.568 74.5447L742.511 74.476C742.456 74.4128 742.403 74.3481 742.352 74.282C742.332 74.2586 742.312 74.2348 742.293 74.2106C742.23 74.1304 742.169 74.0489 742.109 73.9694C740.449 71.7367 739.853 68.6565 741.18 66.1273L740.001 67.5994Z" fill="#6E7781"/>
<path d="M744.676 65.7993C744.137 66.6276 743.852 67.5916 743.855 68.5757C743.854 69.4511 744.079 70.3123 744.509 71.0778L744.496 71.0516C744.656 71.3594 744.816 71.6195 744.992 71.8668L744.977 71.8452C745.144 72.1059 745.329 72.3323 745.537 72.5351L745.538 72.5357C745.616 72.6206 745.698 72.7042 745.782 72.7857L745.846 72.849C745.928 72.9265 746.01 73.0033 746.096 73.0774C746.1 73.0801 746.103 73.0842 746.107 73.0862C746.201 73.1684 746.299 73.2479 746.398 73.324L746.464 73.3752C746.564 73.4507 746.665 73.5248 746.769 73.5948L746.778 73.6016C746.824 73.6326 746.871 73.6622 746.917 73.6918C746.94 73.7067 746.961 73.7215 746.983 73.735C747.058 73.7821 747.133 73.8279 747.209 73.8717L747.241 73.8899C747.307 73.9276 747.373 73.964 747.441 73.9977C747.464 74.0105 747.488 74.022 747.512 74.0341L747.652 74.1055L747.672 74.1149C747.769 74.1621 747.865 74.2066 747.964 74.249C747.985 74.2584 748.006 74.2665 748.028 74.2753C748.107 74.3083 748.187 74.3406 748.267 74.3709L748.37 74.408C748.442 74.4343 748.516 74.4592 748.588 74.4835L748.688 74.5145C748.774 74.5468 748.88 74.5778 748.989 74.602L749.005 74.6047C754.629 75.5243 755.928 71.2516 755.928 71.2516C754.758 72.9144 752.491 73.708 750.073 73.0889C749.933 73.0528 749.795 73.0122 749.659 72.9669C749.584 72.9433 749.51 72.9171 749.436 72.8908L749.336 72.8544C749.255 72.8236 749.176 72.7917 749.096 72.7587C749.074 72.7493 749.052 72.7412 749.032 72.7318C748.933 72.6894 748.835 72.6447 748.738 72.5977C748.688 72.5735 748.64 72.5479 748.592 72.5236L748.507 72.4805C748.444 72.4468 748.382 72.4122 748.32 72.3768L748.276 72.3518C748.2 72.3078 748.125 72.2624 748.051 72.2157L747.983 72.1713C747.934 72.1403 747.885 72.1079 747.837 72.0756C747.734 72.0049 747.633 71.9317 747.533 71.856L747.465 71.8021C746.403 70.9871 745.609 69.8798 745.184 68.6201L745.17 68.573C745 68.0679 744.914 67.5389 744.916 67.0066C744.916 66.1051 745.157 65.259 745.579 64.528L745.566 64.5529L744.676 65.7993Z" fill="#6E7781"/>
<path d="M748.609 64.4545C748.249 64.9844 748.058 65.6082 748.06 66.2459C748.06 66.7276 748.166 67.1844 748.358 67.5947L748.349 67.5745C748.591 68.1118 748.939 68.5962 749.373 68.9993C749.806 69.4023 750.317 69.7159 750.875 69.9217L750.906 69.9318C750.952 69.9493 750.998 69.9641 751.046 69.9796L751.107 69.9985C751.161 70.018 751.228 70.0376 751.296 70.0531L751.308 70.0551C754.412 70.648 755.255 68.4827 755.48 68.1647C754.742 69.213 753.502 69.4642 751.981 69.1004C751.856 69.0692 751.733 69.0316 751.613 68.9879C751.455 68.9333 751.3 68.8696 751.149 68.7973L751.176 68.8087C750.902 68.6784 750.642 68.5211 750.4 68.3392L750.411 68.3472C749.049 67.3279 748.204 65.3829 749.092 63.8004L748.609 64.4545Z" fill="#6E7781"/>
<path d="M806.663 297.321V305.542C806.658 306.683 806.298 307.616 805.583 308.341C804.875 309.066 803.911 309.473 802.693 309.562L802.27 309.578C800.947 309.578 799.892 309.221 799.106 308.507C798.32 307.793 797.921 306.81 797.91 305.559V297.321H799.488V305.509C799.488 306.384 799.729 307.065 800.21 307.552C800.692 308.034 801.379 308.275 802.27 308.275C803.172 308.275 803.862 308.034 804.338 307.552C804.819 307.07 805.06 306.392 805.06 305.517V297.321H806.663ZM813.124 301.955L816.022 297.321H817.899L814.079 303.317L817.991 309.412H816.097L813.124 304.695L810.134 309.412H808.249L812.169 303.317L808.341 297.321H810.209L813.124 301.955Z" fill="#6E7781"/>
<path d="M777.8 306.733L779.298 306.322L788.315 297.647C788.386 297.578 788.425 297.485 788.425 297.388C788.424 297.291 788.384 297.198 788.312 297.13L787.772 296.611C787.737 296.577 787.696 296.55 787.649 296.531C787.603 296.512 787.554 296.503 787.504 296.502C787.454 296.502 787.404 296.511 787.358 296.53C787.312 296.548 787.27 296.575 787.235 296.608L778.242 305.26L777.799 306.732L777.8 306.733ZM788.841 295.582L789.381 296.102C790.126 296.819 790.133 297.976 789.395 298.686L780.103 307.626L776.902 308.502C776.707 308.554 776.498 308.531 776.321 308.436C776.144 308.342 776.013 308.184 775.958 307.999C775.917 307.865 775.917 307.723 775.957 307.59L776.888 304.485L786.155 295.569C786.331 295.4 786.541 295.266 786.772 295.176C787.003 295.085 787.251 295.039 787.501 295.04C787.751 295.041 787.998 295.09 788.228 295.183C788.458 295.276 788.667 295.411 788.841 295.582V295.582ZM779.045 296.515C779.467 296.515 779.809 296.844 779.809 297.249C779.81 297.345 779.79 297.44 779.752 297.529C779.714 297.618 779.658 297.699 779.587 297.767C779.516 297.836 779.432 297.89 779.339 297.927C779.246 297.964 779.146 297.984 779.045 297.984H775.991C775.147 297.984 774.463 298.642 774.463 299.453V308.27C774.463 309.082 775.147 309.74 775.991 309.74H785.155C785.998 309.74 786.683 309.082 786.683 308.27V305.332C786.683 304.926 787.025 304.597 787.446 304.597C787.868 304.597 788.21 304.926 788.21 305.332V308.27C788.21 309.894 786.842 311.21 785.155 311.21H775.991C774.303 311.21 772.936 309.894 772.936 308.27V299.453C772.936 297.831 774.303 296.515 775.991 296.515H779.045Z" fill="#6E7781"/>
<path d="M714.82 297.321V305.542C714.814 306.683 714.454 307.616 713.74 308.341C713.032 309.066 712.068 309.473 710.85 309.562L710.427 309.578C709.103 309.578 708.049 309.221 707.263 308.507C706.476 307.793 706.078 306.81 706.067 305.559V297.321H707.645V305.509C707.645 306.384 707.885 307.065 708.367 307.552C708.849 308.034 709.535 308.275 710.427 308.275C711.329 308.275 712.018 308.034 712.495 307.552C712.976 307.07 713.217 306.392 713.217 305.517V297.321H714.82ZM719.047 309.412H717.452V297.321H719.047V309.412Z" fill="#6E7781"/>
<path d="M695.8 301.679L698.101 299.451L694.167 295.642L691.865 297.87L695.8 301.679ZM690.548 299.136L682.021 307.401V311.21H685.955L694.482 302.954L690.548 299.136ZM695.939 308.066C695.939 310.033 693.582 311.21 691.299 311.21C690.854 311.21 690.372 311.147 690.372 311.147V309.323C690.372 309.323 690.798 309.413 691.299 309.413C692.728 309.413 694.083 308.757 694.083 308.066C694.083 307.644 693.638 307.284 692.942 306.988L694.315 305.658C695.308 306.224 695.939 306.979 695.939 308.066ZM682.559 304.338C681.659 303.835 681.093 303.179 681.093 302.227C681.093 300.609 682.846 299.864 684.396 299.208C685.352 298.795 686.66 298.238 686.66 297.735C686.66 297.366 685.936 296.836 684.804 296.836C683.654 296.836 682.949 297.384 682.949 297.735H681.093C681.093 296.253 682.67 295.04 684.804 295.04C686.883 295.04 688.516 296.226 688.516 297.735C688.516 299.415 686.725 300.178 685.138 300.852C684.266 301.22 682.949 301.777 682.949 302.227C682.949 302.505 683.348 302.766 683.941 302.999L682.559 304.338Z" fill="#6E7781"/>
</svg>
