<svg width="816" height="400" viewBox="0 0 816 400" fill="none" xmlns="http://www.w3.org/2000/svg">
<rect x="0.871094" y="19.1921" width="814.521" height="380.334" fill="white"/>
<path d="M0.871094 103.337H813.709" stroke="#D8DEE4" stroke-width="1.68289"/>
<path d="M0.871094 332.211H813.709" stroke="#D8DEE4" stroke-width="1.68289"/>
<path d="M68.7187 253.956L180.941 59.5816L293.163 253.956H68.7187Z" fill="#F3DF4F" stroke="#D8DEE4" stroke-width="3.36579"/>
<rect x="399.717" y="179.067" width="198.582" height="198.582" fill="#40C463" stroke="#D8DEE4" stroke-width="3.36579"/>
<path d="M284.948 94.6999C285.491 94.6999 285.965 94.5355 286.37 94.2068C286.775 93.8781 287 93.4673 287.044 92.9743H288.482C288.454 93.4837 288.279 93.9685 287.956 94.4287C287.633 94.8889 287.2 95.2559 286.658 95.5298C286.121 95.8037 285.551 95.9407 284.948 95.9407C283.738 95.9407 282.774 95.538 282.056 94.7327C281.344 93.922 280.988 92.8154 280.988 91.413V91.1582C280.988 90.2927 281.147 89.523 281.464 88.8492C281.782 88.1754 282.237 87.6522 282.828 87.2797C283.425 86.9072 284.129 86.7209 284.94 86.7209C285.937 86.7209 286.764 87.0195 287.422 87.6166C288.085 88.2137 288.438 88.9889 288.482 89.9421H287.044C287 89.3669 286.781 88.8958 286.386 88.5287C285.997 88.1562 285.515 87.9699 284.94 87.9699C284.168 87.9699 283.568 88.2493 283.141 88.8081C282.719 89.3614 282.508 90.1639 282.508 91.2158V91.5034C282.508 92.5278 282.719 93.3166 283.141 93.8699C283.562 94.4232 284.165 94.6999 284.948 94.6999ZM295.368 93.418C295.368 93.0071 295.212 92.6894 294.899 92.4648C294.593 92.2347 294.053 92.0375 293.281 91.8731C292.514 91.7088 291.903 91.5116 291.448 91.2815C290.999 91.0514 290.665 90.7775 290.446 90.4598C290.232 90.142 290.125 89.764 290.125 89.3258C290.125 88.5972 290.432 87.9809 291.046 87.4769C291.665 86.9729 292.453 86.7209 293.412 86.7209C294.42 86.7209 295.236 86.9811 295.861 87.5016C296.491 88.022 296.806 88.6876 296.806 89.4984H295.277C295.277 89.082 295.099 88.7232 294.743 88.4219C294.393 88.1206 293.949 87.9699 293.412 87.9699C292.859 87.9699 292.426 88.0905 292.114 88.3315C291.802 88.5725 291.645 88.8875 291.645 89.2765C291.645 89.6435 291.791 89.9202 292.081 90.1064C292.371 90.2927 292.894 90.4707 293.65 90.6405C294.412 90.8104 295.028 91.0131 295.499 91.2486C295.97 91.4842 296.318 91.7691 296.543 92.1032C296.773 92.4319 296.888 92.8346 296.888 93.3112C296.888 94.1055 296.57 94.7437 295.935 95.2258C295.299 95.7024 294.475 95.9407 293.461 95.9407C292.749 95.9407 292.119 95.8147 291.572 95.5627C291.024 95.3107 290.594 94.9601 290.281 94.5109C289.975 94.0562 289.821 93.5659 289.821 93.04H291.341C291.369 93.5495 291.572 93.9548 291.95 94.2561C292.333 94.552 292.837 94.6999 293.461 94.6999C294.037 94.6999 294.497 94.5848 294.842 94.3548C295.193 94.1192 295.368 93.8069 295.368 93.418ZM304.045 93.418C304.045 93.0071 303.889 92.6894 303.577 92.4648C303.27 92.2347 302.731 92.0375 301.958 91.8731C301.191 91.7088 300.58 91.5116 300.126 91.2815C299.676 91.0514 299.342 90.7775 299.123 90.4598C298.91 90.142 298.803 89.764 298.803 89.3258C298.803 88.5972 299.109 87.9809 299.723 87.4769C300.342 86.9729 301.131 86.7209 302.09 86.7209C303.098 86.7209 303.914 86.9811 304.538 87.5016C305.168 88.022 305.483 88.6876 305.483 89.4984H303.955C303.955 89.082 303.777 88.7232 303.421 88.4219C303.07 88.1206 302.626 87.9699 302.09 87.9699C301.536 87.9699 301.104 88.0905 300.791 88.3315C300.479 88.5725 300.323 88.8875 300.323 89.2765C300.323 89.6435 300.468 89.9202 300.758 90.1064C301.049 90.2927 301.572 90.4707 302.328 90.6405C303.089 90.8104 303.706 91.0131 304.177 91.2486C304.648 91.4842 304.996 91.7691 305.22 92.1032C305.45 92.4319 305.566 92.8346 305.566 93.3112C305.566 94.1055 305.248 94.7437 304.612 95.2258C303.977 95.7024 303.152 95.9407 302.139 95.9407C301.427 95.9407 300.797 95.8147 300.249 95.5627C299.701 95.3107 299.271 94.9601 298.959 94.5109C298.652 94.0562 298.499 93.5659 298.499 93.04H300.019C300.046 93.5495 300.249 93.9548 300.627 94.2561C301.01 94.552 301.514 94.6999 302.139 94.6999C302.714 94.6999 303.174 94.5848 303.519 94.3548C303.87 94.1192 304.045 93.8069 304.045 93.418Z" fill="#6E7781"/>
<path d="M260.037 1.45512H273.5L272.276 11.0519L266.754 12.1365L261.263 11.0513L260.037 1.45512ZM270.994 3.41889L262.544 3.41769L262.68 4.58423L269.172 4.58542L269.009 5.79445H264.751L264.906 6.93944H268.869L268.635 8.50758L266.769 8.8655L264.875 8.50459L264.753 7.5655H263.08L263.267 9.28148L266.769 10.0386L270.213 9.35809L270.994 3.41889V3.41889Z" fill="#6E7781"/>
<path d="M383.876 87.9617C384.55 87.1345 385.426 86.7209 386.505 86.7209C388.384 86.7209 389.332 87.7809 389.349 89.901V95.7763H387.828V89.8928C387.823 89.2518 387.675 88.778 387.385 88.4712C387.1 88.1644 386.653 88.011 386.045 88.011C385.552 88.011 385.119 88.1425 384.747 88.4055C384.374 88.6684 384.084 89.0135 383.876 89.4408V95.7763H382.356V83.1546H383.876V87.9617ZM393.687 84.7323V86.8853H395.347V88.0603H393.687V93.5741C393.687 93.9302 393.761 94.1986 393.909 94.3794C394.057 94.5547 394.309 94.6424 394.665 94.6424C394.84 94.6424 395.082 94.6095 395.388 94.5437V95.7763C394.988 95.8859 394.599 95.9407 394.221 95.9407C393.542 95.9407 393.03 95.7353 392.685 95.3244C392.34 94.9135 392.167 94.3301 392.167 93.5741V88.0603H390.548V86.8853H392.167V84.7323H393.687ZM398.56 86.8853L398.601 87.8713C399.253 87.1044 400.132 86.7209 401.239 86.7209C402.483 86.7209 403.329 87.1975 403.778 88.1507C404.074 87.7234 404.457 87.3783 404.929 87.1153C405.405 86.8524 405.967 86.7209 406.613 86.7209C408.563 86.7209 409.555 87.7536 409.588 89.8188V95.7763H408.068V89.9092C408.068 89.2737 407.922 88.7999 407.632 88.4876C407.342 88.1699 406.854 88.011 406.169 88.011C405.605 88.011 405.137 88.1808 404.764 88.5205C404.392 88.8547 404.175 89.3066 404.115 89.8763V95.7763H402.587V89.9503C402.587 88.6575 401.954 88.011 400.688 88.011C399.691 88.011 399.009 88.4356 398.642 89.2847V95.7763H397.122V86.8853H398.56ZM413.54 95.7763H412.02V83.1546H413.54V95.7763Z" fill="#6E7781"/>
<path d="M357.645 1.45512L358.868 10.8921L364.359 12.1365L369.884 10.8921L371.108 1.45512H357.645ZM368.45 4.50464H362.006L362.149 5.68264H368.306L367.829 9.22084L364.397 9.86477V9.87202H364.358L360.897 9.22122L360.687 7.41378H362.359L362.482 8.32208L364.358 8.6677L366.24 8.32208L366.451 6.83928H360.599L360.151 3.36784H368.604L368.45 4.50464Z" fill="#6E7781"/>
<path d="M488.58 83.812H490.166V92.284C490.166 93.4289 489.821 94.3246 489.131 94.971C488.446 95.6175 487.531 95.9407 486.386 95.9407C485.197 95.9407 484.272 95.6366 483.609 95.0286C482.946 94.4205 482.614 93.5686 482.614 92.473H484.192C484.192 93.1578 484.378 93.6919 484.751 94.0754C485.129 94.4588 485.674 94.6506 486.386 94.6506C487.038 94.6506 487.564 94.4451 487.964 94.0343C488.369 93.6234 488.575 93.0482 488.58 92.3087V83.812ZM498.104 95.7763C498.016 95.601 497.945 95.2888 497.89 94.8396C497.184 95.5736 496.34 95.9407 495.359 95.9407C494.483 95.9407 493.763 95.6942 493.198 95.2011C492.64 94.7026 492.36 94.0726 492.36 93.3112C492.36 92.3853 492.711 91.6677 493.412 91.1582C494.119 90.6433 495.11 90.3858 496.387 90.3858H497.866V89.6873C497.866 89.156 497.707 88.7341 497.389 88.4219C497.071 88.1042 496.603 87.9453 495.984 87.9453C495.442 87.9453 494.987 88.0822 494.62 88.3562C494.253 88.6301 494.069 88.9615 494.069 89.3504H492.541C492.541 88.9067 492.697 88.4794 493.009 88.0685C493.327 87.6522 493.754 87.3235 494.291 87.0825C494.834 86.8414 495.428 86.7209 496.074 86.7209C497.099 86.7209 497.901 86.9784 498.482 87.4933C499.063 88.0028 499.364 88.7068 499.386 89.6052V93.6974C499.386 94.5136 499.49 95.1628 499.698 95.6449V95.7763H498.104ZM495.581 94.6177C496.058 94.6177 496.51 94.4944 496.937 94.2479C497.364 94.0014 497.674 93.6809 497.866 93.2865V91.4623H496.674C494.812 91.4623 493.88 92.0074 493.88 93.0975C493.88 93.5741 494.039 93.9466 494.357 94.2151C494.675 94.4835 495.083 94.6177 495.581 94.6177ZM504.571 93.7138L506.773 86.8853H508.326L505.138 95.7763H503.979L500.758 86.8853H502.311L504.571 93.7138ZM515.147 95.7763C515.059 95.601 514.988 95.2888 514.933 94.8396C514.226 95.5736 513.383 95.9407 512.402 95.9407C511.526 95.9407 510.805 95.6942 510.241 95.2011C509.682 94.7026 509.403 94.0726 509.403 93.3112C509.403 92.3853 509.753 91.6677 510.455 91.1582C511.161 90.6433 512.153 90.3858 513.429 90.3858H514.908V89.6873C514.908 89.156 514.749 88.7341 514.432 88.4219C514.114 88.1042 513.646 87.9453 513.027 87.9453C512.484 87.9453 512.03 88.0822 511.662 88.3562C511.295 88.6301 511.112 88.9615 511.112 89.3504H509.584C509.584 88.9067 509.74 88.4794 510.052 88.0685C510.37 87.6522 510.797 87.3235 511.334 87.0825C511.876 86.8414 512.471 86.7209 513.117 86.7209C514.141 86.7209 514.944 86.9784 515.525 87.4933C516.105 88.0028 516.407 88.7068 516.428 89.6052V93.6974C516.428 94.5136 516.533 95.1628 516.741 95.6449V95.7763H515.147ZM512.624 94.6177C513.101 94.6177 513.552 94.4944 513.98 94.2479C514.407 94.0014 514.717 93.6809 514.908 93.2865V91.4623H513.717C511.854 91.4623 510.923 92.0074 510.923 93.0975C510.923 93.5741 511.082 93.9466 511.4 94.2151C511.717 94.4835 512.125 94.6177 512.624 94.6177ZM523.988 93.418C523.988 93.0071 523.832 92.6894 523.52 92.4648C523.213 92.2347 522.674 92.0375 521.901 91.8731C521.134 91.7088 520.523 91.5116 520.069 91.2815C519.62 91.0514 519.285 90.7775 519.066 90.4598C518.853 90.142 518.746 89.764 518.746 89.3258C518.746 88.5972 519.053 87.9809 519.666 87.4769C520.285 86.9729 521.074 86.7209 522.033 86.7209C523.041 86.7209 523.857 86.9811 524.481 87.5016C525.111 88.022 525.426 88.6876 525.426 89.4984H523.898C523.898 89.082 523.72 88.7232 523.364 88.4219C523.013 88.1206 522.57 87.9699 522.033 87.9699C521.479 87.9699 521.047 88.0905 520.734 88.3315C520.422 88.5725 520.266 88.8875 520.266 89.2765C520.266 89.6435 520.411 89.9202 520.701 90.1064C520.992 90.2927 521.515 90.4707 522.271 90.6405C523.032 90.8104 523.649 91.0131 524.12 91.2486C524.591 91.4842 524.939 91.7691 525.163 92.1032C525.394 92.4319 525.509 92.8346 525.509 93.3112C525.509 94.1055 525.191 94.7437 524.555 95.2258C523.92 95.7024 523.095 95.9407 522.082 95.9407C521.37 95.9407 520.74 95.8147 520.192 95.5627C519.644 95.3107 519.214 94.9601 518.902 94.5109C518.595 94.0562 518.442 93.5659 518.442 93.04H519.962C519.989 93.5495 520.192 93.9548 520.57 94.2561C520.953 94.552 521.457 94.6999 522.082 94.6999C522.657 94.6999 523.117 94.5848 523.462 94.3548C523.813 94.1192 523.988 93.8069 523.988 93.418ZM531.055 94.6999C531.598 94.6999 532.071 94.5355 532.477 94.2068C532.882 93.8781 533.107 93.4673 533.151 92.9743H534.589C534.561 93.4837 534.386 93.9685 534.063 94.4287C533.74 94.8889 533.307 95.2559 532.764 95.5298C532.228 95.8037 531.658 95.9407 531.055 95.9407C529.845 95.9407 528.88 95.538 528.163 94.7327C527.451 93.922 527.094 92.8154 527.094 91.413V91.1582C527.094 90.2927 527.253 89.523 527.571 88.8492C527.889 88.1754 528.344 87.6522 528.935 87.2797C529.532 86.9072 530.236 86.7209 531.047 86.7209C532.044 86.7209 532.871 87.0195 533.529 87.6166C534.191 88.2137 534.545 88.9889 534.589 89.9421H533.151C533.107 89.3669 532.888 88.8958 532.493 88.5287C532.104 88.1562 531.622 87.9699 531.047 87.9699C530.275 87.9699 529.675 88.2493 529.247 88.8081C528.826 89.3614 528.615 90.1639 528.615 91.2158V91.5034C528.615 92.5278 528.826 93.3166 529.247 93.8699C529.669 94.4232 530.272 94.6999 531.055 94.6999ZM540.595 88.2493C540.365 88.211 540.116 88.1918 539.848 88.1918C538.851 88.1918 538.174 88.6164 537.818 89.4655V95.7763H536.298V86.8853H537.777L537.802 87.9124C538.3 87.1181 539.007 86.7209 539.922 86.7209C540.217 86.7209 540.442 86.7593 540.595 86.836V88.2493ZM543.652 95.7763H542.132V86.8853H543.652V95.7763ZM542.009 84.5269C542.009 84.2804 542.083 84.0722 542.231 83.9024C542.384 83.7326 542.609 83.6477 542.905 83.6477C543.2 83.6477 543.425 83.7326 543.578 83.9024C543.732 84.0722 543.808 84.2804 543.808 84.5269C543.808 84.7734 543.732 84.9789 543.578 85.1432C543.425 85.3075 543.2 85.3897 542.905 85.3897C542.609 85.3897 542.384 85.3075 542.231 85.1432C542.083 84.9789 542.009 84.7734 542.009 84.5269ZM553.603 91.4294C553.603 92.7825 553.294 93.8727 552.675 94.6999C552.056 95.5271 551.218 95.9407 550.16 95.9407C549.081 95.9407 548.232 95.5983 547.613 94.9135V99.1947H546.093V86.8853H547.482L547.555 87.8713C548.175 87.1044 549.035 86.7209 550.136 86.7209C551.204 86.7209 552.048 87.1236 552.667 87.9289C553.291 88.7341 553.603 89.8544 553.603 91.2897V91.4294ZM552.083 91.2568C552.083 90.2543 551.87 89.4627 551.442 88.8821C551.015 88.3014 550.429 88.011 549.684 88.011C548.763 88.011 548.073 88.4192 547.613 89.2354V93.4837C548.068 94.2945 548.763 94.6999 549.7 94.6999C550.429 94.6999 551.007 94.4123 551.434 93.8371C551.867 93.2564 552.083 92.3963 552.083 91.2568ZM557.605 84.7323V86.8853H559.265V88.0603H557.605V93.5741C557.605 93.9302 557.679 94.1986 557.827 94.3794C557.975 94.5547 558.227 94.6424 558.583 94.6424C558.758 94.6424 558.999 94.6095 559.306 94.5437V95.7763C558.906 95.8859 558.517 95.9407 558.139 95.9407C557.46 95.9407 556.948 95.7353 556.603 95.3244C556.258 94.9135 556.085 94.3301 556.085 93.5741V88.0603H554.466V86.8853H556.085V84.7323H557.605Z" fill="#6E7781"/>
<path d="M475.447 1.45512L473.765 10.8418L468.716 12.1365L463.667 10.8418L461.984 1.45512H475.447Z" stroke="#6E7781" stroke-width="1.34632" stroke-linecap="round" stroke-linejoin="round"/>
<path d="M464.929 4.0445H467.454V9.22337L465.771 8.57601" stroke="#6E7781" stroke-width="1.34632" stroke-linecap="round" stroke-linejoin="round"/>
<path d="M472.502 4.0445H470.399C470.287 4.0445 470.18 4.0786 470.101 4.13931C470.022 4.20001 469.978 4.28234 469.978 4.36818V6.31026C469.978 6.3961 470.022 6.47843 470.101 6.53913C470.18 6.59983 470.287 6.63394 470.399 6.63394H471.596C471.656 6.63394 471.716 6.6439 471.771 6.66312C471.826 6.68235 471.874 6.7104 471.914 6.74538C471.953 6.78036 471.983 6.82146 472 6.86589C472.017 6.91032 472.021 6.95706 472.013 7.00293L471.661 8.89969L469.978 9.22337" stroke="#6E7781" stroke-width="1.34632" stroke-linecap="round" stroke-linejoin="round"/>
<path d="M642.782 90.9364H639.972V95.7763H638.386V83.812H642.347C643.694 83.812 644.73 84.1188 645.453 84.7323C646.181 85.3459 646.546 86.2388 646.546 87.4112C646.546 88.1562 646.343 88.8054 645.938 89.3587C645.538 89.912 644.979 90.3256 644.261 90.5995L647.072 95.6777V95.7763H645.379L642.782 90.9364ZM639.972 89.6463H642.396C643.179 89.6463 643.801 89.4436 644.261 89.0382C644.727 88.6328 644.96 88.0905 644.96 87.4112C644.96 86.6716 644.738 86.1046 644.294 85.7102C643.856 85.3158 643.22 85.1158 642.388 85.1103H639.972V89.6463ZM652.216 95.9407C651.01 95.9407 650.03 95.5463 649.274 94.7574C648.518 93.9631 648.14 92.903 648.14 91.5773V91.2979C648.14 90.4159 648.307 89.6298 648.641 88.9396C648.981 88.2438 649.452 87.7015 650.054 87.3126C650.662 86.9181 651.32 86.7209 652.027 86.7209C653.182 86.7209 654.081 87.1016 654.722 87.8631C655.363 88.6246 655.683 89.7147 655.683 91.1336V91.7663H649.66C649.682 92.6428 649.937 93.3522 650.424 93.8946C650.917 94.4314 651.542 94.6999 652.298 94.6999C652.835 94.6999 653.289 94.5903 653.662 94.3712C654.034 94.1521 654.36 93.8617 654.64 93.5002L655.568 94.2233C654.823 95.3682 653.706 95.9407 652.216 95.9407ZM652.027 87.9699C651.413 87.9699 650.898 88.1945 650.482 88.6438C650.065 89.0875 649.808 89.712 649.709 90.5173H654.163V90.4022C654.119 89.6298 653.911 89.0327 653.538 88.6109C653.166 88.1836 652.662 87.9699 652.027 87.9699ZM662.939 95.7763C662.851 95.601 662.78 95.2888 662.725 94.8396C662.019 95.5736 661.175 95.9407 660.194 95.9407C659.318 95.9407 658.598 95.6942 658.033 95.2011C657.475 94.7026 657.195 94.0726 657.195 93.3112C657.195 92.3853 657.546 91.6677 658.247 91.1582C658.954 90.6433 659.945 90.3858 661.222 90.3858H662.701V89.6873C662.701 89.156 662.542 88.7341 662.224 88.4219C661.906 88.1042 661.438 87.9453 660.819 87.9453C660.277 87.9453 659.822 88.0822 659.455 88.3562C659.088 88.6301 658.904 88.9615 658.904 89.3504H657.376C657.376 88.9067 657.532 88.4794 657.844 88.0685C658.162 87.6522 658.589 87.3235 659.126 87.0825C659.669 86.8414 660.263 86.7209 660.909 86.7209C661.934 86.7209 662.736 86.9784 663.317 87.4933C663.898 88.0028 664.199 88.7068 664.221 89.6052V93.6974C664.221 94.5136 664.325 95.1628 664.533 95.6449V95.7763H662.939ZM660.416 94.6177C660.893 94.6177 661.345 94.4944 661.772 94.2479C662.199 94.0014 662.509 93.6809 662.701 93.2865V91.4623H661.509C659.647 91.4623 658.715 92.0074 658.715 93.0975C658.715 93.5741 658.874 93.9466 659.192 94.2151C659.51 94.4835 659.918 94.6177 660.416 94.6177ZM670.17 94.6999C670.713 94.6999 671.186 94.5355 671.592 94.2068C671.997 93.8781 672.222 93.4673 672.266 92.9743H673.704C673.676 93.4837 673.501 93.9685 673.178 94.4287C672.855 94.8889 672.422 95.2559 671.879 95.5298C671.343 95.8037 670.773 95.9407 670.17 95.9407C668.96 95.9407 667.995 95.538 667.278 94.7327C666.566 93.922 666.21 92.8154 666.21 91.413V91.1582C666.21 90.2927 666.368 89.523 666.686 88.8492C667.004 88.1754 667.459 87.6522 668.05 87.2797C668.647 86.9072 669.351 86.7209 670.162 86.7209C671.159 86.7209 671.986 87.0195 672.644 87.6166C673.306 88.2137 673.66 88.9889 673.704 89.9421H672.266C672.222 89.3669 672.003 88.8958 671.608 88.5287C671.219 88.1562 670.737 87.9699 670.162 87.9699C669.39 87.9699 668.79 88.2493 668.362 88.8081C667.941 89.3614 667.73 90.1639 667.73 91.2158V91.5034C667.73 92.5278 667.941 93.3166 668.362 93.8699C668.784 94.4232 669.387 94.6999 670.17 94.6999ZM677.475 84.7323V86.8853H679.135V88.0603H677.475V93.5741C677.475 93.9302 677.549 94.1986 677.697 94.3794C677.845 94.5547 678.097 94.6424 678.453 94.6424C678.629 94.6424 678.87 94.6095 679.176 94.5437V95.7763C678.776 95.8859 678.387 95.9407 678.009 95.9407C677.33 95.9407 676.818 95.7353 676.473 95.3244C676.128 94.9135 675.955 94.3301 675.955 93.5741V88.0603H674.336V86.8853H675.955V84.7323H677.475Z" fill="#6E7781"/>
<path d="M620.176 5.72534C619.184 5.72534 618.375 6.20592 618.375 6.79605C618.375 7.38618 619.184 7.86676 620.176 7.86676C621.169 7.86676 621.978 7.38618 621.978 6.79605C621.978 6.20592 621.169 5.72534 620.176 5.72534ZM615.134 8.92396L614.736 8.86544C611.778 8.41974 610.079 7.66567 610.079 6.79417C610.079 5.92267 611.778 5.1686 614.736 4.72291L615.134 4.66438L615.246 4.89886C615.546 5.513 615.93 6.11161 616.393 6.68875L616.478 6.79417L616.393 6.90147C615.929 7.47836 615.545 8.07702 615.246 8.69136L615.134 8.92396ZM614.553 5.26989C612.304 5.64505 610.924 6.2213 610.924 6.79417C610.924 7.36704 612.305 7.94104 614.553 8.31845C614.828 7.79797 615.161 7.28878 615.549 6.79417C615.16 6.2997 614.828 5.79049 614.553 5.26989V5.26989ZM625.219 8.92396L625.107 8.68949C624.807 8.07584 624.424 7.47783 623.96 6.90147L623.875 6.79417L623.96 6.68687C624.424 6.10998 624.808 5.51133 625.107 4.89698L625.219 4.66438L625.616 4.72291C628.575 5.1686 630.274 5.92267 630.274 6.79417C630.274 7.66567 628.574 8.41974 625.616 8.86544L625.219 8.92396ZM624.804 6.79417C625.193 7.28845 625.526 7.79769 625.8 8.31845C628.052 7.94141 629.429 7.36704 629.429 6.79417C629.429 6.2213 628.048 5.6473 625.8 5.26989C625.524 5.79024 625.191 6.2994 624.804 6.79417ZM614.546 5.26802L614.434 5.03354C613.602 3.29054 613.855 2.04013 615.128 1.60419C616.377 1.17613 618.378 1.68222 620.479 2.96415L620.765 3.13823L620.479 3.3123C619.733 3.77361 619.051 4.27021 618.441 4.79719L618.326 4.89285L618.129 4.90261C617.055 4.95299 615.99 5.055 614.943 5.20761L614.546 5.26802ZM616.143 1.95234C615.917 1.95234 615.716 1.97973 615.548 2.03825C614.713 2.32563 614.565 3.32205 615.14 4.66626C616.037 4.54697 616.947 4.46275 617.862 4.41415C618.389 3.96785 618.966 3.54286 619.588 3.14198C618.276 2.3819 617.034 1.95197 616.143 1.95197V1.95234ZM624.213 12.1361C624.21 12.1361 624.21 12.1361 624.213 12.1361C623.013 12.1361 621.471 11.6007 619.874 10.6238L619.588 10.4497L619.874 10.2757C620.62 9.81436 621.301 9.31776 621.912 8.79078L622.024 8.69511L622.221 8.68348C623.296 8.63479 624.363 8.53277 625.409 8.37848L625.807 8.31995L625.919 8.55443C626.75 10.2974 626.497 11.546 625.225 11.9815C624.917 12.0866 624.568 12.1399 624.213 12.1357V12.1361ZM620.765 10.446C622.076 11.2061 623.319 11.636 624.209 11.636H624.212C624.436 11.636 624.636 11.6067 624.804 11.5501C625.639 11.2627 625.791 10.2663 625.212 8.92208C624.315 9.0415 623.406 9.12509 622.49 9.17232C621.963 9.61922 621.386 10.0448 620.765 10.4464V10.446ZM625.807 5.26802L625.409 5.20761C624.362 5.0555 623.296 4.95351 622.221 4.90261L622.024 4.89285L621.912 4.79719C621.301 4.27021 620.62 3.77361 619.874 3.3123L619.588 3.13823L619.874 2.96415C621.974 1.68222 623.976 1.17613 625.225 1.60419C626.497 2.03975 626.75 3.29054 625.919 5.03354L625.807 5.26802ZM622.491 4.41415C623.406 4.46262 624.315 4.54684 625.212 4.66626C625.791 3.32205 625.64 2.32525 624.805 2.03825C623.973 1.75313 622.409 2.19057 620.765 3.14235C621.385 3.54409 621.962 3.96902 622.491 4.41452V4.41415ZM616.143 12.1361C615.788 12.1398 615.436 12.0873 615.128 11.9819C613.855 11.5463 613.602 10.2974 614.434 8.5548L614.546 8.32033L614.943 8.37885C615.917 8.52554 616.988 8.62683 618.129 8.68386L618.326 8.69549L618.438 8.79115C619.048 9.31814 619.73 9.81474 620.476 10.276L620.761 10.4501L620.476 10.6242C618.881 11.6011 617.34 12.1365 616.143 12.1365V12.1361ZM615.141 8.92208C614.562 10.2663 614.714 11.2631 615.549 11.5501C616.38 11.8315 617.942 11.3978 619.588 10.446C618.966 10.0445 618.39 9.61885 617.863 9.17194C616.947 9.12486 616.038 9.04126 615.141 8.92171V8.92208ZM620.176 9.23647C619.483 9.23647 618.773 9.21884 618.06 9.18357L617.862 9.17382L617.747 9.07628C617.345 8.73221 616.966 8.37825 616.613 8.01532C616.26 7.65238 615.932 7.28077 615.631 6.90147L615.545 6.79417L615.631 6.68687C616.234 5.92844 616.942 5.20102 617.747 4.51207L617.862 4.41452L618.06 4.40477C619.468 4.33424 620.884 4.33424 622.293 4.40477L622.491 4.41452L622.605 4.51207C623.412 5.20062 624.12 5.9281 624.722 6.68687L624.807 6.79417L624.722 6.90147C624.121 7.66062 623.413 8.38815 622.605 9.07628L622.491 9.17382L622.293 9.18357C621.589 9.2186 620.883 9.23624 620.176 9.23647V9.23647ZM618.329 8.69324C619.572 8.74989 620.781 8.74989 622.027 8.69324C622.721 8.08844 623.339 7.45351 623.874 6.7938C623.341 6.13299 622.723 5.49791 622.024 4.89435C620.794 4.8377 619.559 4.8377 618.329 4.89435C617.63 5.49773 617.011 6.13283 616.479 6.7938C617.014 7.45384 617.633 8.08881 618.329 8.69324V8.69324Z" fill="#6E7781"/>
<path d="M757.528 86.8853V96.8035C757.528 98.5127 756.753 99.3673 755.202 99.3673C754.868 99.3673 754.559 99.318 754.274 99.2194V98.0032C754.449 98.047 754.679 98.069 754.964 98.069C755.304 98.069 755.561 97.9758 755.736 97.7896C755.917 97.6088 756.008 97.2911 756.008 96.8364V86.8853H757.528ZM755.851 84.5269C755.851 84.2859 755.925 84.0804 756.073 83.9106C756.227 83.7353 756.449 83.6477 756.739 83.6477C757.035 83.6477 757.259 83.7326 757.413 83.9024C757.566 84.0722 757.643 84.2804 757.643 84.5269C757.643 84.7734 757.566 84.9789 757.413 85.1432C757.259 85.3075 757.035 85.3897 756.739 85.3897C756.443 85.3897 756.221 85.3075 756.073 85.1432C755.925 84.9789 755.851 84.7734 755.851 84.5269ZM769.361 90.1804C769.361 91.3363 769.177 92.3333 768.81 93.1715C768.443 94.0041 767.928 94.6561 767.265 95.1272L769.402 96.8035L768.325 97.7978L765.803 95.7928C765.408 95.8914 764.992 95.9407 764.554 95.9407C763.611 95.9407 762.776 95.7106 762.047 95.2504C761.319 94.7848 760.752 94.1247 760.346 93.2701C759.946 92.41 759.741 91.4157 759.73 90.2872V89.4244C759.73 88.274 759.93 87.2578 760.33 86.3758C760.73 85.4938 761.294 84.82 762.023 84.3543C762.757 83.8832 763.595 83.6477 764.537 83.6477C765.501 83.6477 766.348 83.8805 767.076 84.3461C767.81 84.8118 768.375 85.4828 768.769 86.3594C769.163 87.2304 769.361 88.2493 769.361 89.4162V90.1804ZM767.783 89.408C767.783 88.0001 767.501 86.9154 766.937 86.1539C766.378 85.387 765.578 85.0035 764.537 85.0035C763.546 85.0035 762.762 85.3842 762.187 86.1457C761.617 86.9017 761.324 87.9535 761.308 89.3011V90.1804C761.308 91.5499 761.593 92.6291 762.162 93.418C762.738 94.2068 763.535 94.6013 764.554 94.6013C765.572 94.6013 766.361 94.2315 766.92 93.4919C767.479 92.7469 767.766 91.6814 767.783 90.2954V89.408ZM777.044 94.8971C776.452 95.5928 775.584 95.9407 774.439 95.9407C773.491 95.9407 772.768 95.6668 772.27 95.119C771.777 94.5657 771.527 93.7494 771.522 92.6702V86.8853H773.042V92.6291C773.042 93.9768 773.59 94.6506 774.685 94.6506C775.847 94.6506 776.619 94.2178 777.003 93.3522V86.8853H778.523V95.7763H777.077L777.044 94.8971ZM784.53 95.9407C783.324 95.9407 782.344 95.5463 781.588 94.7574C780.832 93.9631 780.454 92.903 780.454 91.5773V91.2979C780.454 90.4159 780.621 89.6298 780.955 88.9396C781.295 88.2438 781.766 87.7015 782.369 87.3126C782.977 86.9181 783.634 86.7209 784.341 86.7209C785.497 86.7209 786.395 87.1016 787.036 87.8631C787.677 88.6246 787.997 89.7147 787.997 91.1336V91.7663H781.974C781.996 92.6428 782.251 93.3522 782.738 93.8946C783.231 94.4314 783.856 94.6999 784.612 94.6999C785.149 94.6999 785.603 94.5903 785.976 94.3712C786.348 94.1521 786.674 93.8617 786.954 93.5002L787.882 94.2233C787.137 95.3682 786.02 95.9407 784.53 95.9407ZM784.341 87.9699C783.727 87.9699 783.212 88.1945 782.796 88.6438C782.38 89.0875 782.122 89.712 782.023 90.5173H786.477V90.4022C786.433 89.6298 786.225 89.0327 785.853 88.6109C785.48 88.1836 784.976 87.9699 784.341 87.9699ZM794.062 88.2493C793.832 88.211 793.582 88.1918 793.314 88.1918C792.317 88.1918 791.64 88.6164 791.284 89.4655V95.7763H789.764V86.8853H791.243L791.268 87.9124C791.766 87.1181 792.473 86.7209 793.388 86.7209C793.684 86.7209 793.908 86.7593 794.062 86.836V88.2493ZM798.524 93.5495L800.594 86.8853H802.221L798.647 97.1486C798.094 98.6277 797.214 99.3673 796.009 99.3673L795.722 99.3426L795.155 99.2358V98.0032L795.565 98.0361C796.08 98.0361 796.48 97.932 796.765 97.7238C797.056 97.5157 797.294 97.1349 797.48 96.5816L797.817 95.6777L794.645 86.8853H796.305L798.524 93.5495Z" fill="#6E7781"/>
<path d="M732.317 3.9646C730.826 5.37534 731.012 7.21063 732.15 8.70992C732.177 8.74552 732.204 8.78113 732.233 8.81673C732.251 8.83898 732.268 8.86212 732.288 8.88393C732.298 8.89728 732.31 8.91018 732.321 8.92264L732.38 8.99385L732.488 9.11623C732.508 9.13848 732.529 9.16118 732.55 9.18343C732.591 9.22704 732.633 9.27036 732.676 9.31338C732.694 9.33207 732.711 9.34898 732.73 9.36767C732.79 9.42597 732.85 9.48427 732.913 9.54123L732.918 9.54568C732.927 9.55503 732.939 9.56393 732.949 9.57327C733.003 9.62223 733.057 9.67118 733.115 9.71924L733.178 9.77175C733.228 9.81359 733.28 9.85512 733.332 9.89636L733.391 9.94264C733.46 9.99694 733.532 10.0495 733.607 10.1037L733.611 10.1064L733.619 10.1122C733.691 10.1634 733.764 10.2137 733.835 10.2635L733.905 10.3098C733.985 10.3631 734.067 10.4153 734.151 10.4664C734.229 10.5154 734.309 10.563 734.39 10.6089C734.391 10.6097 734.392 10.6106 734.394 10.6111L734.435 10.6342C734.508 10.6749 734.58 10.7151 734.652 10.7548L734.742 10.802C734.801 10.8334 734.861 10.8644 734.922 10.895L735.019 10.9435C735.085 10.976 735.153 11.008 735.221 11.0387L735.296 11.0743L735.316 11.0841C735.381 11.1135 735.447 11.142 735.512 11.17C735.541 11.1825 735.567 11.1954 735.598 11.2056C735.699 11.2475 735.802 11.2897 735.906 11.3298L735.991 11.3614C736.067 11.3908 736.144 11.4192 736.222 11.4468C736.264 11.462 736.307 11.4762 736.35 11.4904C736.404 11.5096 736.458 11.5287 736.515 11.547L736.554 11.559L736.621 11.5808C736.708 11.6081 736.795 11.6348 736.883 11.6609L736.937 11.6774C737.038 11.7064 737.14 11.7345 737.244 11.7615L737.318 11.7806C737.413 11.8046 737.51 11.8287 737.606 11.8518L737.643 11.8598C737.751 11.8843 737.859 11.907 737.967 11.9292L738.045 11.9444C738.131 11.9648 738.242 11.9862 738.356 12.0031L738.377 12.0058C745.585 12.8714 747.679 9.15317 747.679 9.15317C745.92 10.6618 742.799 11.0601 739.841 10.6169C739.729 10.5999 739.621 10.5773 739.51 10.5559L739.428 10.5394C739.32 10.5178 739.214 10.4951 739.11 10.4713L739.066 10.4611C738.973 10.4393 738.879 10.4164 738.787 10.3926L738.708 10.3721C738.607 10.3458 738.506 10.3178 738.406 10.2893L738.345 10.2715C738.259 10.2457 738.174 10.2203 738.089 10.1936L738.016 10.1701C737.95 10.1486 737.884 10.1265 737.819 10.1037C737.775 10.0886 737.73 10.0744 737.687 10.0584C737.607 10.0303 737.529 10.0005 737.45 9.97068L737.371 9.94131C737.267 9.90126 737.164 9.85898 737.062 9.81715C737.034 9.80558 737.008 9.79312 736.979 9.78155C736.906 9.75039 736.832 9.71835 736.76 9.68542C736.736 9.67518 736.712 9.66317 736.689 9.65249C736.619 9.62015 736.55 9.58722 736.481 9.55369L736.389 9.50785C736.327 9.47626 736.264 9.44466 736.202 9.41128L736.119 9.36723C736.041 9.3245 735.963 9.28223 735.886 9.23817L735.86 9.22393C735.778 9.17586 735.698 9.12691 735.616 9.07707L735.547 9.03346C735.487 8.99607 735.428 8.95825 735.371 8.91997L735.302 8.87458C735.23 8.82503 735.158 8.77489 735.086 8.72416L735.075 8.7166C735.001 8.66269 734.928 8.60794 734.856 8.55238L734.8 8.50699C734.746 8.46521 734.694 8.42247 734.643 8.37882C734.623 8.36338 734.604 8.34766 734.585 8.33165C734.523 8.27869 734.462 8.22484 734.402 8.17233C732.76 6.69751 732.171 4.66285 733.483 2.99222L732.317 3.9646Z" fill="#6E7781"/>
<path d="M736.943 2.77551C736.41 3.32264 736.128 3.95942 736.131 4.60947C736.129 5.18772 736.352 5.75664 736.778 6.2623L736.764 6.24494C736.923 6.44832 737.081 6.6201 737.256 6.78342L737.241 6.76918C737.406 6.94141 737.589 7.09094 737.795 7.22489L737.795 7.22533C737.873 7.28141 737.954 7.33659 738.037 7.39044L738.101 7.43227C738.181 7.48345 738.263 7.53418 738.348 7.58314C738.352 7.58492 738.355 7.58759 738.358 7.58892C738.452 7.64321 738.549 7.69573 738.647 7.74602L738.712 7.77984C738.811 7.82968 738.911 7.87863 739.014 7.92492L739.022 7.92937C739.068 7.94984 739.114 7.96942 739.16 7.989C739.183 7.99879 739.204 8.00858 739.226 8.01748C739.3 8.04863 739.374 8.0789 739.45 8.10782L739.481 8.11984C739.546 8.14476 739.612 8.16879 739.679 8.19104C739.702 8.1995 739.725 8.20706 739.749 8.21507L739.887 8.26225L739.908 8.26848C740.003 8.29963 740.098 8.329 740.196 8.35704C740.217 8.36327 740.238 8.36861 740.26 8.37439C740.337 8.3962 740.417 8.41756 740.496 8.43759L740.597 8.46206C740.669 8.47942 740.742 8.49589 740.814 8.51191L740.912 8.53238C740.997 8.55374 741.102 8.57421 741.21 8.59023L741.227 8.59201C746.791 9.19947 748.076 6.37711 748.076 6.37711C746.918 7.47544 744.675 7.99968 742.283 7.5907C742.145 7.5669 742.008 7.54003 741.873 7.51015C741.799 7.49457 741.726 7.47722 741.653 7.45986L741.554 7.43583C741.474 7.4155 741.395 7.39443 741.316 7.37264C741.295 7.36641 741.273 7.36107 741.253 7.35484C741.155 7.32684 741.058 7.29732 740.962 7.26628C740.913 7.25026 740.865 7.23334 740.817 7.21732L740.733 7.18884C740.671 7.16659 740.61 7.14375 740.549 7.12031L740.505 7.10384C740.43 7.07477 740.355 7.0448 740.282 7.01395L740.215 6.98457C740.166 6.9641 740.118 6.94274 740.07 6.92138C739.968 6.87468 739.868 6.8263 739.77 6.7763L739.702 6.7407C738.651 6.20233 737.866 5.47093 737.445 4.63884L737.432 4.60769C737.263 4.27405 737.178 3.92461 737.18 3.573C737.18 2.97755 737.418 2.4186 737.837 1.93575L737.824 1.95221L736.943 2.77551Z" fill="#6E7781"/>
<path d="M740.834 1.88723C740.478 2.23723 740.289 2.64928 740.291 3.07055C740.291 3.38875 740.396 3.69047 740.585 3.96149L740.577 3.94814C740.816 4.30309 741.16 4.62306 741.59 4.88929C742.019 5.15552 742.524 5.36267 743.077 5.4986L743.107 5.50528C743.153 5.51685 743.198 5.52664 743.245 5.53688L743.306 5.54934C743.359 5.56224 743.425 5.57515 743.493 5.58538L743.504 5.58672C746.577 5.97834 747.41 4.54803 747.633 4.33798C746.902 5.03044 745.676 5.19643 744.17 4.95612C744.047 4.93546 743.926 4.91065 743.806 4.8818C743.65 4.8457 743.497 4.80365 743.348 4.75586L743.374 4.76342C743.103 4.67734 742.846 4.57342 742.606 4.45324L742.617 4.45858C741.27 3.78526 740.433 2.50048 741.312 1.45512L740.834 1.88723Z" fill="#6E7781"/>
<path d="M798.277 312.686V320.821C798.272 321.949 797.916 322.872 797.209 323.59C796.508 324.308 795.555 324.71 794.349 324.798L793.93 324.814C792.621 324.814 791.577 324.461 790.8 323.754C790.022 323.048 789.627 322.075 789.616 320.837V312.686H791.178V320.788C791.178 321.653 791.416 322.327 791.892 322.809C792.369 323.286 793.048 323.524 793.93 323.524C794.823 323.524 795.505 323.286 795.976 322.809C796.453 322.333 796.691 321.662 796.691 320.796V312.686H798.277ZM804.67 317.271L807.538 312.686H809.395L805.615 318.619L809.486 324.65H807.612L804.67 319.983L801.712 324.65H799.847L803.725 318.619L799.937 312.686H801.786L804.67 317.271Z" fill="#6E7781"/>
<path d="M769.718 154.984L771.2 154.713L780.122 148.983C780.192 148.937 780.232 148.876 780.231 148.812C780.231 148.748 780.191 148.686 780.12 148.641L779.585 148.298C779.551 148.276 779.509 148.258 779.464 148.245C779.418 148.233 779.369 148.227 779.32 148.227C779.27 148.226 779.221 148.233 779.176 148.245C779.13 148.257 779.088 148.274 779.053 148.297L770.155 154.012L769.718 154.984L769.718 154.984ZM780.643 147.619L781.177 147.962C781.914 148.436 781.921 149.2 781.191 149.669L771.997 155.574L768.83 156.153C768.636 156.188 768.429 156.172 768.254 156.11C768.079 156.047 767.95 155.943 767.896 155.821C767.855 155.732 767.855 155.639 767.894 155.55L768.815 153.5L777.985 147.61C778.159 147.498 778.367 147.41 778.595 147.35C778.824 147.29 779.069 147.26 779.317 147.26C779.564 147.261 779.809 147.293 780.036 147.355C780.264 147.416 780.47 147.506 780.643 147.618V147.619ZM770.95 148.235C771.368 148.235 771.706 148.452 771.706 148.72C771.707 148.783 771.688 148.846 771.65 148.905C771.612 148.964 771.557 149.017 771.487 149.062C771.416 149.107 771.333 149.143 771.241 149.168C771.149 149.192 771.05 149.205 770.95 149.205H767.928C767.093 149.205 766.417 149.64 766.417 150.176V156C766.417 156.536 767.093 156.971 767.928 156.971H776.995C777.83 156.971 778.507 156.536 778.507 156V154.059C778.507 153.791 778.846 153.573 779.263 153.573C779.68 153.573 780.019 153.791 780.019 154.059V156C780.019 157.072 778.665 157.942 776.995 157.942H767.928C766.258 157.942 764.905 157.072 764.905 156V150.176C764.905 149.104 766.258 148.235 767.928 148.235H770.95V148.235Z" fill="#6E7781"/>
<path d="M707.401 312.686V320.821C707.395 321.949 707.039 322.872 706.333 323.59C705.631 324.308 704.678 324.71 703.473 324.798L703.054 324.814C701.745 324.814 700.701 324.461 699.923 323.754C699.145 323.048 698.751 322.075 698.74 320.837V312.686H700.301V320.788C700.301 321.653 700.539 322.327 701.016 322.809C701.493 323.286 702.172 323.524 703.054 323.524C703.947 323.524 704.629 323.286 705.1 322.809C705.577 322.333 705.815 321.662 705.815 320.796V312.686H707.401ZM711.583 324.65H710.006V312.686H711.583V324.65Z" fill="#6E7781"/>
<path d="M688.581 151.646L690.858 150.174L686.965 147.658L684.688 149.13L688.581 151.646ZM683.384 149.966L674.947 155.426V157.942H678.84L687.277 152.488L683.384 149.966V149.966ZM688.719 155.865C688.719 157.164 686.387 157.942 684.128 157.942C683.687 157.942 683.21 157.9 683.21 157.9V156.696C683.21 156.696 683.632 156.755 684.128 156.755C685.542 156.755 686.882 156.322 686.882 155.865C686.882 155.586 686.442 155.349 685.753 155.153L687.112 154.275C688.094 154.648 688.719 155.147 688.719 155.865ZM675.479 153.402C674.589 153.07 674.029 152.637 674.029 152.008C674.029 150.94 675.764 150.447 677.297 150.014C678.243 149.741 679.537 149.373 679.537 149.041C679.537 148.797 678.821 148.447 677.701 148.447C676.563 148.447 675.865 148.809 675.865 149.041H674.029C674.029 148.062 675.59 147.26 677.701 147.26C679.758 147.26 681.374 148.044 681.374 149.041C681.374 150.15 679.602 150.655 678.032 151.1C677.169 151.343 675.865 151.711 675.865 152.008C675.865 152.192 676.26 152.364 676.847 152.518L675.479 153.402Z" fill="#6E7781"/>
</svg>
