<svg width="89" height="21" viewBox="0 0 89 21" fill="none" xmlns="http://www.w3.org/2000/svg">
<rect x="0.984375" y="0.229004" width="87.5105" height="20.1947" rx="3.36579" fill="#F3DF4F"/>
<path d="M10.4769 14.7098C10.569 14.0388 10.6246 13.2661 10.6438 12.3917C10.6629 11.5136 10.6879 10.622 10.7185 9.71702C10.753 8.80819 10.8336 7.95113 10.9601 7.14584C10.9601 7.09216 11.0215 7.01546 11.1442 6.91576C11.2707 6.81606 11.3762 6.7662 11.4605 6.7662H14.141C13.8649 7.93579 13.6904 8.87722 13.6176 9.59048C13.5447 10.3037 13.4872 10.8674 13.445 11.2816C13.4028 11.6957 13.3626 12.0409 13.3242 12.317C13.2859 12.5931 13.2264 12.8634 13.1459 13.128C13.0654 13.3888 12.9638 13.6016 12.841 13.7665C12.7183 13.9275 12.5515 14.0771 12.3406 14.2152C11.9725 14.4606 11.3513 14.6255 10.4769 14.7098ZM8.1416 12.5758C8.1531 12.5183 8.21829 12.4416 8.33717 12.3457C8.45988 12.246 8.5615 12.1962 8.64203 12.1962C8.80692 12.6525 8.99866 13.0398 9.21724 13.3581C9.43965 13.6764 9.72342 13.9506 10.0685 14.1806C10.057 14.3839 10.0225 14.5603 9.96501 14.7098C9.27859 14.7098 8.59218 14.5641 7.90576 14.2727C7.91727 13.7742 7.99588 13.2085 8.1416 12.5758ZM22.0789 14.3647C21.3311 14.5258 20.5277 14.6063 19.6688 14.6063C19.4732 14.3417 19.3754 14.0637 19.3754 13.7722C19.3754 13.4808 19.4617 12.7426 19.6343 11.5577C19.8068 10.3689 19.895 9.57897 19.8989 9.18783C19.8989 9.13798 19.9621 9.0632 20.0887 8.9635C20.2152 8.8638 20.3207 8.81395 20.405 8.81395C21.2257 8.81395 21.9984 8.92323 22.7231 9.14181C22.7078 9.26452 22.6062 9.75345 22.4183 10.6086C22.2304 11.4599 22.1364 12.1444 22.1364 12.6621C22.1364 13.1759 22.2745 13.5709 22.5506 13.847C22.5506 13.9007 22.4969 13.9908 22.3895 14.1174C22.2821 14.2401 22.1786 14.3225 22.0789 14.3647ZM19.4157 8.73342C18.9593 9.07087 18.6123 9.52912 18.3746 10.1082C18.1406 10.6872 18.0237 11.2567 18.0237 11.8165C18.0237 12.3726 18.085 12.873 18.2077 13.3178C18.3343 13.7588 18.503 14.0541 18.7139 14.2036C18.7139 14.2612 18.6526 14.3417 18.5299 14.4452C18.4071 14.5449 18.3017 14.5948 18.2135 14.5948C17.3353 14.5948 16.6298 14.3743 16.0967 13.9333C15.5675 13.4923 15.3029 12.8903 15.3029 12.1271C15.3029 11.18 15.6615 10.3843 16.3786 9.74003C16.7237 9.42942 17.157 9.184 17.6785 9.00376C18.2039 8.82353 18.7829 8.73342 19.4157 8.73342ZM28.5442 9.22234C28.5442 9.17249 28.6094 9.09771 28.7398 8.99801C28.874 8.89447 28.9871 8.84271 29.0792 8.84271H30.5862C30.1874 9.43325 29.6985 10.204 29.1194 11.155C29.0888 11.2011 28.9967 11.2528 28.8433 11.3103C28.6938 11.3679 28.5711 11.3966 28.4752 11.3966C28.5941 10.9748 28.6535 10.5683 28.6535 10.1772C28.6535 9.78605 28.6171 9.46777 28.5442 9.22234ZM25.4324 14.5948C25.1869 13.2948 24.6865 11.5002 23.9311 9.21084C23.9311 9.15715 23.9943 9.08046 24.1209 8.98076C24.2513 8.88105 24.3644 8.8312 24.4603 8.8312H26.9279C27.0008 9.46393 27.1139 10.0564 27.2673 10.6086C27.551 11.6516 27.8482 12.1732 28.1588 12.1732C28.2969 12.1732 28.4062 12.1578 28.4867 12.1271C28.5711 12.0926 28.6209 12.0735 28.6363 12.0696C28.5174 12.292 28.3295 12.7043 28.0726 13.3063C27.8195 13.9084 27.6853 14.2267 27.6699 14.2612C27.6546 14.2918 27.5913 14.3551 27.4801 14.451C27.3689 14.5469 27.2692 14.5948 27.181 14.5948H25.4324ZM37.8051 14.3647C37.0573 14.5258 36.2539 14.6063 35.395 14.6063C35.1994 14.3417 35.1016 14.0637 35.1016 13.7722C35.1016 13.4808 35.1879 12.7426 35.3604 11.5577C35.533 10.3689 35.6212 9.57897 35.625 9.18783C35.625 9.13798 35.6883 9.0632 35.8149 8.9635C35.9414 8.8638 36.0469 8.81395 36.1312 8.81395C36.9519 8.81395 37.7246 8.92323 38.4493 9.14181C38.434 9.26452 38.3324 9.75345 38.1445 10.6086C37.9566 11.4599 37.8626 12.1444 37.8626 12.6621C37.8626 13.1759 38.0007 13.5709 38.2768 13.847C38.2768 13.9007 38.2231 13.9908 38.1157 14.1174C38.0083 14.2401 37.9048 14.3225 37.8051 14.3647ZM35.1419 8.73342C34.6855 9.07087 34.3385 9.52912 34.1007 10.1082C33.8668 10.6872 33.7499 11.2567 33.7499 11.8165C33.7499 12.3726 33.8112 12.873 33.9339 13.3178C34.0605 13.7588 34.2292 14.0541 34.4401 14.2036C34.4401 14.2612 34.3788 14.3417 34.256 14.4452C34.1333 14.5449 34.0279 14.5948 33.9397 14.5948C33.0615 14.5948 32.3559 14.3743 31.8229 13.9333C31.2937 13.4923 31.0291 12.8903 31.0291 12.1271C31.0291 11.18 31.3877 10.3843 32.1048 9.74003C32.4499 9.42942 32.8832 9.184 33.4047 9.00376C33.9301 8.82353 34.5091 8.73342 35.1419 8.73342ZM42.9762 8.68165C42.7576 8.88872 42.6483 9.1073 42.6483 9.33738C42.6483 9.87425 43.0567 10.4303 43.8735 11.0055C44.2417 11.2662 44.5293 11.4887 44.7363 11.6727C45.2003 12.0869 45.4323 12.5375 45.4323 13.0245C45.4323 13.5076 45.1888 13.8988 44.7018 14.1979C44.2187 14.4932 43.5399 14.6408 42.6656 14.6408C42.7653 14.4184 42.8151 14.2171 42.8151 14.0368C42.8151 13.8566 42.7634 13.6821 42.6598 13.5134C42.5601 13.3408 42.4298 13.1836 42.2687 13.0417C42.1076 12.8998 41.9293 12.758 41.7338 12.6161C41.5382 12.4704 41.3426 12.3227 41.147 12.1732C40.9515 12.0236 40.7732 11.8702 40.6121 11.713C40.2478 11.3564 40.0657 10.971 40.0657 10.5568C40.0657 10.1005 40.2344 9.72853 40.5718 9.44092C41.1509 8.95391 41.9523 8.70082 42.9762 8.68165ZM43.8678 8.6989C44.4085 8.6989 44.8725 8.80628 45.2598 9.02102C45.6471 9.23193 45.8407 9.49077 45.8407 9.79755C45.8407 10.2731 45.3959 10.5645 44.5063 10.6719C44.5139 10.645 44.5178 10.6028 44.5178 10.5453C44.5178 10.2539 44.4257 9.98545 44.2417 9.74003C44.0576 9.49077 43.8007 9.29137 43.4709 9.14181C43.4709 9.08046 43.5131 8.99609 43.5974 8.88872C43.6818 8.78135 43.7719 8.71808 43.8678 8.6989ZM41.659 14.6178C41.4672 14.6331 41.3254 14.6408 41.2333 14.6408C40.6773 14.6408 40.2152 14.5507 39.8471 14.3705C39.4789 14.1864 39.2949 13.9486 39.2949 13.6572C39.2949 13.0705 39.7378 12.7004 40.6236 12.547C40.5929 12.7119 40.5795 12.8577 40.5833 12.9842C40.591 13.1069 40.6332 13.2296 40.7099 13.3523C40.7904 13.4712 40.9016 13.5786 41.0435 13.6745C41.2966 13.8432 41.611 13.9985 41.9868 14.1404C41.9868 14.1979 41.9504 14.2842 41.8776 14.3992C41.8085 14.5104 41.7357 14.5833 41.659 14.6178ZM52.0242 8.90598C52.4652 8.99801 52.818 9.19742 53.0826 9.5042C53.351 9.81097 53.4853 10.1197 53.4853 10.4303C53.4853 10.7371 53.3491 10.9652 53.0769 11.1148C52.8046 11.2605 52.5323 11.3334 52.2601 11.3334C51.9878 11.3334 51.7155 11.2816 51.4433 11.1781C51.4701 10.8176 51.4835 10.4897 51.4835 10.1944C51.4835 9.89534 51.4586 9.59048 51.4088 9.27986C51.4203 9.1955 51.497 9.11305 51.6388 9.03252C51.7846 8.94816 51.913 8.90598 52.0242 8.90598ZM51.0521 8.75067C50.6533 9.05745 50.3216 9.47352 50.057 9.99887C49.7963 10.5242 49.6659 11.0247 49.6659 11.5002C49.6659 11.9757 49.7234 12.3553 49.8384 12.6391C49.9535 12.9228 50.1165 13.151 50.3274 13.3236C50.7453 13.6649 51.288 13.8355 51.9552 13.8355C52.2927 13.8355 52.6531 13.7914 53.0366 13.7032C52.7183 14.0829 52.331 14.3436 51.8747 14.4855C51.4183 14.6274 50.8527 14.6983 50.1778 14.6983C49.5029 14.6983 48.92 14.5967 48.4292 14.3935C47.9422 14.1902 47.551 13.8777 47.2558 13.4559C46.9605 13.0341 46.8128 12.5202 46.8128 11.9143C46.8128 11.3046 46.9701 10.7486 47.2845 10.2462C47.599 9.74003 48.0189 9.35081 48.5442 9.07854C49.0696 8.80628 49.6486 8.67014 50.2813 8.67014C50.4846 8.67014 50.7415 8.69699 51.0521 8.75067ZM60.1922 8.73342C60.6293 8.73342 60.8479 9.0076 60.8479 9.55596C60.8479 9.89725 60.7885 10.2385 60.6696 10.5798C60.5507 10.9173 60.4012 11.1761 60.2209 11.3564C59.9679 11.18 59.6553 11.0342 59.2834 10.9192C58.9152 10.8003 58.5624 10.7351 58.225 10.7236C58.2556 10.5127 58.317 10.2884 58.409 10.0506C59.0264 9.17249 59.6208 8.73342 60.1922 8.73342ZM56.7467 14.5948H54.3366C54.7277 12.9228 55.0038 11.1493 55.1649 9.27411C55.1649 9.23193 55.2262 9.1629 55.3489 9.06704C55.4755 8.97117 55.6039 8.91173 55.7343 8.88872C55.8685 8.86571 56.2117 8.83504 56.7639 8.79669C57.32 8.75451 57.7456 8.73342 58.0409 8.73342C57.6613 10.6316 57.3967 12.4588 57.2471 14.2152C57.2471 14.265 57.1858 14.3417 57.0631 14.4452C56.9403 14.5449 56.8349 14.5948 56.7467 14.5948ZM61.3771 14.5948C61.7107 13.1836 61.9657 11.4043 62.1421 9.25686C62.1421 9.207 62.2054 9.13223 62.332 9.03252C62.4585 8.93282 62.564 8.88297 62.6483 8.88297H65.0584C64.7248 10.3172 64.4698 12.0945 64.2934 14.2152C64.2934 14.265 64.2321 14.3417 64.1094 14.4452C63.9866 14.5449 63.8812 14.5948 63.793 14.5948H61.3771ZM64.7363 8.10644H62.332C62.4048 7.81117 62.4528 7.52164 62.4758 7.23787C62.4758 7.18419 62.5371 7.10749 62.6598 7.00779C62.7825 6.90425 62.888 6.85249 62.9762 6.85249H65.3921C65.3422 7.03272 65.2904 7.32416 65.2368 7.7268C65.2368 7.78049 65.1754 7.85718 65.0527 7.95688C64.9338 8.05659 64.8284 8.10644 64.7363 8.10644ZM66.019 17.0049C66.6096 14.2439 66.9988 11.6631 67.1867 9.26261C67.1867 9.21659 67.2481 9.14565 67.3708 9.04978C67.4935 8.95008 67.6335 8.89256 67.7907 8.87722C67.9479 8.86188 68.3026 8.83887 68.8548 8.80819C69.4109 8.77368 69.8097 8.75642 70.0513 8.75642C69.6333 10.5664 69.2632 13.1913 68.9411 16.631C68.9411 16.6809 68.8778 16.7557 68.7513 16.8554C68.6286 16.9551 68.525 17.0049 68.4407 17.0049H66.019ZM69.8557 14.5948C70.1471 14.4107 70.3983 14.127 70.6092 13.7435C71.0003 13.0264 71.1959 12.2288 71.1959 11.3506C71.1959 10.4725 70.9888 9.72853 70.5747 9.11881C70.5747 9.06128 70.6341 8.98267 70.753 8.88297C70.8719 8.78327 70.9754 8.73342 71.0636 8.73342C71.5736 8.73342 72.0376 8.83695 72.4556 9.04403C72.8736 9.2511 73.2091 9.55596 73.4622 9.95861C73.7153 10.3574 73.8419 10.8195 73.8419 11.3449C73.8419 12.3074 73.4833 13.0897 72.7662 13.6917C72.053 14.2938 71.0828 14.5948 69.8557 14.5948ZM79.755 14.2439C78.9689 14.497 78.1847 14.6235 77.4024 14.6235C75.8954 14.6235 75.1418 14.0234 75.1418 12.8231C75.1418 12.5624 75.1974 12.0428 75.3087 11.2643C75.4199 10.482 75.4755 9.94327 75.4755 9.648C75.4755 9.34889 75.462 9.12072 75.4352 8.9635C75.9606 8.72958 76.4226 8.46499 76.8215 8.16971C77.2203 7.87444 77.6076 7.51206 77.9834 7.08257C78.1751 7.02505 78.4244 6.99629 78.7311 6.99629C78.4742 7.90128 78.2691 8.8312 78.1157 9.78605C77.9661 10.7409 77.8913 11.4465 77.8913 11.9028C77.8913 12.3553 77.9239 12.6832 77.9891 12.8864C78.0543 13.0858 78.1598 13.2411 78.3055 13.3523C78.5624 13.5479 78.9689 13.6457 79.5249 13.6457C79.6591 13.6457 79.801 13.6399 79.9506 13.6284C79.9161 13.8815 79.8509 14.0867 79.755 14.2439ZM78.7484 10.2462C78.7829 9.71319 78.8692 9.21851 79.0072 8.76218C79.383 8.9194 79.8029 9.03061 80.2669 9.0958C80.2976 9.15332 80.3264 9.24919 80.3532 9.3834C80.3801 9.51378 80.3935 9.61732 80.3935 9.69401C79.8605 9.83973 79.3121 10.0238 78.7484 10.2462Z" fill="black"/>
</svg>
