<svg width="68" height="21" viewBox="0 0 68 21" fill="none" xmlns="http://www.w3.org/2000/svg">
<rect x="0.205322" y="0.229004" width="67.3158" height="20.1947" rx="3.36579" fill="#F3DF4F"/>
<path d="M12.126 8.88297H14.5361C14.3981 9.48502 14.2274 10.4188 14.0242 11.6842C13.821 12.9497 13.681 13.918 13.6043 14.589C13.5084 15.4557 13.2132 16.0769 12.7185 16.4527C12.2276 16.8285 11.4741 17.0164 10.4579 17.0164C10.6612 16.3262 10.8836 15.1316 11.1252 13.4329C11.3667 11.7341 11.5336 10.344 11.6256 9.26261C11.6256 9.21276 11.6869 9.13798 11.8097 9.03828C11.9324 8.93474 12.0378 8.88297 12.126 8.88297ZM14.2658 8.10644H11.8614C11.9343 7.81117 11.9822 7.52164 12.0052 7.23787C12.0052 7.18419 12.0666 7.10749 12.1893 7.00779C12.312 6.90425 12.4175 6.85249 12.5057 6.85249H14.9215C14.8717 7.03272 14.8199 7.32416 14.7662 7.7268C14.7662 7.78049 14.7049 7.85718 14.5822 7.95688C14.4633 8.05659 14.3578 8.10644 14.2658 8.10644ZM18.7639 15.3886L20.7139 15.4288C21.2469 15.4288 21.8931 15.3502 22.6523 15.193C22.7137 15.3311 22.752 15.4672 22.7674 15.6014C22.4759 16.1574 22.1749 16.562 21.8643 16.8151C21.5575 17.0682 21.1932 17.1947 20.7714 17.1947C20.3227 17.1947 19.7169 17.0375 18.9537 16.7231C18.1715 16.3971 17.4409 16.2054 16.7622 16.1478C16.7852 15.9446 16.8427 15.7797 16.9348 15.6532C17.4409 15.4768 18.0507 15.3886 18.7639 15.3886ZM19.1666 14.8019C19.7264 14.334 20.1425 13.6514 20.4148 12.7541C20.6909 11.8568 20.8289 10.9135 20.8289 9.9241C20.8289 8.9309 20.7273 8.03358 20.5241 7.23212C20.5241 7.17844 20.5854 7.10174 20.7081 7.00204C20.8347 6.8985 20.942 6.84673 21.0302 6.84673C21.5863 6.95411 22.0599 7.18611 22.451 7.54274C23.1949 8.22148 23.5669 9.1629 23.5669 10.367C23.5669 11.2835 23.3368 12.1099 22.8767 12.8462C22.3666 13.6706 21.6649 14.2382 20.7714 14.5488C20.2806 14.7175 19.7456 14.8019 19.1666 14.8019ZM20.3112 6.70868C19.7475 7.18035 19.3276 7.86293 19.0515 8.75642C18.7754 9.64991 18.6374 10.5952 18.6374 11.5922C18.6374 12.5892 18.7428 13.4827 18.9537 14.2727C18.9537 14.3264 18.8905 14.405 18.7639 14.5085C18.6412 14.612 18.5338 14.6638 18.4418 14.6638C17.5982 14.4951 16.9597 14.0733 16.5264 13.3984C16.1122 12.7503 15.9051 12.0006 15.9051 11.1493C15.9051 10.2328 16.1352 9.40257 16.5954 8.65864C17.1016 7.84184 17.8033 7.27814 18.7007 6.96753C19.1915 6.79496 19.7284 6.70868 20.3112 6.70868ZM24.9359 13.1108C24.9359 12.7158 24.9992 12.1712 25.1257 11.4772C25.2561 10.7831 25.3213 10.2961 25.3213 10.0161C25.3213 9.7362 25.2312 9.53871 25.051 9.42367C25.051 9.36231 25.1066 9.2511 25.2178 9.09005C25.329 8.92515 25.4248 8.84271 25.5054 8.84271H27.7544C27.8273 8.88105 27.8982 8.952 27.9673 9.05553C28.0363 9.15524 28.0708 9.2837 28.0708 9.44092C28.0708 9.59815 27.9864 10.1082 27.8177 10.971C27.6528 11.83 27.5704 12.501 27.5704 12.9842C27.5704 13.2296 27.6317 13.4175 27.7544 13.5479C27.881 13.6745 28.042 13.7377 28.2376 13.7377C28.2299 13.7876 28.2261 13.8509 28.2261 13.9275C28.2261 14.0963 28.2031 14.2056 28.1571 14.2554C27.9692 14.3743 27.7199 14.4702 27.4093 14.543C27.1025 14.612 26.8073 14.6466 26.5235 14.6466C25.4651 14.6466 24.9359 14.1346 24.9359 13.1108ZM29.2787 14.5833C28.9758 14.3685 28.8243 14.1059 28.8243 13.7952C28.8243 13.4846 28.9048 12.7886 29.0659 11.7072C29.2308 10.6259 29.3363 9.79755 29.3823 9.22234C29.3823 9.17249 29.4436 9.09771 29.5663 8.99801C29.6929 8.89447 29.8003 8.84271 29.8885 8.84271H32.2238C32.0167 9.73236 31.8499 10.5683 31.7234 11.3506C31.5968 12.1329 31.5335 12.6659 31.5335 12.9497C31.5335 13.2335 31.5681 13.4425 31.6371 13.5767C31.7099 13.7109 31.8231 13.8393 31.9765 13.9621C31.9765 14.0157 31.9209 14.1059 31.8096 14.2324C31.6984 14.3551 31.5968 14.4356 31.5048 14.474C31.0101 14.5469 30.2681 14.5833 29.2787 14.5833ZM38.6776 8.87722C39.1992 9.05745 39.5941 9.31054 39.8626 9.63649C40.1348 9.95861 40.271 10.3037 40.271 10.6719C40.271 11.1742 40.0543 11.5999 39.621 11.9488C39.1876 12.2978 38.5971 12.4723 37.8493 12.4723C37.6154 12.4723 37.3585 12.4339 37.0786 12.3572C37.485 12.1041 37.7592 11.7744 37.9011 11.3679C38.0238 11.0151 38.0852 10.6009 38.0852 10.1254C38.0852 10.0334 38.0756 9.75153 38.0564 9.27986C38.0526 9.23001 38.1293 9.1514 38.2865 9.04403C38.4475 8.93666 38.5779 8.88105 38.6776 8.87722ZM37.7458 8.78518C37.2703 9.1073 36.8926 9.53104 36.6126 10.0564C36.3365 10.5818 36.1985 11.1435 36.1985 11.7418C36.1985 12.34 36.4286 12.827 36.8887 13.2028C37.3489 13.5786 38.02 13.7665 38.902 13.7665C39.1436 13.7665 39.4024 13.7454 39.6785 13.7032C39.4983 13.987 39.1512 14.2247 38.6374 14.4165C38.1235 14.6044 37.5847 14.6983 37.021 14.6983C36.4573 14.6983 35.9761 14.6427 35.5773 14.5315C35.1784 14.4165 34.8218 14.2477 34.5074 14.0253C34.1968 13.8029 33.9513 13.5134 33.7711 13.1568C33.5909 12.7963 33.5008 12.4013 33.5008 11.9718C33.5008 11.5385 33.5679 11.1474 33.7021 10.7984C33.8363 10.4495 34.0204 10.1503 34.2543 9.90109C34.4882 9.65183 34.7605 9.43709 35.0711 9.25686C35.6885 8.9079 36.3998 8.73342 37.2051 8.73342C37.4045 8.73342 37.5847 8.75067 37.7458 8.78518ZM46.9606 8.73342C47.3978 8.73342 47.6164 9.0076 47.6164 9.55596C47.6164 9.89725 47.5569 10.2385 47.4381 10.5798C47.3192 10.9173 47.1696 11.1761 46.9894 11.3564C46.7363 11.18 46.4238 11.0342 46.0518 10.9192C45.6837 10.8003 45.3309 10.7351 44.9934 10.7236C45.0241 10.5127 45.0855 10.2884 45.1775 10.0506C45.7949 9.17249 46.3893 8.73342 46.9606 8.73342ZM43.5151 14.5948H41.105C41.4962 12.9228 41.7723 11.1493 41.9333 9.27411C41.9333 9.23193 41.9947 9.1629 42.1174 9.06704C42.2439 8.97117 42.3724 8.91173 42.5028 8.88872C42.637 8.86571 42.9802 8.83504 43.5324 8.79669C44.0884 8.75451 44.5141 8.73342 44.8094 8.73342C44.4297 10.6316 44.1651 12.4588 44.0156 14.2152C44.0156 14.265 43.9542 14.3417 43.8315 14.4452C43.7088 14.5449 43.6033 14.5948 43.5151 14.5948ZM48.6115 12.7886C48.6115 12.4742 48.6671 12.0236 48.7783 11.4369C48.8933 10.8502 48.9509 10.4264 48.9509 10.1657C48.9509 9.7592 48.8435 9.51186 48.6287 9.42367C48.6287 9.36231 48.6843 9.2511 48.7955 9.09005C48.9068 8.92515 49.0026 8.84271 49.0831 8.84271H51.3207C51.4089 8.87338 51.4837 8.93474 51.545 9.02677C51.6064 9.11497 51.6371 9.2396 51.6371 9.40066C51.6371 9.56172 51.5987 9.82056 51.522 10.1772C51.2919 11.2547 51.1769 12.0543 51.1769 12.5758C51.1769 12.8174 51.2478 13.0034 51.3897 13.1338C51.5355 13.2641 51.7099 13.3293 51.9132 13.3293C51.8825 13.5517 51.8173 13.7243 51.7176 13.847C51.3035 14.1078 50.8203 14.2382 50.2681 14.2382C49.1637 14.2382 48.6115 13.755 48.6115 12.7886ZM52.9485 9.17633C52.9485 9.13031 53.008 9.06704 53.1269 8.98651C53.2496 8.90598 53.3589 8.86571 53.4547 8.86571H55.7153C55.4085 10.3306 55.1535 12.0696 54.9503 14.0829C54.7969 15.5707 54.3329 16.516 53.5583 16.9186C53.0904 17.1602 52.473 17.281 51.7061 17.281C51.5872 17.281 51.3974 17.2733 51.1366 17.258C51.4626 16.8745 51.7119 16.4201 51.8844 15.8948C52.0608 15.3732 52.218 14.7539 52.3561 14.0368C52.498 13.3159 52.6322 12.4627 52.7587 11.4772C52.8853 10.4878 52.9505 9.88575 52.9543 9.67101C52.9581 9.45626 52.9562 9.29137 52.9485 9.17633ZM49.9805 17.1142C49.4743 17.072 49.0678 16.9551 48.761 16.7633C48.4581 16.5716 48.3066 16.3396 48.3066 16.0673C48.3066 15.7989 48.4274 15.5707 48.669 15.3828C49.1407 15.0147 49.7983 14.8306 50.642 14.8306C50.9104 14.8306 51.1827 14.8536 51.4588 14.8996C51.2363 15.1144 51.058 15.3483 50.9238 15.6014C50.7896 15.8583 50.7225 16.0769 50.7225 16.2571C50.7225 16.4374 50.7397 16.5946 50.7743 16.7288C50.7743 16.7863 50.6765 16.8649 50.4809 16.9646C50.2892 17.0643 50.1224 17.1142 49.9805 17.1142Z" fill="black"/>
</svg>
