<svg width="38" height="38" viewBox="0 0 38 38" fill="none" xmlns="http://www.w3.org/2000/svg">
<path d="M19.0407 0.197388C8.81671 0.197388 0.528809 8.48529 0.528809 18.7092C0.528809 28.9332 8.81671 37.2211 19.0407 37.2211C29.2646 37.2211 37.5525 28.9332 37.5525 18.7092C37.5525 8.48529 29.2646 0.197388 19.0407 0.197388ZM14.5091 26.382H10.7605V14.3185H14.5091V26.382ZM12.6116 12.8375C11.4277 12.8375 10.6621 11.9987 10.6621 10.9613C10.6621 9.90261 11.4508 9.08886 12.6598 9.08886C13.8689 9.08886 14.6094 9.90261 14.6325 10.9613C14.6325 11.9987 13.8689 12.8375 12.6116 12.8375ZM28.2002 26.382H24.4515V19.6965C24.4515 18.1404 23.9077 17.0837 22.5521 17.0837C21.5166 17.0837 20.9015 17.7991 20.6296 18.4875C20.5293 18.7324 20.5042 19.0795 20.5042 19.4246V26.3801H16.7537V18.1654C16.7537 16.6594 16.7055 15.4002 16.6553 14.3165H19.9122L20.0839 15.9922H20.1591C20.6527 15.2055 21.8618 14.0446 23.8846 14.0446C26.3509 14.0446 28.2002 15.6972 28.2002 19.2492V26.382V26.382Z" fill="#40C463"/>
</svg>
