<svg width="96" height="21" viewBox="0 0 96 21" fill="none" xmlns="http://www.w3.org/2000/svg">
<rect x="0.868408" y="0.076416" width="94.2421" height="20.1947" rx="3.36579" fill="#89EE78"/>
<path d="M8.86468 11.802C9.25582 11.3802 9.56068 10.9047 9.77926 10.3755C10.0017 9.84629 10.1129 9.28258 10.1129 8.68437C10.1129 8.08231 9.95566 7.49368 9.64121 6.91848C9.64121 6.86479 9.70257 6.78618 9.82528 6.68264C9.95182 6.5791 10.0592 6.52733 10.1474 6.52733C10.9949 6.58486 11.6583 6.83411 12.1376 7.27511C12.617 7.71226 12.8566 8.27213 12.8566 8.95471C12.8566 9.37653 12.7569 9.77151 12.5575 10.1396C12.3619 10.5078 12.1031 10.8146 11.781 11.06C11.0831 11.5815 10.2874 11.8423 9.39387 11.8423C9.17529 11.8423 8.99889 11.8288 8.86468 11.802ZM8.11691 14.0568C8.11691 14.1105 8.05555 14.1891 7.93284 14.2926C7.81013 14.3923 7.70276 14.4422 7.61073 14.4422H4.99928C5.52464 12.3254 5.89852 9.86163 6.12094 7.05077C6.12094 7.00092 6.18229 6.92806 6.305 6.8322C6.42771 6.73249 6.53317 6.68072 6.62137 6.67689C7.84848 6.58486 8.72663 6.53884 9.25582 6.53884C8.70746 8.88952 8.32782 11.3955 8.11691 14.0568ZM19.322 8.58083C19.7591 8.58083 19.9777 8.85501 19.9777 9.40338C19.9777 9.74467 19.9183 10.086 19.7994 10.4272C19.6805 10.7647 19.531 11.0235 19.3507 11.2038C19.0976 11.0274 18.7851 10.8817 18.4131 10.7666C18.045 10.6477 17.6922 10.5826 17.3548 10.571C17.3854 10.3601 17.4468 10.1358 17.5388 9.89805C18.1562 9.0199 18.7506 8.58083 19.322 8.58083ZM15.8765 14.4422H13.4663C13.8575 12.7703 14.1336 10.9967 14.2946 9.12152C14.2946 9.07934 14.356 9.01032 14.4787 8.91445C14.6053 8.81858 14.7337 8.75914 14.8641 8.73613C14.9983 8.71313 15.3415 8.68245 15.8937 8.6441C16.4498 8.60192 16.8754 8.58083 17.1707 8.58083C16.791 10.479 16.5265 12.3063 16.3769 14.0626C16.3769 14.1124 16.3155 14.1891 16.1928 14.2926C16.0701 14.3923 15.9647 14.4422 15.8765 14.4422ZM24.7519 8.53481C23.8316 9.4168 23.3714 10.6075 23.3714 12.1069C23.3714 12.7434 23.4558 13.3838 23.6245 14.028C23.6207 14.0856 23.5574 14.1642 23.4347 14.2639C23.3158 14.3636 23.2142 14.4134 23.1298 14.4134C22.4856 14.3252 21.9277 14.0587 21.456 13.6139C20.9613 13.1461 20.714 12.5632 20.714 11.8653C20.714 11.1635 20.8884 10.5653 21.2374 10.0706C21.5902 9.5721 22.0715 9.19247 22.6812 8.93171C23.2909 8.66711 23.9811 8.53481 24.7519 8.53481ZM23.9754 14.494C24.8957 13.612 25.3559 12.4213 25.3559 10.9219C25.3559 10.2854 25.2715 9.64496 25.1028 9.00073C25.1066 8.94321 25.168 8.8646 25.2869 8.76489C25.4096 8.66519 25.5131 8.61534 25.5975 8.61534C26.2417 8.70354 26.7978 8.97005 27.2656 9.41488C27.7641 9.88272 28.0134 10.4675 28.0134 11.1693C28.0134 11.8672 27.837 12.4654 27.4842 12.9639C27.1352 13.4586 26.6559 13.8382 26.0461 14.1028C25.4364 14.3636 24.7462 14.494 23.9754 14.494ZM33.984 14.0913C33.1979 14.3444 32.4137 14.471 31.6314 14.471C30.1244 14.471 29.3709 13.8708 29.3709 12.6706C29.3709 12.4098 29.4265 11.8902 29.5377 11.1117C29.6489 10.3295 29.7045 9.79068 29.7045 9.49541C29.7045 9.1963 29.691 8.96814 29.6642 8.81091C30.1896 8.57699 30.6516 8.3124 31.0505 8.01712C31.4493 7.72185 31.8366 7.35947 32.2124 6.92998C32.4041 6.87246 32.6534 6.8437 32.9601 6.8437C32.7032 7.74869 32.4981 8.67861 32.3447 9.63346C32.1951 10.5883 32.1203 11.2939 32.1203 11.7502C32.1203 12.2027 32.1529 12.5306 32.2181 12.7338C32.2833 12.9332 32.3888 13.0885 32.5345 13.1997C32.7914 13.3953 33.1979 13.4931 33.7539 13.4931C33.8882 13.4931 34.03 13.4874 34.1796 13.4758C34.1451 13.7289 34.0799 13.9341 33.984 14.0913ZM32.9774 10.0936C33.0119 9.5606 33.0982 9.06592 33.2362 8.60959C33.6121 8.76681 34.032 8.87802 34.496 8.94321C34.5266 9.00073 34.5554 9.0966 34.5822 9.23081C34.6091 9.36119 34.6225 9.46473 34.6225 9.54143C34.0895 9.68715 33.5411 9.87121 32.9774 10.0936ZM39.4888 8.53481C38.5684 9.4168 38.1083 10.6075 38.1083 12.1069C38.1083 12.7434 38.1926 13.3838 38.3614 14.028C38.3575 14.0856 38.2942 14.1642 38.1715 14.2639C38.0527 14.3636 37.951 14.4134 37.8667 14.4134C37.2224 14.3252 36.6645 14.0587 36.1928 13.6139C35.6981 13.1461 35.4508 12.5632 35.4508 11.8653C35.4508 11.1635 35.6253 10.5653 35.9742 10.0706C36.327 9.5721 36.8083 9.19247 37.418 8.93171C38.0277 8.66711 38.718 8.53481 39.4888 8.53481ZM38.7122 14.494C39.6326 13.612 40.0927 12.4213 40.0927 10.9219C40.0927 10.2854 40.0084 9.64496 39.8396 9.00073C39.8435 8.94321 39.9048 8.8646 40.0237 8.76489C40.1464 8.66519 40.25 8.61534 40.3343 8.61534C40.9786 8.70354 41.5346 8.97005 42.0024 9.41488C42.5009 9.88272 42.7502 10.4675 42.7502 11.1693C42.7502 11.8672 42.5738 12.4654 42.221 12.9639C41.872 13.4586 41.3927 13.8382 40.783 14.1028C40.1733 14.3636 39.483 14.494 38.7122 14.494ZM48.7209 14.0913C47.9347 14.3444 47.1505 14.471 46.3683 14.471C44.8612 14.471 44.1077 13.8708 44.1077 12.6706C44.1077 12.4098 44.1633 11.8902 44.2745 11.1117C44.3857 10.3295 44.4413 9.79068 44.4413 9.49541C44.4413 9.1963 44.4279 8.96814 44.401 8.81091C44.9264 8.57699 45.3885 8.3124 45.7873 8.01712C46.1861 7.72185 46.5734 7.35947 46.9492 6.92998C47.141 6.87246 47.3902 6.8437 47.697 6.8437C47.4401 7.74869 47.2349 8.67861 47.0815 9.63346C46.932 10.5883 46.8572 11.2939 46.8572 11.7502C46.8572 12.2027 46.8898 12.5306 46.955 12.7338C47.0202 12.9332 47.1256 13.0885 47.2713 13.1997C47.5283 13.3953 47.9347 13.4931 48.4908 13.4931C48.625 13.4931 48.7669 13.4874 48.9164 13.4758C48.8819 13.7289 48.8167 13.9341 48.7209 14.0913ZM47.7142 10.0936C47.7488 9.5606 47.835 9.06592 47.9731 8.60959C48.3489 8.76681 48.7688 8.87802 49.2328 8.94321C49.2635 9.00073 49.2922 9.0966 49.3191 9.23081C49.3459 9.36119 49.3593 9.46473 49.3593 9.54143C48.8263 9.68715 48.2779 9.87121 47.7142 10.0936ZM50.4465 12.636C50.4465 12.3216 50.5021 11.871 50.6133 11.2843C50.7283 10.6976 50.7859 10.2739 50.7859 10.0131C50.7859 9.60662 50.6785 9.35928 50.4637 9.27108C50.4637 9.20972 50.5193 9.09852 50.6305 8.93746C50.7418 8.77256 50.8376 8.69012 50.9181 8.69012H53.1557C53.2439 8.7208 53.3187 8.78215 53.38 8.87418C53.4414 8.96238 53.4721 9.08701 53.4721 9.24807C53.4721 9.40913 53.4337 9.66797 53.357 10.0246C53.1269 11.1022 53.0119 11.9017 53.0119 12.4232C53.0119 12.6648 53.0828 12.8508 53.2247 12.9812C53.3705 13.1116 53.5449 13.1767 53.7482 13.1767C53.7175 13.3992 53.6523 13.5717 53.5526 13.6944C53.1385 13.9552 52.6553 14.0856 52.1031 14.0856C50.9987 14.0856 50.4465 13.6024 50.4465 12.636ZM54.7835 9.02374C54.7835 8.97772 54.843 8.91445 54.9619 8.83392C55.0846 8.75339 55.1939 8.71313 55.2897 8.71313H57.5503C57.2435 10.178 56.9885 11.917 56.7853 13.9303C56.6319 15.4181 56.1679 16.3634 55.3933 16.766C54.9254 17.0076 54.308 17.1284 53.5411 17.1284C53.4222 17.1284 53.2324 17.1208 52.9716 17.1054C53.2976 16.7219 53.5469 16.2675 53.7194 15.7422C53.8958 15.2206 54.053 14.6013 54.1911 13.8842C54.333 13.1633 54.4672 12.3101 54.5937 11.3246C54.7203 10.3352 54.7855 9.73316 54.7893 9.51842C54.7931 9.30367 54.7912 9.13878 54.7835 9.02374ZM51.8155 16.9616C51.3093 16.9194 50.9028 16.8025 50.596 16.6107C50.2931 16.419 50.1416 16.187 50.1416 15.9147C50.1416 15.6463 50.2624 15.4181 50.504 15.2302C50.9757 14.8621 51.6333 14.678 52.477 14.678C52.7454 14.678 53.0177 14.701 53.2938 14.7471C53.0713 14.9618 52.893 15.1957 52.7588 15.4488C52.6246 15.7057 52.5575 15.9243 52.5575 16.1046C52.5575 16.2848 52.5747 16.442 52.6093 16.5762C52.6093 16.6337 52.5115 16.7124 52.3159 16.8121C52.1242 16.9118 51.9574 16.9616 51.8155 16.9616ZM58.5569 16.8523C59.1475 14.0913 59.5367 11.5106 59.7246 9.11002C59.7246 9.064 59.7859 8.99306 59.9087 8.89719C60.0314 8.79749 60.1713 8.73997 60.3286 8.72463C60.4858 8.70929 60.8405 8.68628 61.3927 8.65561C61.9487 8.62109 62.3475 8.60384 62.5891 8.60384C62.1711 10.4138 61.8011 13.0387 61.479 16.4784C61.479 16.5283 61.4157 16.6031 61.2892 16.7028C61.1664 16.8025 61.0629 16.8523 60.9785 16.8523H58.5569ZM62.3936 14.4422C62.685 14.2581 62.9362 13.9744 63.1471 13.5909C63.5382 12.8738 63.7338 12.0762 63.7338 11.198C63.7338 10.3199 63.5267 9.57594 63.1126 8.96622C63.1126 8.9087 63.172 8.83009 63.2909 8.73038C63.4098 8.63068 63.5133 8.58083 63.6015 8.58083C64.1115 8.58083 64.5755 8.68437 64.9935 8.89144C65.4115 9.09852 65.747 9.40338 66.0001 9.80602C66.2532 10.2048 66.3797 10.6669 66.3797 11.1923C66.3797 12.1548 66.0212 12.9371 65.3041 13.5391C64.5908 14.1412 63.6207 14.4422 62.3936 14.4422ZM67.651 14.4422C67.9846 13.031 68.2396 11.2517 68.416 9.10427C68.416 9.05442 68.4793 8.97964 68.6058 8.87994C68.7323 8.78023 68.8378 8.73038 68.9222 8.73038H71.3323C70.9987 10.1646 70.7437 11.942 70.5673 14.0626C70.5673 14.1124 70.5059 14.1891 70.3832 14.2926C70.2605 14.3923 70.155 14.4422 70.0668 14.4422H67.651ZM71.0102 7.95385H68.6058C68.6787 7.65858 68.7266 7.36906 68.7496 7.08529C68.7496 7.0316 68.811 6.95491 68.9337 6.8552C69.0564 6.75167 69.1618 6.6999 69.25 6.6999H71.6659C71.6161 6.88013 71.5643 7.17157 71.5106 7.57421C71.5106 7.6279 71.4492 7.70459 71.3265 7.8043C71.2077 7.904 71.1022 7.95385 71.0102 7.95385ZM74.9561 14.4422H72.5402C72.939 12.7626 73.2151 10.989 73.3685 9.12152C73.3685 9.07551 73.4299 9.00648 73.5526 8.91445C73.6753 8.81858 73.8038 8.75914 73.938 8.73613C74.076 8.71313 74.4096 8.68245 74.9388 8.6441C75.4719 8.60192 75.8841 8.58083 76.1755 8.58083C75.8649 10.1876 75.6253 12.0148 75.4565 14.0626C75.4565 14.1124 75.3952 14.1891 75.2725 14.2926C75.1498 14.3923 75.0443 14.4422 74.9561 14.4422ZM77.0326 14.4997C76.8102 14.285 76.699 14.0089 76.699 13.6714C76.699 13.334 76.7833 12.6897 76.9521 11.7387C77.1246 10.7877 77.2109 10.2029 77.2109 9.98434C77.2109 9.76192 77.1572 9.60278 77.0499 9.50691C76.9463 9.40721 76.8102 9.35736 76.6415 9.35736C76.676 9.12728 76.7412 8.95471 76.837 8.83967C76.9789 8.77065 77.2013 8.70737 77.5043 8.64985C77.811 8.59233 78.0948 8.56357 78.3556 8.56357C78.8656 8.56357 79.2471 8.68053 79.5002 8.91445C79.7572 9.14837 79.8856 9.51842 79.8856 10.0246C79.8856 10.3084 79.8243 10.8069 79.7016 11.5201C79.5789 12.2334 79.5175 12.6706 79.5175 12.8316C79.5175 12.9927 79.5232 13.1135 79.5348 13.194C79.5501 13.2745 79.5616 13.3378 79.5693 13.3838C79.5808 13.4298 79.6076 13.4835 79.6498 13.5449C79.692 13.6024 79.7188 13.6388 79.7303 13.6542C79.7418 13.6657 79.7802 13.704 79.8454 13.7692C79.9106 13.8306 79.9489 13.867 79.9604 13.8785C79.9604 13.9322 79.9048 14.0223 79.7936 14.1488C79.6824 14.2716 79.5808 14.3521 79.4887 14.3904C78.9979 14.4633 78.1792 14.4997 77.0326 14.4997ZM85.8218 8.58083C85.4153 8.8761 85.0625 9.30943 84.7634 9.8808C84.4643 10.4483 84.3147 11.0101 84.3147 11.5662C84.3147 12.2833 84.5563 12.8374 85.0395 13.2285C85.0395 13.286 84.9781 13.3666 84.8554 13.4701C84.7327 13.5698 84.6273 13.6197 84.5391 13.6197C83.1241 13.6197 82.2306 13.1422 81.8586 12.1874C81.7551 11.9228 81.7033 11.6256 81.7033 11.2958C81.7033 10.9622 81.7761 10.6343 81.9219 10.3122C82.0676 9.99009 82.2804 9.69865 82.5603 9.43789C82.8403 9.17329 83.2084 8.96238 83.6647 8.80516C84.1211 8.64794 84.6369 8.56932 85.2121 8.56932C85.3424 8.56932 85.5457 8.57316 85.8218 8.58083ZM86.1784 9.02374C86.1784 8.97389 86.2398 8.89528 86.3625 8.7879C86.4852 8.68053 86.5926 8.62684 86.6846 8.62684C86.9108 8.62684 87.2425 8.65752 87.6797 8.71888C88.1169 8.7764 88.5387 8.86651 88.9452 8.98923C88.7112 10.1243 88.4447 11.8883 88.1456 14.2811C87.9079 16.1793 86.8591 17.1284 84.9992 17.1284C84.7155 17.1284 84.4566 17.1131 84.2227 17.0824C84.5563 16.7718 84.8171 16.3941 85.005 15.9492C85.2197 15.4354 85.3654 15.0021 85.4421 14.6493C85.6991 13.4758 85.8851 12.3638 86.0001 11.3131C86.119 10.2585 86.1784 9.49541 86.1784 9.02374ZM83.2218 16.9444C82.7578 16.8983 82.3609 16.7545 82.0312 16.5129C81.7014 16.2714 81.5365 16.0068 81.5365 15.7192C81.5365 15.4316 81.6496 15.1881 81.8759 14.9886C82.2977 14.6128 82.8901 14.4249 83.6532 14.4249C83.9025 14.4249 84.1364 14.4499 84.355 14.4997C84.1518 14.703 83.9888 14.9522 83.8661 15.2475C83.7434 15.5428 83.682 15.8054 83.682 16.0355C83.682 16.2656 83.6973 16.4401 83.728 16.559C83.728 16.6165 83.6647 16.6951 83.5382 16.7948C83.4155 16.8945 83.31 16.9444 83.2218 16.9444Z" fill="black"/>
</svg>
