<svg width="68" height="21" viewBox="0 0 68 21" fill="none" xmlns="http://www.w3.org/2000/svg">
<rect x="0.426514" y="0.229004" width="67.3158" height="20.1947" rx="3.36579" fill="#F3DF4F"/>
<path d="M17.5997 14.2152C17.5997 14.265 17.5384 14.3417 17.4157 14.4452C17.293 14.5449 17.1856 14.5948 17.0936 14.5948H14.4821C15.0075 12.478 15.3814 10.0142 15.6038 7.20336C15.6038 7.15735 15.6651 7.0864 15.7878 6.99054C15.9105 6.89083 16.016 6.83906 16.1042 6.83523C17.2546 6.73936 18.1328 6.69143 18.7387 6.69143C18.1865 9.07662 17.8068 11.5845 17.5997 14.2152ZM21.7758 12.0064L21.6952 13.1625C21.6952 13.3734 21.7336 13.5422 21.8103 13.6687C21.887 13.7952 22.0288 13.8739 22.2359 13.9045C22.1976 14.1461 22.1343 14.3436 22.0461 14.497C21.3597 14.6581 20.7749 14.7386 20.2917 14.7386C19.8124 14.7386 19.4404 14.6734 19.1758 14.543C18.9151 14.4088 18.7847 14.2017 18.7847 13.9218C18.7847 13.6419 18.8269 13.2603 18.9112 12.7771C18.9994 12.2901 19.0435 11.945 19.0435 11.7418C19.0435 11.5347 18.9975 11.3621 18.9055 11.2241C18.8134 11.086 18.6888 11.0093 18.5316 10.994C18.5508 10.8214 18.6159 10.668 18.7271 10.5338C19.0493 10.3651 19.3004 10.1024 19.4807 9.74578C19.6609 9.38915 19.751 9.00376 19.751 8.58961C19.751 7.96839 19.565 7.46412 19.1931 7.07682C19.1931 7.0193 19.2544 6.93877 19.3771 6.83523C19.4998 6.73169 19.6053 6.67992 19.6935 6.67992C20.3799 6.67992 20.9743 6.82181 21.4766 7.10558C21.7297 7.2513 21.9311 7.4507 22.0806 7.70379C22.2302 7.95688 22.3049 8.24832 22.3049 8.57811C22.3049 9.11881 22.0576 9.57897 21.5629 9.95861C21.0682 10.3382 20.4068 10.5568 19.5785 10.6143L20.0961 10.6604C20.6023 10.7102 21.0088 10.8444 21.3156 11.063C21.6224 11.2778 21.7758 11.5922 21.7758 12.0064ZM28.5517 8.87722C29.0732 9.05745 29.4682 9.31054 29.7366 9.63649C30.0089 9.95861 30.145 10.3037 30.145 10.6719C30.145 11.1742 29.9284 11.5999 29.495 11.9488C29.0617 12.2978 28.4712 12.4723 27.7234 12.4723C27.4895 12.4723 27.2326 12.4339 26.9526 12.3572C27.3591 12.1041 27.6333 11.7744 27.7752 11.3679C27.8979 11.0151 27.9592 10.6009 27.9592 10.1254C27.9592 10.0334 27.9497 9.75153 27.9305 9.27986C27.9266 9.23001 28.0033 9.1514 28.1606 9.04403C28.3216 8.93666 28.452 8.88105 28.5517 8.87722ZM27.6199 8.78518C27.1444 9.1073 26.7666 9.53104 26.4867 10.0564C26.2106 10.5818 26.0726 11.1435 26.0726 11.7418C26.0726 12.34 26.3026 12.827 26.7628 13.2028C27.223 13.5786 27.8941 13.7665 28.776 13.7665C29.0176 13.7665 29.2765 13.7454 29.5526 13.7032C29.3723 13.987 29.0253 14.2247 28.5114 14.4165C27.9976 14.6044 27.4588 14.6983 26.8951 14.6983C26.3314 14.6983 25.8501 14.6427 25.4513 14.5315C25.0525 14.4165 24.6959 14.2477 24.3814 14.0253C24.0708 13.8029 23.8254 13.5134 23.6452 13.1568C23.4649 12.7963 23.3748 12.4013 23.3748 11.9718C23.3748 11.5385 23.4419 11.1474 23.5762 10.7984C23.7104 10.4495 23.8944 10.1503 24.1284 9.90109C24.3623 9.65183 24.6345 9.43709 24.9451 9.25686C25.5625 8.9079 26.2739 8.73342 27.0792 8.73342C27.2786 8.73342 27.4588 8.75067 27.6199 8.78518ZM38.0656 14.3647C37.3179 14.5258 36.5145 14.6063 35.6555 14.6063C35.46 14.3417 35.3622 14.0637 35.3622 13.7722C35.3622 13.4808 35.4485 12.7426 35.621 11.5577C35.7936 10.3689 35.8818 9.57897 35.8856 9.18783C35.8856 9.13798 35.9489 9.0632 36.0754 8.9635C36.202 8.8638 36.3074 8.81395 36.3918 8.81395C37.2124 8.81395 37.9851 8.92323 38.7099 9.14181C38.6945 9.26452 38.5929 9.75345 38.405 10.6086C38.2171 11.4599 38.1232 12.1444 38.1232 12.6621C38.1232 13.1759 38.2612 13.5709 38.5373 13.847C38.5373 13.9007 38.4836 13.9908 38.3763 14.1174C38.2689 14.2401 38.1654 14.3225 38.0656 14.3647ZM35.4024 8.73342C34.9461 9.07087 34.5991 9.52912 34.3613 10.1082C34.1274 10.6872 34.0104 11.2567 34.0104 11.8165C34.0104 12.3726 34.0718 12.873 34.1945 13.3178C34.321 13.7588 34.4898 14.0541 34.7007 14.2036C34.7007 14.2612 34.6393 14.3417 34.5166 14.4452C34.3939 14.5449 34.2884 14.5948 34.2002 14.5948C33.3221 14.5948 32.6165 14.3743 32.0835 13.9333C31.5543 13.4923 31.2897 12.8903 31.2897 12.1271C31.2897 11.18 31.6482 10.3843 32.3653 9.74003C32.7105 9.42942 33.1438 9.184 33.6653 9.00376C34.1907 8.82353 34.7697 8.73342 35.4024 8.73342ZM45.4053 8.90598C45.8463 8.99801 46.1991 9.19742 46.4637 9.5042C46.7321 9.81097 46.8663 10.1197 46.8663 10.4303C46.8663 10.7371 46.7302 10.9652 46.4579 11.1148C46.1857 11.2605 45.9134 11.3334 45.6411 11.3334C45.3689 11.3334 45.0966 11.2816 44.8243 11.1781C44.8512 10.8176 44.8646 10.4897 44.8646 10.1944C44.8646 9.89534 44.8397 9.59048 44.7898 9.27986C44.8013 9.1955 44.878 9.11305 45.0199 9.03252C45.1656 8.94816 45.2941 8.90598 45.4053 8.90598ZM44.4332 8.75067C44.0344 9.05745 43.7027 9.47352 43.4381 9.99887C43.1773 10.5242 43.047 11.0247 43.047 11.5002C43.047 11.9757 43.1045 12.3553 43.2195 12.6391C43.3346 12.9228 43.4975 13.151 43.7084 13.3236C44.1264 13.6649 44.669 13.8355 45.3363 13.8355C45.6737 13.8355 46.0342 13.7914 46.4177 13.7032C46.0994 14.0829 45.7121 14.3436 45.2558 14.4855C44.7994 14.6274 44.2338 14.6983 43.5589 14.6983C42.884 14.6983 42.3011 14.5967 41.8103 14.3935C41.3232 14.1902 40.9321 13.8777 40.6368 13.4559C40.3416 13.0341 40.1939 12.5202 40.1939 11.9143C40.1939 11.3046 40.3511 10.7486 40.6656 10.2462C40.98 9.74003 41.3999 9.35081 41.9253 9.07854C42.4507 8.80628 43.0297 8.67014 43.6624 8.67014C43.8657 8.67014 44.1226 8.69699 44.4332 8.75067ZM52.5206 14.2439C51.7345 14.497 50.9503 14.6235 50.168 14.6235C48.661 14.6235 47.9075 14.0234 47.9075 12.8231C47.9075 12.5624 47.9631 12.0428 48.0743 11.2643C48.1855 10.482 48.2411 9.94327 48.2411 9.648C48.2411 9.34889 48.2277 9.12072 48.2008 8.9635C48.7262 8.72958 49.1883 8.46499 49.5871 8.16971C49.9859 7.87444 50.3732 7.51206 50.749 7.08257C50.9407 7.02505 51.19 6.99629 51.4968 6.99629C51.2398 7.90128 51.0347 8.8312 50.8813 9.78605C50.7317 10.7409 50.657 11.4465 50.657 11.9028C50.657 12.3553 50.6896 12.6832 50.7547 12.8864C50.8199 13.0858 50.9254 13.2411 51.0711 13.3523C51.328 13.5479 51.7345 13.6457 52.2905 13.6457C52.4248 13.6457 52.5666 13.6399 52.7162 13.6284C52.6817 13.8815 52.6165 14.0867 52.5206 14.2439ZM51.514 10.2462C51.5485 9.71319 51.6348 9.21851 51.7729 8.76218C52.1487 8.9194 52.5686 9.03061 53.0326 9.0958C53.0632 9.15332 53.092 9.24919 53.1188 9.3834C53.1457 9.51378 53.1591 9.61732 53.1591 9.69401C52.6261 9.83973 52.0777 10.0238 51.514 10.2462Z" fill="black"/>
</svg>
