<svg width="116" height="21" viewBox="0 0 116 21" fill="none" xmlns="http://www.w3.org/2000/svg">
<rect x="0.57373" y="0.076416" width="114.437" height="20.1947" rx="3.36579" fill="#89EE78"/>
<path d="M8.42596 6.39504C8.12301 6.65196 7.97154 6.96449 7.97154 7.33263C7.97154 7.69692 8.07124 8.06314 8.27065 8.43127C8.47389 8.79557 8.70972 9.10618 8.97815 9.36311C9.24659 9.62004 9.45366 9.8252 9.59938 9.97858C9.74893 10.1281 9.91574 10.3103 10.0998 10.525C10.2877 10.7359 10.4353 10.9258 10.5427 11.0945C10.8073 11.5048 10.9396 11.8653 10.9396 12.1759C10.9396 12.4827 10.8744 12.7683 10.744 13.0329C10.6175 13.2975 10.4353 13.5391 10.1976 13.7577C9.96368 13.9724 9.66265 14.1508 9.29452 14.2926C8.93022 14.4345 8.52758 14.5151 8.08658 14.5342C8.20929 14.3578 8.27065 14.1738 8.27065 13.982C8.27065 13.7865 8.23038 13.589 8.14986 13.3896C8.06933 13.1863 7.94661 12.9697 7.78172 12.7396C7.51713 12.3676 7.21994 12.0033 6.89015 11.6467C6.5642 11.2901 6.33603 11.035 6.20565 10.8817C6.07911 10.7283 5.9353 10.5346 5.77425 10.3007C5.4598 9.8482 5.30257 9.39379 5.30257 8.93746C5.30257 8.48113 5.44254 8.05739 5.72248 7.66625C6.00241 7.27511 6.38013 6.96641 6.85564 6.74016C7.33498 6.51391 7.85842 6.39887 8.42596 6.39504ZM10.3414 9.86929C10.3414 9.49733 10.2743 9.11385 10.1401 8.71888C9.87548 7.9481 9.43449 7.32687 8.8171 6.8552C8.82477 6.78618 8.88996 6.70373 9.01267 6.60786C9.13538 6.512 9.237 6.46406 9.31753 6.46406C9.59746 6.46406 9.92341 6.51967 10.2954 6.63087C10.6712 6.74208 10.9684 6.84945 11.187 6.95299C11.2061 7.06803 11.2157 7.26935 11.2157 7.55696C11.2157 7.84073 11.1889 8.19736 11.1352 8.62684C11.0815 9.0525 11.0163 9.38995 10.9396 9.63921C10.9166 9.69673 10.8342 9.75042 10.6923 9.80027C10.5542 9.84629 10.4373 9.86929 10.3414 9.86929ZM7.58615 14.0338C7.54013 14.2946 7.46919 14.469 7.37332 14.5572C6.97068 14.5572 6.49517 14.5055 5.94681 14.4019C5.39844 14.2984 4.99963 14.1661 4.75037 14.005C4.74654 13.9207 4.74462 13.7999 4.74462 13.6427C4.74462 12.8949 4.83282 12.1855 5.00922 11.5144C5.02456 11.453 5.08975 11.3763 5.20479 11.2843C5.31983 11.1884 5.42337 11.1405 5.5154 11.1405C5.6036 11.5623 5.76082 11.9861 5.98707 12.4117C6.21716 12.8374 6.476 13.1978 6.7636 13.4931C7.05504 13.7845 7.32922 13.9648 7.58615 14.0338ZM12.8205 12.636C12.8205 12.3216 12.8761 11.871 12.9874 11.2843C13.1024 10.6976 13.1599 10.2739 13.1599 10.0131C13.1599 9.60662 13.0525 9.35928 12.8378 9.27108C12.8378 9.20972 12.8934 9.09852 13.0046 8.93746C13.1158 8.77256 13.2117 8.69012 13.2922 8.69012H15.5298C15.618 8.7208 15.6928 8.78215 15.7541 8.87418C15.8155 8.96238 15.8461 9.08701 15.8461 9.24807C15.8461 9.40913 15.8078 9.66797 15.7311 10.0246C15.501 11.1022 15.386 11.9017 15.386 12.4232C15.386 12.6648 15.4569 12.8508 15.5988 12.9812C15.7445 13.1116 15.919 13.1767 16.1222 13.1767C16.0916 13.3992 16.0264 13.5717 15.9267 13.6944C15.5125 13.9552 15.0293 14.0856 14.4771 14.0856C13.3727 14.0856 12.8205 13.6024 12.8205 12.636ZM17.1576 9.02374C17.1576 8.97772 17.2171 8.91445 17.3359 8.83392C17.4586 8.75339 17.5679 8.71313 17.6638 8.71313H19.9244C19.6176 10.178 19.3626 11.917 19.1593 13.9303C19.006 15.4181 18.542 16.3634 17.7673 16.766C17.2995 17.0076 16.6821 17.1284 15.9152 17.1284C15.7963 17.1284 15.6065 17.1208 15.3457 17.1054C15.6717 16.7219 15.9209 16.2675 16.0935 15.7422C16.2699 15.2206 16.4271 14.6013 16.5652 13.8842C16.707 13.1633 16.8413 12.3101 16.9678 11.3246C17.0943 10.3352 17.1595 9.73316 17.1634 9.51842C17.1672 9.30367 17.1653 9.13878 17.1576 9.02374ZM14.1895 16.9616C13.6834 16.9194 13.2769 16.8025 12.9701 16.6107C12.6672 16.419 12.5157 16.187 12.5157 15.9147C12.5157 15.6463 12.6365 15.4181 12.8781 15.2302C13.3497 14.8621 14.0074 14.678 14.851 14.678C15.1195 14.678 15.3917 14.701 15.6678 14.7471C15.4454 14.9618 15.2671 15.1957 15.1329 15.4488C14.9987 15.7057 14.9316 15.9243 14.9316 16.1046C14.9316 16.2848 14.9488 16.442 14.9833 16.5762C14.9833 16.6337 14.8855 16.7124 14.69 16.8121C14.4982 16.9118 14.3314 16.9616 14.1895 16.9616ZM24.4398 8.52906C24.2212 8.73613 24.1119 8.95471 24.1119 9.1848C24.1119 9.72166 24.5203 10.2777 25.3371 10.8529C25.7052 11.1137 25.9928 11.3361 26.1999 11.5201C26.6639 11.9343 26.8959 12.3849 26.8959 12.8719C26.8959 13.3551 26.6524 13.7462 26.1654 14.0453C25.6822 14.3406 25.0035 14.4882 24.1291 14.4882C24.2288 14.2658 24.2787 14.0645 24.2787 13.8842C24.2787 13.704 24.2269 13.5295 24.1234 13.3608C24.0237 13.1882 23.8933 13.031 23.7322 12.8891C23.5712 12.7473 23.3929 12.6054 23.1973 12.4635C23.0017 12.3178 22.8062 12.1701 22.6106 12.0206C22.415 11.871 22.2367 11.7176 22.0756 11.5604C21.7113 11.2038 21.5292 10.8184 21.5292 10.4042C21.5292 9.94791 21.6979 9.57594 22.0354 9.28833C22.6144 8.80132 23.4159 8.54823 24.4398 8.52906ZM25.3313 8.54632C25.872 8.54632 26.336 8.65369 26.7233 8.86843C27.1106 9.07934 27.3043 9.33819 27.3043 9.64496C27.3043 10.1205 26.8595 10.4119 25.9698 10.5193C25.9775 10.4924 25.9813 10.4503 25.9813 10.3927C25.9813 10.1013 25.8893 9.83286 25.7052 9.58744C25.5211 9.33819 25.2642 9.13878 24.9344 8.98923C24.9344 8.92787 24.9766 8.84351 25.061 8.73613C25.1453 8.62876 25.2355 8.56549 25.3313 8.54632ZM23.1225 14.4652C22.9308 14.4805 22.7889 14.4882 22.6969 14.4882C22.1408 14.4882 21.6788 14.3981 21.3106 14.2179C20.9425 14.0338 20.7584 13.796 20.7584 13.5046C20.7584 12.9179 21.2013 12.5478 22.0871 12.3945C22.0565 12.5594 22.043 12.7051 22.0469 12.8316C22.0546 12.9543 22.0967 13.077 22.1734 13.1997C22.254 13.3186 22.3652 13.426 22.5071 13.5219C22.7601 13.6906 23.0746 13.8459 23.4504 13.9878C23.4504 14.0453 23.414 14.1316 23.3411 14.2466C23.2721 14.3578 23.1992 14.4307 23.1225 14.4652ZM32.7112 14.0913C31.9251 14.3444 31.1409 14.471 30.3586 14.471C28.8516 14.471 28.0981 13.8708 28.0981 12.6706C28.0981 12.4098 28.1537 11.8902 28.2649 11.1117C28.3761 10.3295 28.4317 9.79068 28.4317 9.49541C28.4317 9.1963 28.4183 8.96814 28.3914 8.81091C28.9168 8.57699 29.3789 8.3124 29.7777 8.01712C30.1765 7.72185 30.5638 7.35947 30.9396 6.92998C31.1313 6.87246 31.3806 6.8437 31.6874 6.8437C31.4304 7.74869 31.2253 8.67861 31.0719 9.63346C30.9223 10.5883 30.8476 11.2939 30.8476 11.7502C30.8476 12.2027 30.8802 12.5306 30.9454 12.7338C31.0105 12.9332 31.116 13.0885 31.2617 13.1997C31.5186 13.3953 31.9251 13.4931 32.4812 13.4931C32.6154 13.4931 32.7573 13.4874 32.9068 13.4758C32.8723 13.7289 32.8071 13.9341 32.7112 14.0913ZM31.7046 10.0936C31.7391 9.5606 31.8254 9.06592 31.9635 8.60959C32.3393 8.76681 32.7592 8.87802 33.2232 8.94321C33.2539 9.00073 33.2826 9.0966 33.3095 9.23081C33.3363 9.36119 33.3497 9.46473 33.3497 9.54143C32.8167 9.68715 32.2683 9.87121 31.7046 10.0936ZM39.2399 8.72463C39.7614 8.90486 40.1564 9.15795 40.4248 9.48391C40.6971 9.80602 40.8332 10.1511 40.8332 10.5193C40.8332 11.0216 40.6165 11.4473 40.1832 11.7962C39.7499 12.1452 39.1593 12.3197 38.4116 12.3197C38.1776 12.3197 37.9207 12.2813 37.6408 12.2046C38.0473 11.9515 38.3214 11.6218 38.4633 11.2153C38.586 10.8625 38.6474 10.4483 38.6474 9.97283C38.6474 9.8808 38.6378 9.59895 38.6186 9.12728C38.6148 9.07742 38.6915 8.99881 38.8487 8.89144C39.0098 8.78407 39.1402 8.72846 39.2399 8.72463ZM38.308 8.6326C37.8325 8.95471 37.4548 9.37845 37.1749 9.90381C36.8988 10.4292 36.7607 10.991 36.7607 11.5892C36.7607 12.1874 36.9908 12.6744 37.451 13.0502C37.9111 13.426 38.5822 13.6139 39.4642 13.6139C39.7058 13.6139 39.9646 13.5928 40.2407 13.5506C40.0605 13.8344 39.7134 14.0721 39.1996 14.2639C38.6857 14.4518 38.147 14.5457 37.5833 14.5457C37.0196 14.5457 36.5383 14.4901 36.1395 14.3789C35.7407 14.2639 35.384 14.0952 35.0696 13.8727C34.759 13.6503 34.5136 13.3608 34.3333 13.0042C34.1531 12.6437 34.063 12.2487 34.063 11.8193C34.063 11.3859 34.1301 10.9948 34.2643 10.6458C34.3985 10.2969 34.5826 9.99776 34.8165 9.7485C35.0504 9.49924 35.3227 9.2845 35.6333 9.10427C36.2507 8.75531 36.962 8.58083 37.7673 8.58083C37.9667 8.58083 38.147 8.59808 38.308 8.6326ZM44.3477 14.4422H41.9318C42.346 12.6897 42.6278 10.9162 42.7774 9.12152C42.7774 9.07551 42.8387 9.00648 42.9615 8.91445C43.0842 8.81858 43.2126 8.75914 43.3468 8.73613C43.4849 8.71313 43.8185 8.68245 44.3477 8.6441C44.8807 8.60192 45.2949 8.58083 45.5902 8.58083C45.2565 10.2796 45.0092 12.1069 44.8481 14.0626C44.8481 14.1124 44.7868 14.1891 44.6641 14.2926C44.5414 14.3923 44.4359 14.4422 44.3477 14.4422ZM45.895 14.4422C46.2938 12.1375 46.4932 10.7187 46.4932 10.1857C46.4932 9.6488 46.3686 9.38037 46.1193 9.38037C46.173 9.17329 46.2574 8.99881 46.3724 8.85693C46.7636 8.67286 47.2065 8.58083 47.7012 8.58083C48.1997 8.58083 48.5659 8.70162 48.7998 8.94321C49.0376 9.1848 49.1564 9.55101 49.1564 10.0419C49.1564 10.2988 49.0855 10.9066 48.9436 11.8653C48.8017 12.8201 48.7135 13.5525 48.679 14.0626C48.679 14.1124 48.6177 14.1891 48.495 14.2926C48.3722 14.3923 48.2649 14.4422 48.1728 14.4422H45.895ZM50.2148 14.4537C49.9886 14.2275 49.8755 13.9782 49.8755 13.7059C49.8755 13.4337 49.9483 12.8105 50.094 11.8365C50.2398 10.8587 50.3126 10.2547 50.3126 10.0246C50.3126 9.79452 50.2455 9.62962 50.1113 9.52992C49.9771 9.43022 49.8218 9.38037 49.6454 9.38037C49.6799 9.15795 49.7432 8.98347 49.8352 8.85693C49.9771 8.7879 50.2091 8.72463 50.5312 8.66711C50.8571 8.60959 51.1505 8.58083 51.4113 8.58083C51.9251 8.58083 52.3086 8.69779 52.5617 8.93171C52.8186 9.16562 52.9471 9.53567 52.9471 10.0419C52.9471 10.3295 52.878 10.8184 52.74 11.5086C52.6058 12.1989 52.5387 12.6245 52.5387 12.7856C52.5387 12.9467 52.5444 13.0675 52.5559 13.148C52.5713 13.2285 52.5828 13.2918 52.5904 13.3378C52.6019 13.38 52.6288 13.4318 52.671 13.4931C52.717 13.5545 52.7438 13.5928 52.7515 13.6081C52.763 13.6197 52.8033 13.658 52.8723 13.7232C52.9413 13.7884 52.9797 13.8248 52.9873 13.8325C52.9873 13.8823 52.9298 13.9705 52.8148 14.0971C52.7036 14.2198 52.6019 14.3022 52.5099 14.3444C52.0152 14.4173 51.2502 14.4537 50.2148 14.4537ZM57.8248 8.52906C57.6063 8.73613 57.497 8.95471 57.497 9.1848C57.497 9.72166 57.9054 10.2777 58.7222 10.8529C59.0903 11.1137 59.3779 11.3361 59.585 11.5201C60.049 11.9343 60.281 12.3849 60.281 12.8719C60.281 13.3551 60.0375 13.7462 59.5505 14.0453C59.0673 14.3406 58.3885 14.4882 57.5142 14.4882C57.6139 14.2658 57.6638 14.0645 57.6638 13.8842C57.6638 13.704 57.612 13.5295 57.5085 13.3608C57.4088 13.1882 57.2784 13.031 57.1173 12.8891C56.9563 12.7473 56.778 12.6054 56.5824 12.4635C56.3868 12.3178 56.1912 12.1701 55.9957 12.0206C55.8001 11.871 55.6218 11.7176 55.4607 11.5604C55.0964 11.2038 54.9143 10.8184 54.9143 10.4042C54.9143 9.94791 55.083 9.57594 55.4205 9.28833C55.9995 8.80132 56.801 8.54823 57.8248 8.52906ZM58.7164 8.54632C59.2571 8.54632 59.7211 8.65369 60.1084 8.86843C60.4957 9.07934 60.6894 9.33819 60.6894 9.64496C60.6894 10.1205 60.2445 10.4119 59.3549 10.5193C59.3626 10.4924 59.3664 10.4503 59.3664 10.3927C59.3664 10.1013 59.2744 9.83286 59.0903 9.58744C58.9062 9.33819 58.6493 9.13878 58.3195 8.98923C58.3195 8.92787 58.3617 8.84351 58.4461 8.73613C58.5304 8.62876 58.6205 8.56549 58.7164 8.54632ZM56.5076 14.4652C56.3159 14.4805 56.174 14.4882 56.082 14.4882C55.5259 14.4882 55.0638 14.3981 54.6957 14.2179C54.3276 14.0338 54.1435 13.796 54.1435 13.5046C54.1435 12.9179 54.5864 12.5478 55.4722 12.3945C55.4416 12.5594 55.4281 12.7051 55.432 12.8316C55.4396 12.9543 55.4818 13.077 55.5585 13.1997C55.639 13.3186 55.7503 13.426 55.8921 13.5219C56.1452 13.6906 56.4597 13.8459 56.8355 13.9878C56.8355 14.0453 56.799 14.1316 56.7262 14.2466C56.6572 14.3578 56.5843 14.4307 56.5076 14.4652ZM69.1219 14.5572C69.4594 14.3157 69.7719 13.9207 70.0595 13.3723C70.3471 12.8239 70.5734 12.2008 70.7383 11.5029C70.907 10.805 70.9914 10.1205 70.9914 9.44939C70.9914 8.38717 70.7843 7.54545 70.3701 6.92423C70.3701 6.86671 70.4315 6.78618 70.5542 6.68264C70.6769 6.5791 70.7824 6.52733 70.8706 6.52733C71.2847 6.52733 71.6778 6.61362 72.0497 6.78618C72.4255 6.95491 72.7515 7.19074 73.0276 7.49368C73.3037 7.79663 73.5223 8.17243 73.6833 8.62109C73.8482 9.06592 73.9307 9.53376 73.9307 10.0246C73.9307 10.5154 73.8693 10.9756 73.7466 11.4051C73.6277 11.8346 73.4379 12.2411 73.1771 12.6245C72.9202 13.008 72.6058 13.3436 72.2338 13.6312C71.8657 13.9149 71.4132 14.1412 70.8763 14.3099C70.3433 14.4748 69.7585 14.5572 69.1219 14.5572ZM68.2649 14.4882C67.6053 14.4882 66.7348 14.4652 65.6534 14.4192C66.1711 12.3369 66.545 9.8808 66.7751 7.05077C66.7751 7.00476 66.8364 6.93382 66.9591 6.83795C67.0857 6.74208 67.1931 6.69031 67.2813 6.68264C68.424 6.58677 69.2983 6.53884 69.9042 6.53884C69.3635 8.87035 68.9858 11.3917 68.771 14.1028C68.771 14.1565 68.7097 14.2351 68.587 14.3387C68.4643 14.4384 68.3569 14.4882 68.2649 14.4882ZM80.4708 8.72463C80.9923 8.90486 81.3873 9.15795 81.6557 9.48391C81.928 9.80602 82.0641 10.1511 82.0641 10.5193C82.0641 11.0216 81.8474 11.4473 81.4141 11.7962C80.9808 12.1452 80.3903 12.3197 79.6425 12.3197C79.4086 12.3197 79.1516 12.2813 78.8717 12.2046C79.2782 11.9515 79.5524 11.6218 79.6942 11.2153C79.817 10.8625 79.8783 10.4483 79.8783 9.97283C79.8783 9.8808 79.8687 9.59895 79.8496 9.12728C79.8457 9.07742 79.9224 8.99881 80.0796 8.89144C80.2407 8.78407 80.3711 8.72846 80.4708 8.72463ZM79.5389 8.6326C79.0634 8.95471 78.6857 9.37845 78.4058 9.90381C78.1297 10.4292 77.9916 10.991 77.9916 11.5892C77.9916 12.1874 78.2217 12.6744 78.6819 13.0502C79.142 13.426 79.8131 13.6139 80.6951 13.6139C80.9367 13.6139 81.1955 13.5928 81.4716 13.5506C81.2914 13.8344 80.9444 14.0721 80.4305 14.2639C79.9167 14.4518 79.3779 14.5457 78.8142 14.5457C78.2505 14.5457 77.7692 14.4901 77.3704 14.3789C76.9716 14.2639 76.615 14.0952 76.3005 13.8727C75.9899 13.6503 75.7445 13.3608 75.5643 13.0042C75.384 12.6437 75.2939 12.2487 75.2939 11.8193C75.2939 11.3859 75.361 10.9948 75.4952 10.6458C75.6294 10.2969 75.8135 9.99776 76.0474 9.7485C76.2813 9.49924 76.5536 9.2845 76.8642 9.10427C77.4816 8.75531 78.193 8.58083 78.9982 8.58083C79.1977 8.58083 79.3779 8.59808 79.5389 8.6326ZM86.3091 8.52906C86.0906 8.73613 85.9813 8.95471 85.9813 9.1848C85.9813 9.72166 86.3897 10.2777 87.2065 10.8529C87.5746 11.1137 87.8622 11.3361 88.0693 11.5201C88.5333 11.9343 88.7653 12.3849 88.7653 12.8719C88.7653 13.3551 88.5218 13.7462 88.0348 14.0453C87.5516 14.3406 86.8728 14.4882 85.9985 14.4882C86.0982 14.2658 86.1481 14.0645 86.1481 13.8842C86.1481 13.704 86.0963 13.5295 85.9928 13.3608C85.8931 13.1882 85.7627 13.031 85.6016 12.8891C85.4406 12.7473 85.2623 12.6054 85.0667 12.4635C84.8711 12.3178 84.6756 12.1701 84.48 12.0206C84.2844 11.871 84.1061 11.7176 83.945 11.5604C83.5807 11.2038 83.3986 10.8184 83.3986 10.4042C83.3986 9.94791 83.5673 9.57594 83.9048 9.28833C84.4838 8.80132 85.2853 8.54823 86.3091 8.52906ZM87.2007 8.54632C87.7414 8.54632 88.2054 8.65369 88.5927 8.86843C88.98 9.07934 89.1737 9.33819 89.1737 9.64496C89.1737 10.1205 88.7289 10.4119 87.8392 10.5193C87.8469 10.4924 87.8507 10.4503 87.8507 10.3927C87.8507 10.1013 87.7587 9.83286 87.5746 9.58744C87.3905 9.33819 87.1336 9.13878 86.8038 8.98923C86.8038 8.92787 86.846 8.84351 86.9304 8.73613C87.0147 8.62876 87.1048 8.56549 87.2007 8.54632ZM84.9919 14.4652C84.8002 14.4805 84.6583 14.4882 84.5663 14.4882C84.0102 14.4882 83.5481 14.3981 83.18 14.2179C82.8119 14.0338 82.6278 13.796 82.6278 13.5046C82.6278 12.9179 83.0707 12.5478 83.9565 12.3945C83.9259 12.5594 83.9124 12.7051 83.9163 12.8316C83.9239 12.9543 83.9661 13.077 84.0428 13.1997C84.1234 13.3186 84.2346 13.426 84.3764 13.5219C84.6295 13.6906 84.944 13.8459 85.3198 13.9878C85.3198 14.0453 85.2834 14.1316 85.2105 14.2466C85.1415 14.3578 85.0686 14.4307 84.9919 14.4652ZM89.9387 14.4422C90.2723 13.031 90.5273 11.2517 90.7037 9.10427C90.7037 9.05442 90.767 8.97964 90.8936 8.87994C91.0201 8.78023 91.1256 8.73038 91.2099 8.73038H93.62C93.2864 10.1646 93.0314 11.942 92.855 14.0626C92.855 14.1124 92.7937 14.1891 92.671 14.2926C92.5482 14.3923 92.4428 14.4422 92.3546 14.4422H89.9387ZM93.2979 7.95385H90.8936C90.9664 7.65858 91.0144 7.36906 91.0374 7.08529C91.0374 7.0316 91.0987 6.95491 91.2214 6.8552C91.3441 6.75167 91.4496 6.6999 91.5378 6.6999H93.9537C93.9038 6.88013 93.852 7.17157 93.7984 7.57421C93.7984 7.6279 93.737 7.70459 93.6143 7.8043C93.4954 7.904 93.39 7.95385 93.2979 7.95385ZM99.2743 8.58083C98.8679 8.8761 98.5151 9.30943 98.216 9.8808C97.9168 10.4483 97.7673 11.0101 97.7673 11.5662C97.7673 12.2833 98.0089 12.8374 98.4921 13.2285C98.4921 13.286 98.4307 13.3666 98.308 13.4701C98.1853 13.5698 98.0798 13.6197 97.9916 13.6197C96.5766 13.6197 95.6831 13.1422 95.3112 12.1874C95.2076 11.9228 95.1558 11.6256 95.1558 11.2958C95.1558 10.9622 95.2287 10.6343 95.3744 10.3122C95.5201 9.99009 95.733 9.69865 96.0129 9.43789C96.2928 9.17329 96.661 8.96238 97.1173 8.80516C97.5736 8.64794 98.0894 8.56932 98.6646 8.56932C98.795 8.56932 98.9982 8.57316 99.2743 8.58083ZM99.631 9.02374C99.631 8.97389 99.6923 8.89528 99.815 8.7879C99.9377 8.68053 100.045 8.62684 100.137 8.62684C100.363 8.62684 100.695 8.65752 101.132 8.71888C101.569 8.7764 101.991 8.86651 102.398 8.98923C102.164 10.1243 101.897 11.8883 101.598 14.2811C101.36 16.1793 100.312 17.1284 98.4518 17.1284C98.168 17.1284 97.9092 17.1131 97.6753 17.0824C98.0089 16.7718 98.2696 16.3941 98.4575 15.9492C98.6723 15.4354 98.818 15.0021 98.8947 14.6493C99.1516 13.4758 99.3376 12.3638 99.4527 11.3131C99.5715 10.2585 99.631 9.49541 99.631 9.02374ZM96.6744 16.9444C96.2104 16.8983 95.8135 16.7545 95.4837 16.5129C95.1539 16.2714 94.989 16.0068 94.989 15.7192C94.989 15.4316 95.1022 15.1881 95.3284 14.9886C95.7502 14.6128 96.3427 14.4249 97.1058 14.4249C97.3551 14.4249 97.589 14.4499 97.8076 14.4997C97.6043 14.703 97.4413 14.9522 97.3186 15.2475C97.1959 15.5428 97.1346 15.8054 97.1346 16.0355C97.1346 16.2656 97.1499 16.4401 97.1806 16.559C97.1806 16.6165 97.1173 16.6951 96.9908 16.7948C96.8681 16.8945 96.7626 16.9444 96.6744 16.9444ZM106.079 14.4422H103.663C104.062 12.7626 104.338 10.989 104.491 9.12152C104.491 9.07551 104.553 9.00648 104.676 8.91445C104.798 8.81858 104.927 8.75914 105.061 8.73613C105.199 8.71313 105.533 8.68245 106.062 8.6441C106.595 8.60192 107.007 8.58083 107.298 8.58083C106.988 10.1876 106.748 12.0148 106.579 14.0626C106.579 14.1124 106.518 14.1891 106.395 14.2926C106.273 14.3923 106.167 14.4422 106.079 14.4422ZM108.156 14.4997C107.933 14.285 107.822 14.0089 107.822 13.6714C107.822 13.334 107.906 12.6897 108.075 11.7387C108.248 10.7877 108.334 10.2029 108.334 9.98434C108.334 9.76192 108.28 9.60278 108.173 9.50691C108.069 9.40721 107.933 9.35736 107.764 9.35736C107.799 9.12728 107.864 8.95471 107.96 8.83967C108.102 8.77065 108.324 8.70737 108.627 8.64985C108.934 8.59233 109.218 8.56357 109.479 8.56357C109.989 8.56357 110.37 8.68053 110.623 8.91445C110.88 9.14837 111.009 9.51842 111.009 10.0246C111.009 10.3084 110.947 10.8069 110.825 11.5201C110.702 12.2334 110.64 12.6706 110.64 12.8316C110.64 12.9927 110.646 13.1135 110.658 13.194C110.673 13.2745 110.685 13.3378 110.692 13.3838C110.704 13.4298 110.731 13.4835 110.773 13.5449C110.815 13.6024 110.842 13.6388 110.853 13.6542C110.865 13.6657 110.903 13.704 110.968 13.7692C111.034 13.8306 111.072 13.867 111.083 13.8785C111.083 13.9322 111.028 14.0223 110.917 14.1488C110.805 14.2716 110.704 14.3521 110.612 14.3904C110.121 14.4633 109.302 14.4997 108.156 14.4997Z" fill="black"/>
</svg>
