<svg width="345" height="48" viewBox="0 0 345 48" fill="none" xmlns="http://www.w3.org/2000/svg">
<rect x="0.699951" y="0.56842" width="343.311" height="47.1211" fill="#40C463"/>
<path d="M31.6362 29.4287C31.3185 31.0502 30.5515 32.4033 29.3354 33.488C27.9987 34.6713 26.1471 35.263 23.7805 35.263C19.5623 35.263 16.7794 34.1838 15.4318 32.0254C14.6758 30.8311 14.2978 29.2863 14.2978 27.3908C14.2978 26.1418 14.5498 23.9615 15.0538 20.8499C15.5578 17.7383 15.8098 15.3388 15.8098 13.6516C15.8098 13.4982 15.9851 13.279 16.3357 12.9942C16.6863 12.7093 16.9876 12.5669 17.2396 12.5669H25.0788C23.3696 20.5212 22.5151 25.8788 22.5151 28.6398C22.5151 31.2803 23.8134 32.6006 26.41 32.6006C27.418 32.6006 28.3986 32.3102 29.3518 31.7295C30.305 31.1379 31.0665 30.3709 31.6362 29.4287ZM30.5187 28.5248C30.5187 25.2379 30.3379 22.4386 29.9763 20.1268C29.6257 17.804 28.9738 15.6456 28.0206 13.6516C28.0206 13.4982 28.1959 13.279 28.5465 12.9942C28.8971 12.7093 29.1984 12.5669 29.4504 12.5669H35.0053C33.7234 18.3737 32.7045 23.326 31.9485 27.4237C31.9156 27.588 31.7293 27.8126 31.3897 28.0975C31.061 28.3824 30.7707 28.5248 30.5187 28.5248ZM46.8053 34.9343C44.603 27.3744 41.9516 20.2747 38.851 13.6351C38.851 13.4927 39.0263 13.279 39.3769 12.9942C39.7384 12.7093 40.0452 12.5669 40.2972 12.5669H48.7117C49.9607 16.8399 51.1604 20.5321 52.3108 23.6438C53.4613 26.7444 54.9075 30.1463 56.6495 33.8496C56.6495 33.992 56.4742 34.2111 56.1236 34.507C55.773 34.7918 55.4717 34.9343 55.2197 34.9343H46.8053ZM53.1983 23.085C53.8228 21.0142 54.1351 19.2174 54.1351 17.6945C54.1351 16.9713 54.0693 16.3359 53.9379 15.7881C53.8064 15.2293 53.5763 14.5116 53.2476 13.6351C53.2476 13.4927 53.4229 13.279 53.7735 12.9942C54.1351 12.7093 54.4418 12.5669 54.6938 12.5669H59.9365C58.6326 14.5609 57.5644 16.2701 56.7317 17.6945C55.899 19.1188 55.1978 20.5431 54.6281 21.9674C54.5624 22.1427 54.3706 22.3728 54.0529 22.6577C53.7352 22.9425 53.4503 23.085 53.1983 23.085ZM42.3515 24.3504C41.727 26.3554 41.4147 28.0482 41.4147 29.4287C41.4147 30.8092 41.7106 32.2828 42.3022 33.8496C42.3022 33.992 42.1214 34.2111 41.7599 34.507C41.4093 34.7918 41.108 34.9343 40.856 34.9343H35.5969C38.1717 30.979 39.9411 27.8126 40.9053 25.4351C40.971 25.2598 41.1628 25.0352 41.4805 24.7613C41.8092 24.4874 42.0995 24.3504 42.3515 24.3504ZM78.0144 35.1643C75.7684 35.1643 74.0154 34.8028 72.7554 34.0797C71.4954 33.3566 70.8654 32.3102 70.8654 30.9407C70.8654 29.1 71.8898 27.6428 73.9387 26.5691C75.0014 26.0103 76.1299 25.6488 77.3242 25.4844C76.5901 27.0073 76.2231 28.3495 76.2231 29.5109C76.2231 31.6583 77.2968 33.1703 79.4442 34.0468C79.4442 34.2111 79.2689 34.4412 78.9183 34.7371C78.5677 35.0219 78.2664 35.1643 78.0144 35.1643ZM93.7258 33.8003C93.7258 33.9427 93.5505 34.1564 93.1999 34.4412C92.8493 34.7261 92.548 34.8685 92.296 34.8685H83.1256C81.9532 32.1075 80.5289 29.3684 78.8526 26.6513C77.3077 24.1423 76.371 22.4276 76.0423 21.5073C75.7136 20.576 75.5492 19.7269 75.5492 18.9599C75.5492 17.2945 76.2121 15.8374 77.5378 14.5883C78.8635 13.3284 80.6001 12.5833 82.7476 12.3532C82.4737 12.912 82.3367 13.6735 82.3367 14.6376C82.3367 15.5908 82.627 16.8234 83.2077 18.3354C83.7884 19.8364 84.4951 21.2881 85.3278 22.6905C86.1714 24.082 87.1411 25.5337 88.2367 27.0457C90.0445 29.5328 91.8742 31.7843 93.7258 33.8003ZM87.8751 22.2468C87.8751 21.1621 87.7053 20.061 87.3657 18.9435C86.7192 16.8179 85.5031 15.0704 83.7172 13.7009C83.7501 13.4927 83.9363 13.2571 84.276 12.9942C84.6266 12.7312 84.9279 12.5998 85.1799 12.5998C85.9687 12.5998 86.8945 12.7586 87.9573 13.0764C89.0201 13.3831 89.8692 13.679 90.5047 13.9638C90.5594 14.3144 90.5868 14.9006 90.5868 15.7223C90.5868 16.5331 90.5101 17.5411 90.3567 18.7463C90.2034 19.9515 90.0116 20.8992 89.7815 21.5894C89.7377 21.7319 89.4802 21.8798 89.0091 22.0332C88.5489 22.1756 88.171 22.2468 87.8751 22.2468ZM127.088 29.4287C126.77 31.0502 126.003 32.4033 124.787 33.488C123.45 34.6713 121.599 35.263 119.232 35.263C115.014 35.263 112.231 34.1838 110.883 32.0254C110.127 30.8311 109.749 29.2863 109.749 27.3908C109.749 26.1418 110.001 23.9615 110.505 20.8499C111.009 17.7383 111.261 15.3388 111.261 13.6516C111.261 13.4982 111.437 13.279 111.787 12.9942C112.138 12.7093 112.439 12.5669 112.691 12.5669H120.531C118.821 20.5212 117.967 25.8788 117.967 28.6398C117.967 31.2803 119.265 32.6006 121.862 32.6006C122.87 32.6006 123.85 32.3102 124.803 31.7295C125.757 31.1379 126.518 30.3709 127.088 29.4287ZM125.97 28.5248C125.97 25.2379 125.79 22.4386 125.428 20.1268C125.077 17.804 124.426 15.6456 123.472 13.6516C123.472 13.4982 123.648 13.279 123.998 12.9942C124.349 12.7093 124.65 12.5669 124.902 12.5669H130.457C129.175 18.3737 128.156 23.326 127.4 27.4237C127.367 27.588 127.181 27.8126 126.841 28.0975C126.513 28.3824 126.222 28.5248 125.97 28.5248ZM140.318 34.9343H132.676C134.188 28.3933 135.256 21.2936 135.88 13.6351C135.88 13.4927 136.056 13.279 136.406 12.9942C136.768 12.7093 137.075 12.5669 137.327 12.5669H144.969C143.446 19.053 142.372 26.1473 141.747 33.8496C141.747 33.992 141.572 34.2111 141.222 34.507C140.871 34.7918 140.57 34.9343 140.318 34.9343ZM168.996 35.263C169.96 34.5727 170.853 33.4442 171.675 31.8774C172.496 30.3107 173.143 28.5303 173.614 26.5362C174.096 24.5422 174.337 22.5865 174.337 20.6691C174.337 17.6342 173.745 15.2293 172.562 13.4543C172.562 13.29 172.738 13.0599 173.088 12.7641C173.439 12.4683 173.74 12.3204 173.992 12.3204C175.175 12.3204 176.298 12.5669 177.361 13.0599C178.435 13.542 179.366 14.2158 180.155 15.0814C180.944 15.9469 181.568 17.0206 182.028 18.3025C182.5 19.5735 182.735 20.9101 182.735 22.3126C182.735 23.715 182.56 25.0297 182.209 26.2568C181.87 27.484 181.327 28.6453 180.582 29.741C179.848 30.8366 178.95 31.7953 177.887 32.617C176.835 33.4278 175.542 34.0742 174.008 34.5563C172.486 35.0274 170.815 35.263 168.996 35.263ZM166.547 35.0657C164.663 35.0657 162.176 35 159.086 34.8685C160.565 28.9192 161.633 21.9017 162.291 13.8159C162.291 13.6844 162.466 13.4817 162.817 13.2078C163.178 12.9339 163.485 12.786 163.737 12.7641C167.002 12.4902 169.5 12.3532 171.231 12.3532C169.686 19.0147 168.607 26.2185 167.993 33.9646C167.993 34.118 167.818 34.3426 167.468 34.6384C167.117 34.9233 166.81 35.0657 166.547 35.0657ZM201.421 18.5984C202.911 19.1133 204.04 19.8364 204.807 20.7677C205.585 21.688 205.974 22.6741 205.974 23.7259C205.974 25.1612 205.355 26.3774 204.116 27.3744C202.878 28.3714 201.191 28.8699 199.055 28.8699C198.386 28.8699 197.652 28.7604 196.852 28.5412C198.014 27.8181 198.797 26.8759 199.203 25.7145C199.553 24.7065 199.728 23.5232 199.728 22.1646C199.728 21.9017 199.701 21.0964 199.646 19.7488C199.635 19.6063 199.854 19.3817 200.304 19.075C200.764 18.7682 201.136 18.6093 201.421 18.5984ZM198.759 18.3354C197.4 19.2557 196.321 20.4664 195.521 21.9674C194.732 23.4684 194.338 25.0736 194.338 26.7827C194.338 28.4919 194.995 29.8834 196.31 30.9571C197.625 32.0308 199.542 32.5677 202.062 32.5677C202.752 32.5677 203.492 32.5074 204.281 32.3869C203.766 33.1977 202.774 33.877 201.306 34.4248C199.838 34.9617 198.299 35.2301 196.688 35.2301C195.077 35.2301 193.702 35.0712 192.563 34.7535C191.424 34.4248 190.405 33.9427 189.506 33.3072C188.619 32.6718 187.918 31.8446 187.403 30.8256C186.888 29.7957 186.63 28.6672 186.63 27.4401C186.63 26.2021 186.822 25.0845 187.205 24.0875C187.589 23.0905 188.115 22.2359 188.783 21.5237C189.451 20.8115 190.229 20.198 191.117 19.683C192.881 18.686 194.913 18.1875 197.214 18.1875C197.784 18.1875 198.299 18.2368 198.759 18.3354ZM218.102 18.0396C217.478 18.6312 217.165 19.2557 217.165 19.9131C217.165 21.447 218.332 23.0357 220.666 24.6791C221.718 25.4242 222.54 26.0596 223.131 26.5855C224.457 27.7688 225.12 29.0562 225.12 30.4476C225.12 31.8281 224.424 32.9457 223.033 33.8003C221.652 34.6439 219.713 35.0657 217.215 35.0657C217.5 34.4303 217.642 33.8551 217.642 33.3401C217.642 32.8252 217.494 32.3267 217.198 31.8446C216.913 31.3515 216.541 30.9023 216.081 30.4969C215.621 30.0916 215.111 29.6862 214.552 29.2808C213.994 28.8644 213.435 28.4426 212.876 28.0153C212.317 27.588 211.808 27.1498 211.348 26.7006C210.307 25.6816 209.786 24.5805 209.786 23.3972C209.786 22.0934 210.268 21.0307 211.233 20.2089C212.887 18.8175 215.177 18.0944 218.102 18.0396ZM220.65 18.0889C222.194 18.0889 223.52 18.3957 224.627 19.0092C225.733 19.6118 226.287 20.3514 226.287 21.2279C226.287 22.5865 225.016 23.4191 222.474 23.7259C222.496 23.6492 222.507 23.5287 222.507 23.3644C222.507 22.5317 222.244 21.7647 221.718 21.0635C221.192 20.3514 220.458 19.7816 219.516 19.3543C219.516 19.179 219.636 18.938 219.877 18.6312C220.118 18.3244 220.376 18.1437 220.65 18.0889ZM214.339 35C213.791 35.0438 213.386 35.0657 213.123 35.0657C211.534 35.0657 210.214 34.8083 209.162 34.2933C208.11 33.7674 207.584 33.0881 207.584 32.2554C207.584 30.5791 208.85 29.5218 211.381 29.0836C211.293 29.5547 211.255 29.971 211.266 30.3326C211.287 30.6832 211.408 31.0338 211.627 31.3844C211.857 31.7241 212.175 32.0308 212.58 32.3047C213.303 32.7868 214.202 33.2306 215.276 33.6359C215.276 33.8003 215.171 34.0468 214.963 34.3755C214.766 34.6932 214.558 34.9014 214.339 35ZM228.472 34.9343C229.426 30.9023 230.154 25.8186 230.658 19.683C230.658 19.5406 230.839 19.327 231.201 19.0421C231.562 18.7572 231.863 18.6148 232.104 18.6148H238.991C238.037 22.7125 237.309 27.7907 236.805 33.8496C236.805 33.992 236.629 34.2111 236.279 34.507C235.928 34.7918 235.627 34.9343 235.375 34.9343H228.472ZM238.07 16.3961H231.201C231.409 15.5525 231.546 14.7253 231.611 13.9145C231.611 13.7611 231.787 13.542 232.137 13.2571C232.488 12.9613 232.789 12.8134 233.041 12.8134H239.944C239.801 13.3284 239.653 14.161 239.5 15.3114C239.5 15.4648 239.325 15.684 238.974 15.9688C238.634 16.2537 238.333 16.3961 238.07 16.3961ZM255.146 18.1875C253.984 19.0311 252.976 20.2692 252.122 21.9017C251.267 23.5232 250.84 25.1283 250.84 26.717C250.84 28.7658 251.53 30.349 252.911 31.4666C252.911 31.6309 252.735 31.861 252.385 32.1568C252.034 32.4417 251.733 32.5841 251.481 32.5841C247.438 32.5841 244.885 31.2201 243.822 28.4919C243.526 27.7359 243.379 26.8868 243.379 25.9446C243.379 24.9914 243.587 24.0546 244.003 23.1343C244.419 22.2139 245.027 21.3813 245.827 20.6362C246.627 19.8802 247.679 19.2776 248.983 18.8284C250.287 18.3792 251.76 18.1546 253.404 18.1546C253.776 18.1546 254.357 18.1656 255.146 18.1875ZM256.165 19.4529C256.165 19.3105 256.34 19.0859 256.691 18.7791C257.041 18.4724 257.348 18.319 257.611 18.319C258.257 18.319 259.205 18.4066 260.454 18.5819C261.703 18.7463 262.908 19.0037 264.07 19.3543C263.401 22.5974 262.64 27.6373 261.785 34.4741C261.106 39.8975 258.109 42.6092 252.796 42.6092C251.985 42.6092 251.245 42.5654 250.577 42.4777C251.53 41.5902 252.275 40.511 252.812 39.2401C253.426 37.772 253.842 36.5339 254.061 35.5259C254.795 32.1733 255.326 28.9959 255.655 25.9939C255.995 22.9809 256.165 20.8006 256.165 19.4529ZM247.717 42.0833C246.392 41.9518 245.258 41.5409 244.315 40.8507C243.373 40.1604 242.902 39.4045 242.902 38.5827C242.902 37.761 243.225 37.0653 243.872 36.4955C245.077 35.4218 246.77 34.885 248.95 34.885C249.662 34.885 250.33 34.9562 250.955 35.0986C250.374 35.6793 249.909 36.3915 249.558 37.2351C249.207 38.0787 249.032 38.8292 249.032 39.4866C249.032 40.144 249.076 40.6425 249.163 40.9822C249.163 41.1465 248.983 41.3711 248.621 41.656C248.271 41.9408 247.969 42.0833 247.717 42.0833ZM274.588 34.9343H267.685C268.825 30.1354 269.614 25.0681 270.052 19.7323C270.052 19.6009 270.227 19.4036 270.578 19.1407C270.928 18.8668 271.295 18.697 271.679 18.6312C272.073 18.5655 273.026 18.4778 274.538 18.3683C276.061 18.2478 277.239 18.1875 278.072 18.1875C277.184 22.7782 276.5 27.9989 276.017 33.8496C276.017 33.992 275.842 34.2111 275.492 34.507C275.141 34.7918 274.84 34.9343 274.588 34.9343ZM280.521 35.0986C279.885 34.4851 279.567 33.6962 279.567 32.732C279.567 31.7679 279.808 29.9272 280.29 27.21C280.784 24.4929 281.03 22.822 281.03 22.1975C281.03 21.562 280.877 21.1074 280.57 20.8334C280.274 20.5486 279.885 20.4062 279.403 20.4062C279.502 19.7488 279.688 19.2557 279.962 18.927C280.367 18.7298 281.003 18.5491 281.868 18.3847C282.745 18.2204 283.555 18.1382 284.3 18.1382C285.758 18.1382 286.848 18.4724 287.571 19.1407C288.305 19.809 288.672 20.8663 288.672 22.3126C288.672 23.1233 288.497 24.5476 288.146 26.5855C287.796 28.6234 287.62 29.8724 287.62 30.3326C287.62 30.7928 287.637 31.1379 287.67 31.368C287.713 31.5981 287.746 31.7788 287.768 31.9103C287.801 32.0418 287.878 32.1952 287.998 32.3705C288.119 32.5348 288.195 32.6389 288.228 32.6827C288.261 32.7156 288.371 32.8252 288.557 33.0114C288.743 33.1867 288.853 33.2908 288.886 33.3237C288.886 33.4771 288.727 33.7345 288.409 34.0961C288.091 34.4467 287.801 34.6768 287.538 34.7864C286.136 34.9945 283.797 35.0986 280.521 35.0986ZM308.016 18.5984C309.506 19.1133 310.634 19.8364 311.401 20.7677C312.179 21.688 312.568 22.6741 312.568 23.7259C312.568 25.1612 311.949 26.3774 310.711 27.3744C309.473 28.3714 307.785 28.8699 305.649 28.8699C304.981 28.8699 304.247 28.7604 303.447 28.5412C304.608 27.8181 305.391 26.8759 305.797 25.7145C306.147 24.7065 306.323 23.5232 306.323 22.1646C306.323 21.9017 306.295 21.0964 306.241 19.7488C306.23 19.6063 306.449 19.3817 306.898 19.075C307.358 18.7682 307.731 18.6093 308.016 18.5984ZM305.353 18.3354C303.995 19.2557 302.915 20.4664 302.116 21.9674C301.327 23.4684 300.932 25.0736 300.932 26.7827C300.932 28.4919 301.59 29.8834 302.904 30.9571C304.219 32.0308 306.136 32.5677 308.656 32.5677C309.347 32.5677 310.086 32.5074 310.875 32.3869C310.36 33.1977 309.369 33.877 307.9 34.4248C306.432 34.9617 304.893 35.2301 303.282 35.2301C301.672 35.2301 300.297 35.0712 299.157 34.7535C298.018 34.4248 296.999 33.9427 296.1 33.3072C295.213 32.6718 294.512 31.8446 293.997 30.8256C293.482 29.7957 293.224 28.6672 293.224 27.4401C293.224 26.2021 293.416 25.0845 293.8 24.0875C294.183 23.0905 294.709 22.2359 295.377 21.5237C296.046 20.8115 296.824 20.198 297.711 19.683C299.475 18.686 301.507 18.1875 303.808 18.1875C304.378 18.1875 304.893 18.2368 305.353 18.3354ZM331.681 18.1875C332.93 18.1875 333.555 18.9709 333.555 20.5376C333.555 21.5127 333.385 22.4879 333.045 23.463C332.706 24.4271 332.278 25.1667 331.763 25.6816C331.04 25.1776 330.147 24.7613 329.085 24.4326C328.033 24.093 327.025 23.9067 326.061 23.8738C326.148 23.2712 326.324 22.6303 326.587 21.951C328.35 19.442 330.049 18.1875 331.681 18.1875ZM321.837 34.9343H314.951C316.068 30.1573 316.857 25.09 317.317 19.7323C317.317 19.6118 317.493 19.4146 317.843 19.1407C318.205 18.8668 318.572 18.697 318.944 18.6312C319.328 18.5655 320.309 18.4778 321.886 18.3683C323.475 18.2478 324.691 18.1875 325.535 18.1875C324.45 23.6109 323.694 28.8316 323.267 33.8496C323.267 33.992 323.091 34.2111 322.741 34.507C322.39 34.7918 322.089 34.9343 321.837 34.9343Z" fill="black"/>
</svg>
