<svg width="95" height="21" viewBox="0 0 95 21" fill="none" xmlns="http://www.w3.org/2000/svg">
<rect x="0.163086" y="0.076416" width="94.2421" height="20.1947" rx="3.36579" fill="#89EE78"/>
<path d="M10.8224 12.5153C10.7112 13.0828 10.4428 13.5564 10.0172 13.936C9.54932 14.3502 8.90125 14.5572 8.07295 14.5572C6.59659 14.5572 5.62257 14.1795 5.1509 13.4241C4.8863 13.0061 4.754 12.4654 4.754 11.802C4.754 11.3648 4.8422 10.6017 5.0186 9.51267C5.195 8.4236 5.28319 7.5838 5.28319 6.99325C5.28319 6.93957 5.34455 6.86287 5.46726 6.76317C5.58997 6.66347 5.69543 6.61362 5.78362 6.61362H8.52737C7.92915 9.39762 7.63004 11.2728 7.63004 12.2392C7.63004 13.1633 8.08446 13.6254 8.99329 13.6254C9.34608 13.6254 9.68929 13.5238 10.0229 13.3205C10.3565 13.1135 10.623 12.845 10.8224 12.5153ZM10.4313 12.1989C10.4313 11.0485 10.368 10.0687 10.2415 9.25957C10.1188 8.44661 9.89061 7.69117 9.55699 6.99325C9.55699 6.93957 9.61835 6.86287 9.74106 6.76317C9.86377 6.66347 9.96922 6.61362 10.0574 6.61362H12.0016C11.553 8.64602 11.1963 10.3793 10.9317 11.8135C10.9202 11.871 10.855 11.9496 10.7362 12.0493C10.6211 12.149 10.5195 12.1989 10.4313 12.1989ZM16.1316 14.4422C15.3608 11.7962 14.4328 9.31134 13.3476 6.9875C13.3476 6.93765 13.409 6.86287 13.5317 6.76317C13.6582 6.66347 13.7656 6.61362 13.8538 6.61362H16.7989C17.236 8.10916 17.6559 9.40146 18.0586 10.4905C18.4612 11.5757 18.9674 12.7664 19.5771 14.0626C19.5771 14.1124 19.5158 14.1891 19.3931 14.2926C19.2703 14.3923 19.1649 14.4422 19.0767 14.4422H16.1316ZM18.3692 10.2949C18.5878 9.57019 18.697 8.94129 18.697 8.40827C18.697 8.15517 18.674 7.93276 18.628 7.74102C18.582 7.54545 18.5015 7.29428 18.3864 6.9875C18.3864 6.93765 18.4478 6.86287 18.5705 6.76317C18.697 6.66347 18.8044 6.61362 18.8926 6.61362H20.7275C20.2712 7.31154 19.8973 7.90975 19.6059 8.40827C19.3144 8.90678 19.069 9.40529 18.8696 9.90381C18.8466 9.96516 18.7795 10.0457 18.6683 10.1454C18.5571 10.2451 18.4574 10.2949 18.3692 10.2949ZM14.5728 10.7379C14.3542 11.4396 14.2449 12.0321 14.2449 12.5153C14.2449 12.9984 14.3485 13.5142 14.5555 14.0626C14.5555 14.1124 14.4923 14.1891 14.3657 14.2926C14.243 14.3923 14.1376 14.4422 14.0494 14.4422H12.2087C13.1099 13.0579 13.7292 11.9496 14.0666 11.1175C14.0896 11.0561 14.1567 10.9775 14.2679 10.8817C14.383 10.7858 14.4846 10.7379 14.5728 10.7379ZM27.8774 14.0626C27.8774 14.1124 27.816 14.1891 27.6933 14.2926C27.5706 14.3923 27.4632 14.4422 27.3712 14.4422H24.7597C25.2851 12.3254 25.659 9.86163 25.8814 7.05077C25.8814 7.00476 25.9428 6.93382 26.0655 6.83795C26.1882 6.73824 26.2936 6.68648 26.3818 6.68264C27.5322 6.58677 28.4104 6.53884 29.0163 6.53884C28.4641 8.92404 28.0844 11.4319 27.8774 14.0626ZM32.0534 11.8538L31.9729 13.0099C31.9729 13.2208 32.0112 13.3896 32.0879 13.5161C32.1646 13.6427 32.3065 13.7213 32.5135 13.7519C32.4752 13.9935 32.4119 14.191 32.3237 14.3444C31.6373 14.5055 31.0525 14.586 30.5693 14.586C30.09 14.586 29.718 14.5208 29.4534 14.3904C29.1927 14.2562 29.0623 14.0491 29.0623 13.7692C29.0623 13.4893 29.1045 13.1077 29.1888 12.6245C29.277 12.1375 29.3211 11.7924 29.3211 11.5892C29.3211 11.3821 29.2751 11.2095 29.1831 11.0715C29.0911 10.9334 28.9664 10.8567 28.8092 10.8414C28.8284 10.6688 28.8936 10.5154 29.0048 10.3812C29.3269 10.2125 29.5781 9.94982 29.7583 9.59319C29.9385 9.23657 30.0286 8.85118 30.0286 8.43703C30.0286 7.8158 29.8427 7.31154 29.4707 6.92423C29.4707 6.86671 29.5321 6.78618 29.6548 6.68264C29.7775 6.5791 29.8829 6.52733 29.9711 6.52733C30.6575 6.52733 31.2519 6.66922 31.7543 6.95299C32.0074 7.09871 32.2087 7.29811 32.3582 7.55121C32.5078 7.8043 32.5826 8.09574 32.5826 8.42552C32.5826 8.96622 32.3352 9.42638 31.8406 9.80602C31.3459 10.1857 30.6844 10.4042 29.8561 10.4618L30.3738 10.5078C30.88 10.5576 31.2864 10.6918 31.5932 10.9104C31.9 11.1252 32.0534 11.4396 32.0534 11.8538ZM38.8293 8.72463C39.3509 8.90486 39.7458 9.15795 40.0143 9.48391C40.2865 9.80602 40.4227 10.1511 40.4227 10.5193C40.4227 11.0216 40.206 11.4473 39.7727 11.7962C39.3394 12.1452 38.7488 12.3197 38.001 12.3197C37.7671 12.3197 37.5102 12.2813 37.2303 12.2046C37.6367 11.9515 37.9109 11.6218 38.0528 11.2153C38.1755 10.8625 38.2369 10.4483 38.2369 9.97283C38.2369 9.8808 38.2273 9.59895 38.2081 9.12728C38.2043 9.07742 38.281 8.99881 38.4382 8.89144C38.5993 8.78407 38.7296 8.72846 38.8293 8.72463ZM37.8975 8.6326C37.422 8.95471 37.0443 9.37845 36.7643 9.90381C36.4882 10.4292 36.3502 10.991 36.3502 11.5892C36.3502 12.1874 36.5803 12.6744 37.0404 13.0502C37.5006 13.426 38.1717 13.6139 39.0537 13.6139C39.2953 13.6139 39.5541 13.5928 39.8302 13.5506C39.65 13.8344 39.3029 14.0721 38.7891 14.2639C38.2752 14.4518 37.7364 14.5457 37.1727 14.5457C36.609 14.5457 36.1278 14.4901 35.729 14.3789C35.3302 14.2639 34.9735 14.0952 34.6591 13.8727C34.3485 13.6503 34.103 13.3608 33.9228 13.0042C33.7426 12.6437 33.6525 12.2487 33.6525 11.8193C33.6525 11.3859 33.7196 10.9948 33.8538 10.6458C33.988 10.2969 34.1721 9.99776 34.406 9.7485C34.6399 9.49924 34.9122 9.2845 35.2228 9.10427C35.8402 8.75531 36.5515 8.58083 37.3568 8.58083C37.5562 8.58083 37.7364 8.59808 37.8975 8.6326ZM44.6677 8.52906C44.4491 8.73613 44.3398 8.95471 44.3398 9.1848C44.3398 9.72166 44.7482 10.2777 45.565 10.8529C45.9332 11.1137 46.2208 11.3361 46.4278 11.5201C46.8918 11.9343 47.1238 12.3849 47.1238 12.8719C47.1238 13.3551 46.8803 13.7462 46.3933 14.0453C45.9101 14.3406 45.2314 14.4882 44.3571 14.4882C44.4568 14.2658 44.5066 14.0645 44.5066 13.8842C44.5066 13.704 44.4549 13.5295 44.3513 13.3608C44.2516 13.1882 44.1213 13.031 43.9602 12.8891C43.7991 12.7473 43.6208 12.6054 43.4252 12.4635C43.2297 12.3178 43.0341 12.1701 42.8385 12.0206C42.643 11.871 42.4647 11.7176 42.3036 11.5604C41.9393 11.2038 41.7571 10.8184 41.7571 10.4042C41.7571 9.94791 41.9259 9.57594 42.2633 9.28833C42.8424 8.80132 43.6438 8.54823 44.6677 8.52906ZM45.5593 8.54632C46.1 8.54632 46.564 8.65369 46.9513 8.86843C47.3386 9.07934 47.5322 9.33819 47.5322 9.64496C47.5322 10.1205 47.0874 10.4119 46.1978 10.5193C46.2054 10.4924 46.2093 10.4503 46.2093 10.3927C46.2093 10.1013 46.1172 9.83286 45.9332 9.58744C45.7491 9.33819 45.4922 9.13878 45.1624 8.98923C45.1624 8.92787 45.2046 8.84351 45.2889 8.73613C45.3733 8.62876 45.4634 8.56549 45.5593 8.54632ZM43.3505 14.4652C43.1587 14.4805 43.0169 14.4882 42.9248 14.4882C42.3688 14.4882 41.9067 14.3981 41.5386 14.2179C41.1704 14.0338 40.9864 13.796 40.9864 13.5046C40.9864 12.9179 41.4293 12.5478 42.3151 12.3945C42.2844 12.5594 42.271 12.7051 42.2748 12.8316C42.2825 12.9543 42.3247 13.077 42.4014 13.1997C42.4819 13.3186 42.5931 13.426 42.735 13.5219C42.9881 13.6906 43.3025 13.8459 43.6783 13.9878C43.6783 14.0453 43.6419 14.1316 43.5691 14.2466C43.5 14.3578 43.4272 14.4307 43.3505 14.4652ZM53.5662 8.72463C54.0877 8.90486 54.4827 9.15795 54.7511 9.48391C55.0234 9.80602 55.1595 10.1511 55.1595 10.5193C55.1595 11.0216 54.9428 11.4473 54.5095 11.7962C54.0762 12.1452 53.4856 12.3197 52.7379 12.3197C52.504 12.3197 52.247 12.2813 51.9671 12.2046C52.3736 11.9515 52.6478 11.6218 52.7896 11.2153C52.9124 10.8625 52.9737 10.4483 52.9737 9.97283C52.9737 9.8808 52.9641 9.59895 52.9449 9.12728C52.9411 9.07742 53.0178 8.99881 53.175 8.89144C53.3361 8.78407 53.4665 8.72846 53.5662 8.72463ZM52.6343 8.6326C52.1588 8.95471 51.7811 9.37845 51.5012 9.90381C51.2251 10.4292 51.087 10.991 51.087 11.5892C51.087 12.1874 51.3171 12.6744 51.7773 13.0502C52.2374 13.426 52.9085 13.6139 53.7905 13.6139C54.0321 13.6139 54.2909 13.5928 54.567 13.5506C54.3868 13.8344 54.0398 14.0721 53.5259 14.2639C53.0121 14.4518 52.4733 14.5457 51.9096 14.5457C51.3459 14.5457 50.8646 14.4901 50.4658 14.3789C50.067 14.2639 49.7104 14.0952 49.3959 13.8727C49.0853 13.6503 48.8399 13.3608 48.6596 13.0042C48.4794 12.6437 48.3893 12.2487 48.3893 11.8193C48.3893 11.3859 48.4564 10.9948 48.5906 10.6458C48.7248 10.2969 48.9089 9.99776 49.1428 9.7485C49.3767 9.49924 49.649 9.2845 49.9596 9.10427C50.577 8.75531 51.2883 8.58083 52.0936 8.58083C52.293 8.58083 52.4733 8.59808 52.6343 8.6326ZM63.0801 14.2121C62.3323 14.3732 61.529 14.4537 60.67 14.4537C60.4744 14.1891 60.3766 13.9111 60.3766 13.6197C60.3766 13.3282 60.4629 12.59 60.6355 11.4051C60.808 10.2163 60.8962 9.42638 60.9001 9.03524C60.9001 8.98539 60.9633 8.91061 61.0899 8.81091C61.2164 8.71121 61.3219 8.66136 61.4063 8.66136C62.2269 8.66136 62.9996 8.77065 63.7243 8.98923C63.709 9.11194 63.6074 9.60086 63.4195 10.456C63.2316 11.3073 63.1376 11.9918 63.1376 12.5095C63.1376 13.0234 63.2757 13.4183 63.5518 13.6944C63.5518 13.7481 63.4981 13.8382 63.3907 13.9648C63.2834 14.0875 63.1798 14.1699 63.0801 14.2121ZM60.4169 8.58083C59.9606 8.91828 59.6135 9.37653 59.3758 9.95558C59.1419 10.5346 59.0249 11.1041 59.0249 11.6639C59.0249 12.22 59.0862 12.7204 59.209 13.1652C59.3355 13.6062 59.5042 13.9015 59.7151 14.0511C59.7151 14.1086 59.6538 14.1891 59.5311 14.2926C59.4084 14.3923 59.3029 14.4422 59.2147 14.4422C58.3366 14.4422 57.631 14.2217 57.0979 13.7807C56.5688 13.3397 56.3042 12.7377 56.3042 11.9746C56.3042 11.0274 56.6627 10.2317 57.3798 9.58744C57.7249 9.27683 58.1582 9.03141 58.6798 8.85118C59.2051 8.67094 59.7842 8.58083 60.4169 8.58083ZM70.6959 8.58083C71.133 8.58083 71.3516 8.85501 71.3516 9.40338C71.3516 9.74467 71.2922 10.086 71.1733 10.4272C71.0544 10.7647 70.9049 11.0235 70.7246 11.2038C70.4715 11.0274 70.159 10.8817 69.787 10.7666C69.4189 10.6477 69.0661 10.5826 68.7287 10.571C68.7593 10.3601 68.8207 10.1358 68.9127 9.89805C69.5301 9.0199 70.1245 8.58083 70.6959 8.58083ZM67.2504 14.4422H64.8402C65.2314 12.7703 65.5075 10.9967 65.6685 9.12152C65.6685 9.07934 65.7299 9.01032 65.8526 8.91445C65.9792 8.81858 66.1076 8.75914 66.238 8.73613C66.3722 8.71313 66.7154 8.68245 67.2676 8.6441C67.8237 8.60192 68.2493 8.58083 68.5446 8.58083C68.165 10.479 67.9004 12.3063 67.7508 14.0626C67.7508 14.1124 67.6894 14.1891 67.5667 14.2926C67.444 14.3923 67.3386 14.4422 67.2504 14.4422ZM77.2993 8.75339C77.7403 8.84542 78.093 9.04483 78.3576 9.35161C78.6261 9.65838 78.7603 9.96708 78.7603 10.2777C78.7603 10.5845 78.6242 10.8126 78.3519 10.9622C78.0796 11.1079 77.8074 11.1808 77.5351 11.1808C77.2628 11.1808 76.9906 11.129 76.7183 11.0255C76.7451 10.665 76.7586 10.3371 76.7586 10.0419C76.7586 9.74275 76.7336 9.43789 76.6838 9.12728C76.6953 9.04291 76.772 8.96047 76.9139 8.87994C77.0596 8.79557 77.1881 8.75339 77.2993 8.75339ZM76.3272 8.59808C75.9283 8.90486 75.5966 9.32093 75.332 9.84629C75.0713 10.3716 74.9409 10.8721 74.9409 11.3476C74.9409 11.8231 74.9984 12.2027 75.1135 12.4865C75.2285 12.7703 75.3915 12.9984 75.6024 13.171C76.0204 13.5123 76.563 13.6829 77.2302 13.6829C77.5677 13.6829 77.9282 13.6388 78.3116 13.5506C77.9933 13.9303 77.606 14.191 77.1497 14.3329C76.6934 14.4748 76.1278 14.5457 75.4528 14.5457C74.7779 14.5457 74.1951 14.4441 73.7042 14.2409C73.2172 14.0376 72.8261 13.7251 72.5308 13.3033C72.2355 12.8815 72.0879 12.3676 72.0879 11.7617C72.0879 11.152 72.2451 10.596 72.5595 10.0936C72.874 9.58744 73.2939 9.19822 73.8192 8.92595C74.3446 8.65369 74.9236 8.51756 75.5564 8.51756C75.7596 8.51756 76.0165 8.5444 76.3272 8.59808ZM84.219 14.4997C83.9966 14.285 83.8854 14.0089 83.8854 13.6714C83.8854 13.334 83.9698 12.6897 84.1385 11.7387C84.311 10.7877 84.3973 10.2029 84.3973 9.98434C84.3973 9.76192 84.3436 9.60278 84.2363 9.50691C84.1327 9.40721 83.9966 9.35736 83.8279 9.35736C83.8624 9.12728 83.9276 8.95471 84.0234 8.83967C84.1653 8.77065 84.3877 8.70737 84.6907 8.64985C84.9975 8.59233 85.2812 8.56357 85.542 8.56357C86.052 8.56357 86.4336 8.68053 86.6867 8.91445C86.9436 9.14837 87.072 9.51842 87.072 10.0246C87.072 10.3084 87.0107 10.8069 86.888 11.5201C86.7653 12.2334 86.7039 12.6706 86.7039 12.8316C86.7039 12.9927 86.7097 13.1135 86.7212 13.194C86.7365 13.2745 86.748 13.3378 86.7557 13.3838C86.7672 13.4298 86.794 13.4835 86.8362 13.5449C86.8784 13.6024 86.9052 13.6388 86.9167 13.6542C86.9282 13.6657 86.9666 13.704 87.0318 13.7692C87.097 13.8306 87.1353 13.867 87.1468 13.8785C87.1468 13.9322 87.0912 14.0223 86.98 14.1488C86.8688 14.2716 86.7672 14.3521 86.6751 14.3904C86.1843 14.4633 85.3656 14.4997 84.219 14.4997ZM82.6717 14.0511C82.6717 14.1047 82.6103 14.1834 82.4876 14.2869C82.3649 14.3904 82.2576 14.4422 82.1655 14.4422H79.7957C79.9644 13.7213 80.158 12.5172 80.3766 10.8299C80.599 9.14261 80.7524 7.81964 80.8368 6.86096C80.8368 6.8111 80.8981 6.73633 81.0209 6.63662C81.1436 6.53309 81.249 6.48132 81.3372 6.48132H83.7588C83.5556 7.32496 83.3447 8.54248 83.1261 10.1339C82.9075 11.7215 82.7561 13.0272 82.6717 14.0511Z" fill="black"/>
</svg>
